<svg width="81" height="81" viewBox="0 0 81 81" fill="none" xmlns="http://www.w3.org/2000/svg">
<path d="M19.7438 57.7125C22.6125 55.5188 25.8188 53.7891 29.3625 52.5234C32.9063 51.2578 36.6188 50.625 40.5 50.625C44.3812 50.625 48.0938 51.2578 51.6375 52.5234C55.1813 53.7891 58.3875 55.5188 61.2562 57.7125C63.225 55.4063 64.7578 52.7906 65.8547 49.8656C66.9516 46.9406 67.5 43.8187 67.5 40.5C67.5 33.0187 64.8703 26.6484 59.6109 21.3891C54.3516 16.1297 47.9813 13.5 40.5 13.5C33.0187 13.5 26.6484 16.1297 21.3891 21.3891C16.1297 26.6484 13.5 33.0187 13.5 40.5C13.5 43.8187 14.0484 46.9406 15.1453 49.8656C16.2422 52.7906 17.775 55.4063 19.7438 57.7125ZM40.5 43.875C37.1813 43.875 34.3828 42.7359 32.1047 40.4578C29.8266 38.1797 28.6875 35.3812 28.6875 32.0625C28.6875 28.7438 29.8266 25.9453 32.1047 23.6672C34.3828 21.3891 37.1813 20.25 40.5 20.25C43.8187 20.25 46.6172 21.3891 48.8953 23.6672C51.1734 25.9453 52.3125 28.7438 52.3125 32.0625C52.3125 35.3812 51.1734 38.1797 48.8953 40.4578C46.6172 42.7359 43.8187 43.875 40.5 43.875ZM40.5 74.25C35.8313 74.25 31.4437 73.3641 27.3375 71.5922C23.2312 69.8203 19.6594 67.4156 16.6219 64.3781C13.5844 61.3406 11.1797 57.7688 9.40781 53.6625C7.63594 49.5563 6.75 45.1687 6.75 40.5C6.75 35.8313 7.63594 31.4437 9.40781 27.3375C11.1797 23.2312 13.5844 19.6594 16.6219 16.6219C19.6594 13.5844 23.2312 11.1797 27.3375 9.40781C31.4437 7.63594 35.8313 6.75 40.5 6.75C45.1687 6.75 49.5563 7.63594 53.6625 9.40781C57.7688 11.1797 61.3406 13.5844 64.3781 16.6219C67.4156 19.6594 69.8203 23.2312 71.5922 27.3375C73.3641 31.4437 74.25 35.8313 74.25 40.5C74.25 45.1687 73.3641 49.5563 71.5922 53.6625C69.8203 57.7688 67.4156 61.3406 64.3781 64.3781C61.3406 67.4156 57.7688 69.8203 53.6625 71.5922C49.5563 73.3641 45.1687 74.25 40.5 74.25Z" fill="#FEF7FF"/>
</svg>
