<svg width="60" height="60" viewBox="0 0 60 60" fill="none" xmlns="http://www.w3.org/2000/svg">
<path d="M7.5 7.5L13.75 7.5L15 12.5M15 12.5L20 32.5M15 12.5H52.5L47.5 32.5H20M20 32.5H18.75C16.6789 32.5 15 34.1789 15 36.25C15 38.3211 16.6789 40 18.75 40H47.5M47.5 50C47.5 51.3807 46.3807 52.5 45 52.5C43.6193 52.5 42.5 51.3807 42.5 50C42.5 48.6193 43.6193 47.5 45 47.5C46.3807 47.5 47.5 48.6193 47.5 50ZM22.5 50C22.5 51.3807 21.3807 52.5 20 52.5C18.6193 52.5 17.5 51.3807 17.5 50C17.5 48.6193 18.6193 47.5 20 47.5C21.3807 47.5 22.5 48.6193 22.5 50Z" stroke="white" stroke-width="5" stroke-linecap="round"/>
</svg>
