<svg width="85" height="90" viewBox="0 0 85 90" fill="none" xmlns="http://www.w3.org/2000/svg"><path d="M43.4336 74.3174H85.0002L79.6281 64.9312H48.8056L43.4336 74.3174Z" fill="#17243C"/><path d="M41.6046 74.3175L36.2326 64.9312H16.3828L41.2617 21.3604L42.519 26.9226V19.1587V15.5278V0.0771484L0.0761719 74.3175H41.6046Z" fill="#17243C"/><path d="M26.2887 26.8455L17.8687 12.1288L16.3447 9.50217L0 0L20.8404 36.4249L26.2887 26.8455Z" fill="#17243C"/><path d="M68.6173 9.57929L67.1314 12.2059L42.5191 55.1201L32.6895 37.9698L27.2031 47.5879L42.5191 74.3175L85.0001 0.0771484L68.6173 9.57929Z" fill="#17243C"/><path d="M50.1383 37.1971C44.5757 37.1971 42.4803 39.3215 42.4803 44.961C42.4803 39.3215 40.3848 37.1971 34.8223 37.1971C40.3848 37.1971 42.4803 35.0726 42.4803 29.4331C42.4803 35.0726 44.5757 37.1971 50.1383 37.1971Z" fill="#17243C"/><path d="M6.97212 88.5316C6.93402 88.802 6.74352 89.5359 6.66732 89.8063H3.00977V89.6904C3.73366 89.5745 3.77176 89.5359 3.77176 88.8406V85.287C3.77176 84.5917 3.69556 84.5144 3.04787 84.4372V84.3213H5.06714V84.4372C4.45755 84.553 4.41945 84.5917 4.41945 85.287V88.9565C4.41945 89.5359 4.53375 89.5745 5.02904 89.5745C5.18144 89.5745 5.44813 89.5745 5.56243 89.5745C6.01963 89.5745 6.21013 89.5745 6.43873 89.2655C6.59112 89.0724 6.70542 88.802 6.81972 88.493H6.93402L6.97212 88.5316Z" fill="#17243C"/><path d="M16.4966 88.6093C16.4585 88.8797 16.3061 89.5749 16.2299 89.8453H12.458V89.7294C13.1819 89.6136 13.22 89.5749 13.22 88.8797V85.3647C13.22 84.6307 13.22 84.5921 12.5723 84.4762V84.3604H14.9345C15.6584 84.3604 15.9251 84.3604 16.0394 84.3604C16.0394 84.6694 16.0394 85.2488 16.1156 85.5192H16.0013C15.9251 85.326 15.8108 85.017 15.7346 84.8625C15.5822 84.6307 15.4679 84.6307 14.9726 84.6307H14.1344C13.9058 84.6307 13.9058 84.6307 13.9058 84.8625V86.8325H14.8964C15.4679 86.8325 15.5441 86.7166 15.6203 86.1372H15.7346V87.7209H15.6203C15.4679 87.1415 15.4298 87.0256 14.8964 87.0256H13.9058V88.9955C13.9058 89.5749 14.0963 89.6136 14.5916 89.6136H15.3536C15.7727 89.6136 15.887 89.5363 16.0775 89.2273C16.1918 89.0342 16.3061 88.841 16.4204 88.5706H16.5347L16.4966 88.6093Z" fill="#17243C"/><path d="M25.1074 85.5188C24.955 84.9007 24.6883 84.4372 23.9644 84.4372C23.3549 84.4372 23.0882 84.9007 23.0882 85.4029C23.0882 86.0209 23.4311 86.2913 24.0787 86.6775C24.7264 87.0638 25.4122 87.4887 25.4122 88.4158C25.4122 89.3428 24.6883 89.9994 23.6977 89.9994C23.2406 89.9994 22.8215 89.8836 22.5167 89.7677C22.4786 89.5359 22.3262 88.7634 22.3262 88.6089H22.4405C22.5929 89.1496 22.9739 89.8063 23.8121 89.8063C24.4978 89.8063 24.7645 89.2655 24.7645 88.7248C24.7645 88.1067 24.3454 87.7205 23.7739 87.3728C23.1263 86.9866 22.4786 86.5617 22.4786 85.7119C22.4786 84.9007 23.1263 84.2827 24.0787 84.2827C24.574 84.2827 24.9169 84.3986 25.0693 84.3986C25.0693 84.7076 25.1455 85.0939 25.1836 85.5188H25.0693H25.1074Z" fill="#17243C"/><path d="M35.5846 85.5575C35.5084 85.3257 35.4703 85.1712 35.3941 85.0167C35.2417 84.7077 35.1274 84.5918 34.6702 84.5918H33.7177V88.918C33.7177 89.5747 33.7939 89.6519 34.4797 89.7678V89.8837H32.3081V89.7678C32.9939 89.6519 33.032 89.5747 33.032 88.918V84.5918H32.0414C31.5842 84.5918 31.508 84.7463 31.3937 84.9395C31.2794 85.1326 31.2413 85.3257 31.1651 85.5575H31.0508C31.0889 85.094 31.127 84.6305 31.1651 84.2056H31.2413C31.2413 84.2056 31.3937 84.3601 31.6985 84.3601H35.1274C35.356 84.3601 35.4322 84.3601 35.5465 84.2056H35.6608C35.6608 84.5532 35.6608 85.0554 35.737 85.5189H35.6227L35.5846 85.5575Z" fill="#17243C"/><path d="M41.4521 89.8453V89.7294C42.0998 89.6136 42.1379 89.5363 42.1379 88.8797V85.326C42.1379 84.5921 42.0617 84.5535 41.4521 84.4762V84.3604H43.5095V84.4762C42.8618 84.5535 42.7856 84.6307 42.7856 85.326V88.841C42.7856 89.4977 42.8237 89.5749 43.5095 89.6908V89.8067H41.4521V89.8453Z" fill="#17243C"/><path d="M52.1965 89.8449V89.7291C52.6537 89.6518 52.768 89.5746 52.6537 89.2269C52.5394 88.8793 52.3489 88.2999 52.1203 87.6432H50.5201C50.3296 88.1454 50.2153 88.5703 50.0629 88.9565C49.8724 89.5359 49.9867 89.5745 50.6344 89.7291V89.8449H48.9199V89.7291C49.3771 89.6518 49.5295 89.5746 49.8343 88.802L51.5488 84.2827H51.7012C52.1965 85.7892 52.7299 87.3342 53.3014 88.8793C53.5681 89.6132 53.6443 89.6518 54.1776 89.7677V89.8836H52.2727L52.1965 89.8449ZM51.3583 85.287C51.0916 85.9823 50.863 86.7162 50.5963 87.3728H52.0441L51.3202 85.287H51.3583Z" fill="#17243C"/><path d="M63.435 88.5316C63.3969 88.802 63.2064 89.5359 63.1302 89.8063H59.4727V89.6904C60.1965 89.5745 60.2346 89.5359 60.2346 88.8406V85.287C60.2346 84.5917 60.1584 84.5144 59.5107 84.4372V84.3213H61.53V84.4372C60.9204 84.553 60.8823 84.5917 60.8823 85.287V88.9565C60.8823 89.5359 60.9966 89.5745 61.4919 89.5745C61.6443 89.5745 61.911 89.5745 62.0253 89.5745C62.4825 89.5745 62.673 89.5745 62.9016 89.2655C63.054 89.0724 63.1683 88.802 63.2826 88.493H63.3969L63.435 88.5316Z" fill="#17243C"/><path d="M81.9522 84.4762C81.3807 84.5534 81.3045 84.7079 80.9616 85.4418C80.6949 86.0985 79.8186 88.3388 79.1709 89.9998H79.0185C78.447 88.4547 77.8374 86.7551 77.3421 85.3646C77.0754 84.6693 76.9992 84.5921 76.4277 84.5148V84.3989H78.4851V84.5148C77.9136 84.6307 77.8374 84.7466 77.9517 85.0556C78.1422 85.6736 79.0947 88.2229 79.3614 88.8796C79.7043 88.0298 80.352 86.3302 80.6949 85.2873C80.8854 84.7465 80.8854 84.6307 80.1234 84.5148V84.3989H81.9141V84.5148L81.9522 84.4762Z" fill="#17243C"/><path d="M43.3571 81.4635L42.4808 82.9313L41.6045 81.4635L42.4808 79.957L43.3571 81.4635Z" fill="#17243C"/></svg>