<svg width="233" height="18" viewBox="0 0 233 18" fill="none" xmlns="http://www.w3.org/2000/svg"><path d="M7.90133 15.3885C7.90133 15.649 7.8256 15.8384 7.64889 16.0041C7.47219 16.1461 7.24499 16.2172 6.96731 16.2172C6.68963 16.2172 6.48767 16.1461 6.31097 15.9804C6.13426 15.8147 6.05853 15.6253 6.05853 15.3648V10.63L5.7556 10.843C5.42743 11.0087 5.12451 11.1035 4.89731 11.1508C4.64487 11.1745 4.41768 11.1035 4.14 10.8904C4.01378 10.7957 3.83707 10.6536 3.60987 10.4642C3.38268 10.2748 3.18073 10.1801 3.00402 10.1801C2.92829 10.1801 2.82731 10.2275 2.70109 10.2986C2.57487 10.3696 2.44866 10.4879 2.32244 10.6537C2.19622 10.8194 2.09524 11.0324 1.99427 11.2928C1.89329 11.5533 1.86805 11.861 1.86805 12.2398C1.86805 12.5239 1.89329 12.8081 1.96902 13.1158C2.04476 13.4236 2.14573 13.7076 2.32244 13.9444C2.49914 14.1811 2.70109 14.3942 2.97878 14.5362C3.25646 14.6783 3.58463 14.7256 3.98853 14.6783C4.34195 14.6309 4.59439 14.6783 4.79634 14.7967C4.97305 14.9387 5.09926 15.1044 5.12451 15.2938C5.12451 15.4832 5.07402 15.6726 4.9478 15.862C4.82158 16.0514 4.59439 16.1461 4.29146 16.1698C4.21573 16.1698 4.14 16.1698 4.06426 16.1698H3.78658C3.15548 16.1698 2.60012 16.0751 2.12049 15.862C1.64085 15.6489 1.23695 15.3649 0.934025 15.0097C0.605855 14.6546 0.378658 14.2285 0.227195 13.755C0.075732 13.2815 0 12.7606 0 12.2398C0 11.6006 0.100978 11.0561 0.302929 10.5589C0.504879 10.0855 0.757317 9.68299 1.08549 9.37522C1.41366 9.04378 1.76707 8.80706 2.14573 8.66502C2.54963 8.4993 2.92829 8.42826 3.33219 8.42826C3.5089 8.42826 3.63512 8.45195 3.78658 8.52298C3.9128 8.594 4.01378 8.66499 4.08951 8.71234L4.92256 9.42254C4.92256 9.42254 4.97304 9.42254 5.02353 9.42254C5.32646 9.16213 5.60414 8.94911 5.80609 8.73604C6.00804 8.52297 6.36146 8.42826 6.81585 8.42826C7.11877 8.42826 7.37121 8.52292 7.59841 8.68864C7.8256 8.85436 7.92658 9.09113 7.92658 9.37522V15.3175L7.90133 15.3885Z" fill="black"/><path d="M7.77557 6.43945C7.77557 6.69987 7.69984 6.91294 7.52314 7.03131C7.34643 7.14968 7.11923 7.22067 6.84155 7.22067H2.3229C2.04521 7.22067 1.81802 7.14968 1.64131 7.03131C1.46461 6.91294 1.38888 6.69987 1.38888 6.43945C1.38888 6.17903 1.46461 5.98959 1.64131 5.87122C1.81802 5.75284 2.01997 5.68185 2.27241 5.68185H6.89204C7.14448 5.68185 7.37167 5.75284 7.52314 5.87122C7.6746 5.98959 7.77557 6.17903 7.77557 6.43945Z" fill="black"/><path d="M16.6356 15.3647C16.6356 15.6251 16.5599 15.8382 16.3832 15.9802C16.2065 16.1459 15.9793 16.217 15.7016 16.217C15.4239 16.217 15.1967 16.1459 15.0453 15.9802C14.8686 15.8145 14.7928 15.6251 14.7928 15.3647V11.8609C14.7928 11.6715 14.7928 11.4584 14.7423 11.2216C14.6918 10.9849 14.6161 10.7955 14.4899 10.6298C14.3637 10.4404 14.1617 10.2983 13.884 10.18C13.6064 10.0616 13.2782 9.99059 12.8238 9.99059C12.1422 9.99059 11.6121 10.18 11.2334 10.5824C10.8548 10.9849 10.6528 11.5294 10.6528 12.2633C10.6528 12.5474 10.7033 12.8315 10.7538 13.1393C10.8295 13.447 10.9558 13.7311 11.1072 13.9679C11.2839 14.2046 11.4859 14.4177 11.7636 14.5597C12.0412 14.7018 12.3694 14.7491 12.7733 14.7018C13.1267 14.6544 13.3792 14.7018 13.5811 14.8202C13.7578 14.9622 13.884 15.1279 13.9093 15.3173C13.9093 15.5067 13.8588 15.6961 13.7326 15.8855C13.6064 16.0749 13.3792 16.1696 13.0762 16.1933C13.0005 16.1933 12.9248 16.1933 12.849 16.1933H12.5714C11.9403 16.1933 11.3849 16.0986 10.9053 15.8855C10.4256 15.6724 10.0217 15.3884 9.7188 15.0332C9.39063 14.6781 9.16344 14.252 9.01197 13.7785C8.86051 13.305 8.78478 12.7841 8.78478 12.2633C8.78478 11.6478 8.88576 11.0796 9.11295 10.6061C9.34015 10.1326 9.61783 9.73012 9.97124 9.42235C10.3247 9.11459 10.7538 8.85417 11.2587 8.68845C11.7383 8.52273 12.2937 8.45177 12.849 8.45177C13.5811 8.45177 14.2122 8.5464 14.6918 8.75947C15.1715 8.94887 15.5754 9.2093 15.8531 9.51707C16.1307 9.82484 16.3327 10.1563 16.4589 10.5114C16.5851 10.8665 16.6356 11.2217 16.6356 11.5531V15.3647Z" fill="black"/><path d="M25.3955 15.3885C25.3955 15.649 25.3197 15.8384 25.143 16.0041C24.9663 16.1461 24.7391 16.2172 24.4615 16.2172C24.1838 16.2172 23.9818 16.1461 23.8051 15.9804C23.6284 15.8147 23.5527 15.6253 23.5527 15.3648V10.63L23.2497 10.843C22.9216 11.0087 22.6186 11.1035 22.3915 11.1508C22.139 11.1745 21.9118 11.1035 21.6341 10.8904C21.5079 10.7957 21.3312 10.6536 21.104 10.4642C20.8768 10.2748 20.6749 10.1801 20.4982 10.1801C20.4224 10.1801 20.3215 10.2275 20.1952 10.2986C20.069 10.3696 19.9428 10.4879 19.8166 10.6537C19.6904 10.8194 19.5894 11.0324 19.4884 11.2928C19.3874 11.5533 19.3622 11.861 19.3622 12.2398C19.3622 12.5239 19.3874 12.8081 19.4632 13.1158C19.5389 13.4236 19.6399 13.7076 19.8166 13.9444C19.9933 14.1811 20.1952 14.3942 20.4729 14.5362C20.7506 14.6783 21.0788 14.7256 21.4827 14.6783C21.8361 14.6309 22.0885 14.6783 22.2905 14.7967C22.4672 14.9387 22.5934 15.1044 22.6186 15.2938C22.6186 15.4832 22.5682 15.6726 22.4419 15.862C22.3157 16.0514 22.0885 16.1461 21.7856 16.1698C21.7099 16.1698 21.6341 16.1698 21.5584 16.1698H21.2807C20.6496 16.1698 20.0943 16.0751 19.6146 15.862C19.135 15.6489 18.7311 15.3649 18.4282 15.0097C18.1 14.6546 17.8728 14.2285 17.7213 13.755C17.5699 13.2815 17.4941 12.7606 17.4941 12.2398C17.4941 11.6006 17.5951 11.0561 17.7971 10.5589C17.999 10.0855 18.2515 9.68299 18.5796 9.37522C18.9078 9.04378 19.2612 8.80706 19.6399 8.66502C20.0438 8.4993 20.4224 8.42826 20.8263 8.42826C21.003 8.42826 21.1293 8.45195 21.2807 8.52298C21.4069 8.594 21.5079 8.66499 21.5837 8.71234L22.4167 9.42254C22.4167 9.42254 22.4672 9.42254 22.5177 9.42254C22.8206 9.16213 23.0983 8.94911 23.3002 8.73604C23.5022 8.52297 23.8556 8.42826 24.31 8.42826C24.6129 8.42826 24.8654 8.52292 25.0926 8.68864C25.3198 8.85436 25.4207 9.09113 25.4207 9.37522V15.3175L25.3955 15.3885Z" fill="black"/><path d="M31.7311 15.3647C31.7311 15.6014 31.6554 15.8145 31.4787 15.9802C31.302 16.1459 31.0748 16.217 30.7971 16.217C30.5194 16.217 30.2922 16.1223 30.1155 15.9802C29.9641 15.8145 29.8883 15.6251 29.8883 15.3647V10.9849C29.8883 10.5587 29.7621 10.2747 29.5349 10.1326C29.3077 9.99058 29.0048 9.91957 28.6261 9.91957C28.3737 9.91957 28.1718 9.99056 28.0203 10.1089C27.8436 10.2273 27.6921 10.3694 27.5407 10.4877C27.3892 10.6061 27.2377 10.7008 27.061 10.7482C26.8843 10.7955 26.7076 10.7481 26.4804 10.6298C26.2785 10.5114 26.1522 10.322 26.127 10.1089C26.1018 9.89586 26.1775 9.68282 26.3289 9.46975C26.6571 9.09096 27.0105 8.8305 27.4397 8.68845C27.8688 8.52273 28.2727 8.45177 28.7271 8.45177C29.0553 8.45177 29.3835 8.47539 29.7369 8.54641C30.0903 8.61744 30.4185 8.73582 30.7214 8.92521C31.0243 9.11461 31.2515 9.37504 31.4535 9.68281C31.6554 10.0143 31.7311 10.4404 31.7311 10.9612V15.3647Z" fill="black"/><path d="M39.6838 13.4944C39.6838 14.0152 39.5829 14.465 39.3809 14.7965C39.179 15.1516 38.9265 15.412 38.5983 15.6251C38.2702 15.8382 37.942 15.9802 37.5886 16.0512C37.2352 16.1459 36.8818 16.1696 36.5536 16.1696C36.2254 16.1696 35.9225 16.1459 35.5943 16.0749C35.2662 16.0039 34.9632 15.8381 34.6856 15.5777C34.6603 15.7671 34.5593 15.9328 34.3826 16.0275C34.2059 16.1222 34.0292 16.1696 33.802 16.1696C33.5243 16.1696 33.3224 16.0985 33.1457 15.9328C32.969 15.7671 32.8932 15.5777 32.8932 15.3173V9.30401C32.8932 9.06727 32.969 8.85417 33.1457 8.68845C33.3224 8.52273 33.5243 8.45177 33.802 8.45177C34.0797 8.45177 34.3069 8.52273 34.4836 8.68845C34.6603 8.85417 34.736 9.04359 34.736 9.30401V13.234C34.736 13.4944 34.7865 13.7075 34.8875 13.9205C34.9885 14.1336 35.1399 14.2756 35.2914 14.4177C35.4681 14.5361 35.6448 14.6307 35.8468 14.7018C36.0487 14.7728 36.2759 14.7965 36.4779 14.7965C36.8313 14.7965 37.1342 14.7018 37.3866 14.4887C37.6391 14.2756 37.7905 13.9442 37.7905 13.5181V9.35133C37.7905 9.11459 37.8663 8.90157 38.043 8.73585C38.2197 8.57013 38.4216 8.49909 38.6993 8.49909C38.977 8.49909 39.2042 8.57013 39.3809 8.73585C39.5576 8.90157 39.6333 9.09091 39.6333 9.35133V13.4944H39.6838Z" fill="black"/><path d="M47.08 13.8968C47.08 14.6544 46.8023 15.2463 46.2469 15.6251C45.6915 16.0276 44.9847 16.217 44.1517 16.217C43.7478 16.217 43.3943 16.1696 43.0409 16.0749C42.6875 15.9802 42.3846 15.8382 42.1322 15.6251C41.8797 15.412 41.6525 15.1753 41.5011 14.8675C41.3496 14.5597 41.2739 14.2046 41.2739 13.8021C41.2739 13.3997 41.3748 13.0682 41.5515 12.7604C41.7282 12.4527 41.9302 12.1923 42.1322 11.9082C42.3341 11.6241 42.5361 11.3873 42.7128 11.1506C42.8895 10.9139 42.9904 10.6534 42.9904 10.393C42.9904 10.3457 42.9652 10.251 42.9147 10.1563C42.8642 10.0616 42.738 10.0142 42.5613 10.0142C42.3846 10.0142 42.2836 10.0616 42.2331 10.1563C42.1826 10.251 42.1322 10.3457 42.0817 10.464C42.0312 10.5824 41.9555 10.6771 41.8545 10.7718C41.7535 10.8665 41.5768 10.9376 41.3496 10.9612C40.9457 11.0086 40.668 10.8902 40.5165 10.6535C40.3651 10.4167 40.3398 10.1326 40.4408 9.80114C40.5418 9.49338 40.769 9.18562 41.1224 8.9252C41.4758 8.66478 41.9554 8.52278 42.5613 8.52278C43.2934 8.52278 43.8487 8.71215 44.2274 9.09094C44.6061 9.46973 44.808 9.89584 44.808 10.393C44.808 10.8428 44.7323 11.2216 44.5556 11.5294C44.3789 11.8372 44.2022 12.0976 43.975 12.358C43.773 12.6184 43.5711 12.8552 43.4196 13.0919C43.2429 13.3287 43.1672 13.5891 43.1672 13.8968C43.1672 14.2046 43.2934 14.4414 43.5206 14.5834C43.773 14.7255 44.0002 14.7965 44.2274 14.7965C44.5051 14.7965 44.7575 14.7254 44.9847 14.607C45.2119 14.465 45.3129 14.2283 45.3129 13.8968V9.37502C45.3129 9.1146 45.3886 8.90156 45.5653 8.73584C45.742 8.59379 45.944 8.52278 46.2217 8.52278C46.4993 8.52278 46.7265 8.59379 46.9032 8.73584C47.08 8.87789 47.1557 9.09093 47.1557 9.37502V13.9205L47.08 13.8968Z" fill="black"/><path d="M46.9784 6.27375C46.9784 6.53417 46.9027 6.77088 46.7512 6.91293C46.5998 7.07865 46.3978 7.14974 46.1202 7.12606C45.8425 7.12606 45.6405 7.05503 45.4891 6.88931C45.3376 6.72359 45.2619 6.53419 45.2619 6.29745V4.52187C45.2619 4.23777 45.3376 4.02466 45.5143 3.88261C45.691 3.74056 45.893 3.66955 46.0949 3.66955C46.2969 3.66955 46.5241 3.74056 46.6755 3.88261C46.8522 4.02466 46.928 4.2614 46.928 4.54549V6.22643L46.9784 6.27375Z" fill="black"/><path d="M53.4409 15.3647C53.4409 15.6014 53.3652 15.8145 53.1884 15.9802C53.0117 16.1459 52.7845 16.217 52.5069 16.217C52.2292 16.217 52.002 16.1223 51.8253 15.9802C51.6738 15.8145 51.5981 15.6251 51.5981 15.3647V10.9849C51.5981 10.5587 51.4719 10.2747 51.2447 10.1326C51.0175 9.99058 50.7146 9.91957 50.3359 9.91957C50.0835 9.91957 49.8815 9.99056 49.73 10.1089C49.5533 10.2273 49.4019 10.3694 49.2504 10.4877C49.0989 10.6061 48.9475 10.7008 48.7708 10.7482C48.5941 10.7955 48.4174 10.7481 48.1902 10.6298C47.9882 10.5114 47.862 10.322 47.8367 10.1089C47.8115 9.89586 47.8872 9.68282 48.0387 9.46975C48.3669 9.09096 48.7203 8.8305 49.1494 8.68845C49.5786 8.52273 49.9825 8.45177 50.4369 8.45177C50.765 8.45177 51.0932 8.47539 51.4466 8.54641C51.8 8.61744 52.1282 8.73582 52.4311 8.92521C52.7341 9.11461 52.9613 9.37504 53.1632 9.68281C53.3652 10.0143 53.4409 10.4404 53.4409 10.9612V15.3647Z" fill="black"/><path d="M60.636 12.3583C60.636 12.9028 60.535 13.4 60.3583 13.8734C60.1816 14.3469 59.9039 14.7731 59.5757 15.1282C59.2223 15.4833 58.7932 15.7674 58.2883 15.9568C57.7834 16.1462 57.1775 16.2409 56.5212 16.1936C56.0921 16.1699 55.6882 16.0752 55.3095 15.9331C54.9561 15.7911 54.6784 15.6491 54.5269 15.5307C54.3502 15.436 54.2745 15.2939 54.2493 15.0809C54.2493 14.8915 54.2493 14.7021 54.3502 14.56C54.4512 14.418 54.5774 14.2996 54.7794 14.2286C54.9813 14.1576 55.2085 14.2286 55.461 14.3943C55.7134 14.5363 55.9406 14.6547 56.1678 14.7258C56.395 14.7968 56.6474 14.8205 56.9504 14.8205C57.2785 14.8205 57.5814 14.7258 57.8339 14.5837C58.0863 14.4417 58.2883 14.2523 58.465 14.0392C58.6417 13.8261 58.7679 13.5657 58.8436 13.2816C58.9194 12.9975 58.9699 12.6897 58.9699 12.382C58.9699 11.7664 58.7932 11.2219 58.465 10.7721C58.1368 10.2986 57.6067 10.0382 56.9251 9.99088C56.5969 9.96721 56.3193 9.9909 56.0668 10.0856C55.8396 10.1803 55.6124 10.2987 55.4357 10.4407C55.2338 10.6064 55.0066 10.6537 54.8046 10.6301C54.6027 10.6064 54.426 10.5117 54.2997 10.346C54.1735 10.2039 54.123 10.0382 54.123 9.84884C54.123 9.65945 54.224 9.47 54.426 9.28061C54.7036 9.04386 55.0823 8.85449 55.5619 8.71245C56.0416 8.5704 56.5969 8.52308 57.228 8.5941C57.8086 8.64145 58.3388 8.78348 58.7679 9.02023C59.1971 9.25697 59.5505 9.54105 59.8534 9.89617C60.1311 10.2513 60.3583 10.6301 60.4845 11.0799C60.6107 11.5297 60.6864 11.9795 60.6864 12.4293L60.636 12.3583Z" fill="black"/><path d="M68.6631 15.3412C68.6631 15.6016 68.5873 15.8147 68.4106 15.9568C68.2339 16.1225 68.0067 16.1935 67.729 16.1935C67.4513 16.1935 67.2241 16.1225 67.0727 15.9568C66.896 15.7911 66.8203 15.6016 66.8203 15.3412V12.7844C66.4668 12.9028 66.0882 12.9738 65.6843 12.9738C65.2804 12.9738 64.9017 12.9738 64.5483 12.9738C64.0687 12.9738 63.7405 13.0685 63.5386 13.2579C63.3366 13.4473 63.2356 13.6367 63.2356 13.8261C63.2356 14.0628 63.3618 14.2759 63.6395 14.4653C63.9172 14.6547 64.3463 14.702 65.0027 14.631C65.3309 14.5837 65.5833 14.631 65.7853 14.7257C65.9872 14.8204 66.0882 15.0098 66.1387 15.1992C66.1639 15.3886 66.1387 15.5543 66.0124 15.7437C65.8862 15.9331 65.6843 16.0278 65.3561 16.0988C64.725 16.2172 64.1444 16.2172 63.6648 16.1462C63.1851 16.0515 62.756 15.9095 62.4278 15.6964C62.0996 15.4833 61.8472 15.1992 61.6705 14.8915C61.4938 14.5837 61.4181 14.2286 61.4181 13.8498C61.4181 13.542 61.4686 13.2579 61.5948 12.9738C61.721 12.6897 61.8977 12.4293 62.1501 12.2163C62.4026 12.0032 62.7055 11.8138 63.0589 11.6954C63.4123 11.5534 63.8415 11.4824 64.3211 11.4824C64.6493 11.4824 64.9774 11.4824 65.3309 11.4824C65.6843 11.4824 66.0377 11.4586 66.3659 11.435C66.5678 11.435 66.694 11.3876 66.7445 11.3166C66.795 11.2456 66.8203 11.1745 66.8203 11.0562C66.8203 10.9851 66.795 10.8905 66.7445 10.7485C66.694 10.6301 66.5931 10.488 66.4416 10.3697C66.2901 10.2513 66.0882 10.1329 65.8357 10.0619C65.5833 9.99085 65.2551 9.91983 64.826 9.91983C64.3968 9.91983 64.0939 9.9672 63.892 10.0856C63.69 10.2039 63.4628 10.3223 63.2356 10.488C62.9832 10.6774 62.7307 10.7721 62.4783 10.7721C62.2259 10.7721 62.0239 10.6774 61.8725 10.5353C61.721 10.3933 61.6453 10.2039 61.6453 9.99085C61.6453 9.77778 61.7462 9.56467 61.9734 9.3516C62.3016 9.06751 62.6803 8.83081 63.1599 8.66509C63.6395 8.49937 64.1949 8.40464 64.826 8.40464C65.2299 8.40464 65.6085 8.45203 65.9367 8.52305C66.2649 8.59408 66.5678 8.68876 66.8203 8.80713V8.71242C66.8203 8.452 66.896 8.23891 67.0474 8.09686C67.1989 7.93114 67.4261 7.86017 67.729 7.86017C68.0067 7.86017 68.2087 7.95481 68.3854 8.09686C68.5621 8.26258 68.6378 8.452 68.6378 8.71242V15.3412H68.6631Z" fill="black"/><path d="M74.9998 15.3647C74.9998 15.6014 74.9241 15.8145 74.7474 15.9802C74.5707 16.1459 74.3435 16.217 74.0658 16.217C73.7881 16.217 73.5609 16.1223 73.3842 15.9802C73.2327 15.8145 73.157 15.6251 73.157 15.3647V10.9849C73.157 10.5587 73.0308 10.2747 72.8036 10.1326C72.5764 9.99058 72.2735 9.91957 71.8948 9.91957C71.6424 9.91957 71.4404 9.99056 71.289 10.1089C71.1122 10.2273 70.9608 10.3694 70.8093 10.4877C70.6578 10.6061 70.5064 10.7008 70.3297 10.7482C70.153 10.7955 69.9763 10.7481 69.7491 10.6298C69.5471 10.5114 69.4209 10.322 69.3957 10.1089C69.3704 9.89586 69.4461 9.68282 69.5976 9.46975C69.9258 9.09096 70.2792 8.8305 70.7083 8.68845C71.1375 8.52273 71.5414 8.45177 71.9958 8.45177C72.3239 8.45177 72.6521 8.47539 73.0055 8.54641C73.3589 8.61744 73.6871 8.73582 73.99 8.92521C74.293 9.11461 74.5202 9.37504 74.7221 9.68281C74.9241 10.0143 74.9998 10.4404 74.9998 10.9612V15.3647Z" fill="black"/><path d="M82.0927 13.9915C82.0927 14.3703 81.9918 14.7017 81.8151 14.9857C81.6131 15.2698 81.3859 15.5066 81.083 15.696C80.7801 15.8854 80.4519 16.0037 80.048 16.0984C79.6693 16.1931 79.2907 16.2169 78.912 16.2169C78.6848 16.2169 78.4324 16.2168 78.1799 16.1695C77.9023 16.1458 77.6498 16.0748 77.3974 16.0038C77.1197 15.9328 76.8925 15.8144 76.6401 15.696C76.4129 15.5776 76.2109 15.4119 76.0595 15.1988C75.8575 14.9621 75.7818 14.749 75.8323 14.5359C75.8828 14.3229 75.9837 14.1572 76.1604 14.0388C76.3371 13.9204 76.5391 13.8731 76.7915 13.9204C77.044 13.9441 77.2459 14.0861 77.4226 14.3229C77.5741 14.4412 77.8013 14.5596 78.079 14.6306C78.3566 14.7017 78.6343 14.749 78.8868 14.749C79.3664 14.749 79.6946 14.6543 79.9218 14.4886C80.149 14.3229 80.2499 14.1572 80.2499 13.9915C80.2499 13.6837 80.1237 13.4706 79.846 13.3522C79.5684 13.2338 79.3159 13.1155 79.0635 13.0445C78.6848 12.9498 78.3062 12.8551 77.9275 12.7367C77.5488 12.6183 77.1954 12.4999 76.9178 12.3342C76.6148 12.1685 76.3624 11.9318 76.1857 11.6713C75.9837 11.3872 75.908 11.0321 75.908 10.5586C75.908 10.1562 76.009 9.82475 76.2109 9.54066C76.4129 9.25657 76.6653 9.0435 76.943 8.87778C77.2459 8.71206 77.5741 8.5937 77.9275 8.52268C78.2809 8.45166 78.6343 8.40426 78.9373 8.40426C79.4169 8.40426 79.9218 8.47528 80.4014 8.61732C80.881 8.75937 81.3102 9.01983 81.6131 9.39862C81.7898 9.63536 81.8655 9.87213 81.8151 10.0852C81.7646 10.2983 81.6636 10.4639 81.4869 10.5586C81.3102 10.6533 81.1082 10.7007 80.881 10.6771C80.6538 10.6534 80.4266 10.5113 80.2499 10.2746C80.0985 10.1088 79.9218 10.0141 79.7451 9.94308C79.5684 9.87206 79.2907 9.84844 78.9373 9.84844C78.5838 9.84844 78.2809 9.91945 78.0537 10.0615C77.8265 10.2035 77.7256 10.3692 77.7256 10.5349C77.7256 10.677 77.7508 10.7954 77.8265 10.8901C77.9023 10.9848 78.0032 11.0795 78.1295 11.1268C78.2557 11.1978 78.3819 11.2452 78.5081 11.2689C78.6343 11.3163 78.7858 11.3399 78.912 11.3873L80.048 11.695C80.4266 11.7897 80.7801 11.9318 81.083 12.1212C81.3859 12.3106 81.6384 12.5236 81.8151 12.8077C81.9918 13.0918 82.0927 13.447 82.0927 13.9204V13.9915Z" fill="black"/><path d="M85.4248 15.2937C85.4248 15.5304 85.3491 15.7434 85.1976 15.9328C85.0462 16.1222 84.819 16.217 84.516 16.217C84.2384 16.217 84.0112 16.146 83.8345 16.0039C83.6578 15.8619 83.582 15.6251 83.582 15.2937V7.88356C83.582 7.88356 83.6578 7.7415 83.7335 7.57578C83.8092 7.41006 83.9102 7.24434 84.0112 7.05494C84.1121 6.86555 84.2131 6.6762 84.3393 6.51048C84.4656 6.34476 84.5161 6.17903 84.5918 6.06066C84.2889 6.36843 83.9859 6.5105 83.683 6.53418C83.3801 6.55785 83.0771 6.46309 82.8247 6.25002L81.7645 5.37408C81.512 5.11366 81.3858 4.8769 81.4111 4.6875C81.4363 4.49811 81.512 4.33241 81.6635 4.19036C81.815 4.02464 82.0169 3.95363 82.2693 3.90628C82.5218 3.88261 82.7742 3.95367 83.0267 4.16674L83.8345 4.85324L84.1626 4.61648L84.5918 4.28508C84.9452 4.02466 85.2986 3.88258 85.6268 3.88258C85.955 3.88258 86.2326 4.00099 86.4598 4.21406C86.7123 4.42713 86.7628 4.73491 86.6618 5.1137L85.4248 7.81254V15.2463V15.2937Z" fill="black"/><path d="M94.5635 15.3647C94.5635 15.6251 94.4877 15.8382 94.311 15.9802C94.1343 16.1459 93.9071 16.217 93.6295 16.217C93.3518 16.217 93.1246 16.1459 92.9731 15.9802C92.7964 15.8145 92.7207 15.6251 92.7207 15.3647V11.8609C92.7207 11.6715 92.7207 11.4584 92.6702 11.2216C92.6197 10.9849 92.544 10.7955 92.4178 10.6298C92.2915 10.4404 92.0896 10.2983 91.8119 10.18C91.5342 10.0616 91.206 9.99059 90.7517 9.99059C90.0701 9.99059 89.5399 10.18 89.1613 10.5824C88.7826 10.9849 88.5807 11.5294 88.5807 12.2633C88.5807 12.5474 88.6312 12.8315 88.6817 13.1393C88.7574 13.447 88.8836 13.7311 89.0351 13.9679C89.2118 14.2046 89.4137 14.4177 89.6914 14.5597C89.9691 14.7018 90.2973 14.7491 90.7012 14.7018C91.0546 14.6544 91.307 14.7018 91.509 14.8202C91.6857 14.9622 91.8119 15.1279 91.8371 15.3173C91.8371 15.5067 91.7866 15.6961 91.6604 15.8855C91.5342 16.0749 91.307 16.1696 91.0041 16.1933C90.9284 16.1933 90.8526 16.1933 90.7769 16.1933H90.4992C89.8681 16.1933 89.3128 16.0986 88.8331 15.8855C88.3535 15.6724 87.9496 15.3884 87.6467 15.0332C87.3185 14.6781 87.0913 14.252 86.9398 13.7785C86.7884 13.305 86.7126 12.7841 86.7126 12.2633C86.7126 11.6478 86.8136 11.0796 87.0408 10.6061C87.268 10.1326 87.5457 9.73012 87.8991 9.42235C88.2525 9.11459 88.6817 8.85417 89.1865 8.68845C89.6662 8.52273 90.2215 8.45177 90.7769 8.45177C91.509 8.45177 92.1401 8.5464 92.6197 8.75947C93.0993 8.94887 93.5032 9.2093 93.7809 9.51707C94.0586 9.82484 94.2606 10.1563 94.3868 10.5114C94.513 10.8665 94.5635 11.2217 94.5635 11.5531V15.3647Z" fill="black"/><path d="M95.3456 5.27965C94.9417 5.91886 94.4369 6.39241 93.7805 6.67651C93.1242 6.9606 92.4426 7.12633 91.7358 7.12633C91.4076 7.12633 91.1804 7.03159 91.0542 6.86587C90.928 6.70015 90.8522 6.48708 90.8522 6.27401V5.54011H90.2716C90.0192 5.54011 89.792 5.46912 89.6153 5.35075C89.4386 5.23237 89.3376 5.0193 89.3376 4.75889C89.3376 4.52214 89.4386 4.3327 89.6153 4.19065C89.792 4.0486 90.0192 3.97759 90.2716 3.97759H91.6095C91.862 3.97759 92.0639 4.0486 92.2406 4.19065C92.3921 4.3327 92.4678 4.54579 92.4678 4.80621V5.56381C92.8465 5.54013 93.1494 5.4217 93.4019 5.20863C93.6543 4.99556 93.8562 4.75883 94.033 4.47473C94.1844 4.26166 94.3611 4.14331 94.5883 4.11963C94.8155 4.09596 94.9922 4.11965 95.1689 4.21435C95.3456 4.30905 95.4466 4.47477 95.4971 4.66417C95.5476 4.85356 95.4971 5.06661 95.3709 5.30335L95.3456 5.27965Z" fill="black"/><path d="M102.516 15.3648C102.516 15.6253 102.44 15.8383 102.289 15.9804C102.137 16.1461 101.91 16.2171 101.607 16.2171C101.304 16.2171 101.102 16.1461 100.925 15.9804C100.749 15.8147 100.673 15.6253 100.673 15.3648V10.8904C100.673 10.559 100.597 10.3459 100.42 10.2038C100.244 10.0855 100.017 10.0144 99.7389 10.0144C99.4612 10.0144 99.2087 10.0618 98.9563 10.1801C98.7039 10.2985 98.4767 10.4406 98.2747 10.63C98.0728 10.8193 97.9213 11.0324 97.7951 11.2455C97.6689 11.4823 97.6184 11.6953 97.6184 11.9321V15.3648C97.6184 15.6253 97.5427 15.8383 97.3659 15.9804C97.1892 16.1461 96.9873 16.2171 96.7096 16.2171C96.4319 16.2171 96.2047 16.1461 96.028 15.9804C95.8513 15.8147 95.7756 15.6253 95.7756 15.3648V9.35151C95.7756 9.0911 95.8513 8.87805 96.028 8.71233C96.2047 8.57029 96.4319 8.49927 96.7096 8.49927C96.962 8.49927 97.1892 8.57031 97.3407 8.73603C97.5174 8.90175 97.5932 9.0911 97.5932 9.35151C97.8456 9.06742 98.1738 8.85438 98.6281 8.71233C99.0825 8.57029 99.4612 8.49927 99.7894 8.49927C100.118 8.49927 100.446 8.52297 100.774 8.59399C101.102 8.66501 101.38 8.78339 101.657 8.97279C101.935 9.16218 102.112 9.42255 102.289 9.73031C102.44 10.0618 102.516 10.4879 102.516 10.9851V15.3411V15.3648Z" fill="black"/><path d="M102.516 6.41573C102.516 6.96024 102.187 7.22065 101.556 7.22065H97.063C96.7853 7.22065 96.5329 7.14966 96.3561 7.03129C96.1794 6.91292 96.1037 6.69985 96.1037 6.43943C96.1037 6.17901 96.2047 5.98957 96.3814 5.8712C96.5581 5.75282 96.7601 5.68183 97.0125 5.68183H100.824V4.94793C100.824 4.71119 100.9 4.49812 101.026 4.35607C101.152 4.19035 101.38 4.11929 101.632 4.09562C101.91 4.09562 102.137 4.16665 102.288 4.33237C102.44 4.49809 102.516 4.71121 102.516 4.97163V6.39203V6.41573Z" fill="black"/><path d="M102.49 2.6042C102.49 2.86462 102.414 3.07766 102.262 3.24338C102.111 3.4091 101.909 3.50381 101.606 3.48014C101.328 3.48014 101.126 3.38543 101 3.24338C100.874 3.10134 100.798 2.88827 100.798 2.65152V0.852244C100.798 0.6155 100.874 0.402479 101 0.236758C101.126 0.0710376 101.328 0 101.631 0C101.909 0 102.111 0.0947121 102.262 0.236758C102.414 0.402479 102.49 0.615523 102.49 0.875941V2.6042Z" fill="black"/><path d="M116.349 15.4593C116.349 15.6961 116.248 15.8618 116.071 16.0039C115.869 16.1223 115.693 16.1932 115.465 16.1932C115.314 16.1932 115.162 16.1696 115.036 16.0985C114.91 16.0512 114.758 15.9091 114.582 15.7197L111.754 12.0975L108.927 15.7197C108.776 15.9091 108.624 16.0512 108.498 16.0985C108.372 16.1459 108.22 16.1932 108.044 16.1932C107.842 16.1932 107.64 16.1223 107.463 16.0039C107.286 15.8855 107.185 15.6961 107.185 15.4593C107.185 15.3173 107.211 15.1989 107.286 15.0805C107.362 14.9622 107.413 14.8911 107.438 14.8438L110.694 10.7482L108.018 7.38636C107.842 7.17329 107.741 6.96025 107.741 6.74718C107.741 6.51044 107.842 6.34471 108.018 6.22634C108.195 6.10797 108.397 6.03691 108.599 6.03691C108.776 6.03691 108.927 6.0606 109.053 6.13162C109.205 6.17897 109.356 6.32103 109.508 6.51042L111.78 9.49342L114.077 6.51042C114.228 6.32103 114.38 6.17897 114.531 6.13162C114.683 6.08428 114.834 6.03691 114.986 6.03691C115.188 6.03691 115.39 6.10797 115.566 6.22634C115.743 6.34471 115.819 6.53411 115.819 6.74718C115.819 6.93658 115.743 7.14962 115.566 7.38636L112.89 10.7482L116.122 14.8438C116.122 14.8438 116.248 14.9858 116.298 15.0805C116.349 15.1752 116.399 15.3173 116.399 15.4593H116.349Z" fill="black"/><path d="M119.732 16.1931C119.883 16.4772 119.933 16.7376 119.883 16.9744C119.832 17.2111 119.681 17.3532 119.454 17.4242C119.252 17.4952 119.025 17.4716 118.797 17.3769C118.57 17.2822 118.419 17.1165 118.293 16.8797C118.192 16.6903 118.065 16.4062 117.914 16.0984C117.762 15.767 117.611 15.3882 117.485 14.9384C117.359 14.4886 117.232 13.9914 117.131 13.4469C117.03 12.9024 116.98 12.2868 116.98 11.6476C116.98 11.0084 117.03 10.4166 117.131 9.84842C117.232 9.3039 117.359 8.78306 117.485 8.35692C117.611 7.9071 117.762 7.52834 117.914 7.19689C118.065 6.88913 118.192 6.62867 118.293 6.4156C118.419 6.15518 118.621 5.98946 118.848 5.89476C119.075 5.80006 119.277 5.80004 119.479 5.87106C119.681 5.94208 119.807 6.06049 119.883 6.27356C119.959 6.48663 119.908 6.74704 119.757 7.07848C119.656 7.26787 119.555 7.52831 119.429 7.83608C119.302 8.14384 119.201 8.49897 119.1 8.87776C118.999 9.25655 118.924 9.70638 118.848 10.1562C118.772 10.6297 118.747 11.1032 118.747 11.624C118.747 12.1448 118.772 12.6183 118.848 13.0918C118.924 13.5653 118.999 13.9914 119.1 14.3702C119.201 14.749 119.302 15.1041 119.429 15.4119C119.555 15.7197 119.656 15.9564 119.757 16.1458L119.732 16.1931Z" fill="black"/><path d="M124.452 9.20953C124.452 9.44627 124.376 9.6357 124.199 9.75407C124.023 9.87244 123.796 9.94343 123.518 9.94343H123.215V15.3886C123.215 15.6253 123.139 15.8384 122.988 15.9804C122.836 16.1462 122.609 16.2172 122.306 16.2172C122.003 16.2172 121.801 16.1462 121.625 15.9804C121.473 15.8147 121.397 15.6253 121.397 15.3886V9.94343H121.12C120.842 9.94343 120.615 9.87244 120.438 9.75407C120.261 9.6357 120.186 9.44627 120.186 9.20953C120.186 8.97279 120.261 8.80711 120.438 8.66506C120.615 8.54669 120.817 8.47563 121.094 8.47563H121.397V7.17357C121.397 6.93682 121.473 6.72375 121.625 6.58171C121.776 6.41598 122.003 6.34495 122.306 6.34495C122.609 6.34495 122.811 6.41598 122.988 6.58171C123.139 6.74743 123.215 6.93682 123.215 7.17357V8.47563H123.518C123.796 8.47563 124.023 8.54669 124.199 8.66506C124.376 8.78344 124.452 8.97279 124.452 9.20953Z" fill="black"/><path d="M136.115 9.28019C136.115 9.28019 136.064 9.56428 136.014 9.80103L133.818 15.4355C133.641 15.9564 133.313 16.1931 132.808 16.1931C132.303 16.1931 132.025 15.9327 131.823 15.4355L130.334 11.2925L128.845 15.4355C128.668 15.9564 128.34 16.1931 127.86 16.1931C127.38 16.1931 127.052 15.9327 126.85 15.4355L124.654 9.80103C124.578 9.56428 124.553 9.37488 124.553 9.28019C124.553 9.11446 124.629 8.97246 124.78 8.80674C124.932 8.64102 125.159 8.56998 125.462 8.56998C125.664 8.56998 125.866 8.61733 126.043 8.71202C126.219 8.80672 126.345 9.01979 126.446 9.30388L127.911 13.4706L129.349 9.46962C129.45 9.23288 129.551 9.01976 129.678 8.83037C129.804 8.64097 130.031 8.54628 130.384 8.54628C130.738 8.54628 130.965 8.64097 131.091 8.83037C131.217 9.01976 131.318 9.23288 131.419 9.46962L132.858 13.4706L134.322 9.30388C134.423 8.99612 134.575 8.80672 134.726 8.71202C134.878 8.61733 135.08 8.56998 135.307 8.56998C135.61 8.56998 135.837 8.66469 135.989 8.80674C136.14 8.97246 136.216 9.13814 136.216 9.28019H136.115Z" fill="black"/><path d="M138.942 6.91286C138.942 7.17328 138.841 7.41002 138.639 7.57574C138.437 7.74146 138.185 7.83619 137.882 7.83619C137.579 7.83619 137.327 7.74146 137.125 7.57574C136.923 7.41002 136.822 7.17328 136.822 6.91286C136.822 6.65244 136.923 6.43937 137.125 6.24998C137.327 6.06058 137.579 5.9659 137.882 5.9659C138.185 5.9659 138.437 6.06058 138.639 6.24998C138.841 6.43937 138.942 6.65244 138.942 6.91286ZM138.816 15.3646C138.816 15.6251 138.74 15.8381 138.564 15.9802C138.387 16.1459 138.185 16.217 137.907 16.217C137.63 16.217 137.402 16.1459 137.226 15.9802C137.074 15.8145 136.999 15.6251 136.999 15.3646V9.42234C136.999 9.18559 137.074 8.97257 137.226 8.80685C137.377 8.64113 137.604 8.57009 137.907 8.57009C138.185 8.57009 138.387 8.66481 138.564 8.80685C138.74 8.97257 138.816 9.18559 138.816 9.42234V15.3646Z" fill="black"/><path d="M143.89 9.20953C143.89 9.44627 143.815 9.6357 143.638 9.75407C143.461 9.87244 143.234 9.94343 142.956 9.94343H142.653V15.3886C142.653 15.6253 142.578 15.8384 142.426 15.9804C142.275 16.1462 142.048 16.2172 141.745 16.2172C141.442 16.2172 141.24 16.1462 141.063 15.9804C140.912 15.8147 140.836 15.6253 140.836 15.3886V9.94343H140.558C140.28 9.94343 140.053 9.87244 139.877 9.75407C139.7 9.6357 139.624 9.44627 139.624 9.20953C139.624 8.97279 139.7 8.80711 139.877 8.66506C140.053 8.54669 140.255 8.47563 140.533 8.47563H140.836V7.17357C140.836 6.93682 140.912 6.72375 141.063 6.58171C141.214 6.41598 141.442 6.34495 141.745 6.34495C142.048 6.34495 142.249 6.41598 142.426 6.58171C142.578 6.74743 142.653 6.93682 142.653 7.17357V8.47563H142.956C143.234 8.47563 143.461 8.54669 143.638 8.66506C143.815 8.78344 143.89 8.97279 143.89 9.20953Z" fill="black"/><path d="M148.005 9.20953C148.005 9.44627 147.929 9.6357 147.753 9.75407C147.576 9.87244 147.349 9.94343 147.071 9.94343H146.768V15.3886C146.768 15.6253 146.692 15.8384 146.541 15.9804C146.389 16.1462 146.162 16.2172 145.859 16.2172C145.556 16.2172 145.354 16.1462 145.178 15.9804C145.026 15.8147 144.95 15.6253 144.95 15.3886V9.94343H144.673C144.395 9.94343 144.168 9.87244 143.991 9.75407C143.815 9.6357 143.739 9.44627 143.739 9.20953C143.739 8.97279 143.815 8.80711 143.991 8.66506C144.168 8.54669 144.37 8.47563 144.648 8.47563H144.95V7.17357C144.95 6.93682 145.026 6.72375 145.178 6.58171C145.329 6.41598 145.556 6.34495 145.859 6.34495C146.162 6.34495 146.364 6.41598 146.541 6.58171C146.692 6.74743 146.768 6.93682 146.768 7.17357V8.47563H147.071C147.349 8.47563 147.576 8.54669 147.753 8.66506C147.929 8.78344 148.005 8.97279 148.005 9.20953Z" fill="black"/><path d="M155.528 12.216C155.528 12.7368 155.2 12.9972 154.543 12.9972H149.848C149.898 13.518 150.125 13.9205 150.479 14.2519C150.832 14.5834 151.337 14.7491 151.968 14.7491C152.221 14.7491 152.448 14.7491 152.65 14.7018C152.852 14.6544 153.003 14.6307 153.18 14.5597C153.331 14.4887 153.483 14.4177 153.634 14.323C153.786 14.2283 153.937 14.1099 154.089 13.9915C154.366 13.8022 154.594 13.7074 154.796 13.7311C154.998 13.7548 155.149 13.8258 155.25 13.9679C155.351 14.1099 155.401 14.2756 155.376 14.4887C155.351 14.7018 155.3 14.8675 155.149 15.0332C154.871 15.3173 154.467 15.5777 153.887 15.8382C153.331 16.0986 152.7 16.2169 151.994 16.2169C151.287 16.2169 150.731 16.0985 150.226 15.8855C149.722 15.6724 149.318 15.3646 149.015 15.0095C148.712 14.6544 148.459 14.2283 148.308 13.7548C148.156 13.2813 148.081 12.8078 148.081 12.3106C148.081 11.1979 148.409 10.2983 149.065 9.61177C149.722 8.92521 150.656 8.59379 151.893 8.59379C152.524 8.59379 153.054 8.6885 153.508 8.90157C153.963 9.09096 154.341 9.37505 154.644 9.70649C154.947 10.0379 155.174 10.4404 155.301 10.8665C155.427 11.3163 155.502 11.7661 155.477 12.2396L155.528 12.216ZM153.811 11.7662C153.811 11.5531 153.735 11.34 153.66 11.1269C153.584 10.9138 153.458 10.7245 153.306 10.5587C153.155 10.393 152.953 10.251 152.726 10.1563C152.498 10.0616 152.221 9.99057 151.943 9.99057C151.312 9.99057 150.807 10.1799 150.479 10.535C150.125 10.8902 149.924 11.3163 149.873 11.7898H153.836L153.811 11.7662Z" fill="black"/><path d="M160.904 9.3749C160.904 9.61165 160.803 9.80102 160.601 9.94307C160.399 10.0851 160.147 10.1799 159.844 10.2272C159.667 10.2509 159.491 10.3219 159.314 10.4166C159.137 10.5113 158.96 10.6533 158.834 10.7954C158.683 10.9611 158.556 11.1268 158.481 11.3399C158.38 11.553 158.329 11.7661 158.329 12.0028V15.3408C158.329 15.5776 158.254 15.7907 158.077 15.9564C157.9 16.1221 157.673 16.1931 157.395 16.1931C157.118 16.1931 156.916 16.0984 156.739 15.9564C156.562 15.7907 156.486 15.6012 156.486 15.3408V9.3749C156.486 9.13816 156.562 8.92509 156.739 8.78304C156.916 8.61732 157.118 8.54628 157.395 8.54628C157.648 8.54628 157.85 8.61735 158.026 8.73572C158.178 8.85409 158.279 9.01979 158.304 9.23286C158.506 9.04347 158.758 8.87777 159.036 8.73572C159.314 8.61735 159.591 8.54628 159.894 8.54628C160.197 8.54628 160.45 8.6173 160.626 8.75935C160.803 8.90139 160.904 9.11446 160.904 9.35121V9.3749Z" fill="black"/><path d="M164.161 11.6479C164.161 12.2872 164.11 12.879 164.009 13.4472C163.908 13.9917 163.782 14.5126 163.656 14.9387C163.529 15.3885 163.378 15.7673 163.227 16.0987C163.075 16.4302 162.949 16.6906 162.848 16.8563C162.722 17.1168 162.52 17.2825 162.293 17.3772C162.065 17.4719 161.863 17.4719 161.661 17.4009C161.459 17.3299 161.333 17.1878 161.258 16.9747C161.182 16.7616 161.232 16.5012 161.384 16.1698C161.485 15.9804 161.586 15.7437 161.712 15.4122C161.838 15.0808 161.939 14.7493 162.04 14.3469C162.141 13.9444 162.242 13.5419 162.293 13.0684C162.368 12.5949 162.394 12.1215 162.394 11.6006C162.394 11.0798 162.368 10.6063 162.293 10.1328C162.217 9.65933 162.141 9.23317 162.04 8.85438C161.939 8.47559 161.838 8.12047 161.712 7.8127C161.586 7.50493 161.485 7.2682 161.384 7.0788C161.207 6.74736 161.182 6.48695 161.258 6.27388C161.333 6.06081 161.459 5.91878 161.661 5.84776C161.838 5.77673 162.065 5.77673 162.293 5.84776C162.52 5.94245 162.696 6.10818 162.848 6.3686C162.949 6.55799 163.075 6.81838 163.227 7.14982C163.378 7.48126 163.529 7.8601 163.656 8.30992C163.782 8.75973 163.908 9.25683 164.009 9.80134C164.11 10.3459 164.161 10.9614 164.161 11.6243V11.6479Z" fill="black"/><path d="M171.507 10.8665C171.507 11.1269 171.406 11.3399 171.204 11.5293C171.002 11.7187 170.749 11.8134 170.446 11.8134C170.144 11.8134 169.916 11.7187 169.714 11.5293C169.512 11.3399 169.411 11.1269 169.411 10.8665C169.411 10.606 169.512 10.393 169.714 10.2036C169.916 10.0142 170.169 9.91949 170.446 9.91949C170.724 9.91949 171.002 10.0142 171.204 10.2036C171.406 10.393 171.507 10.606 171.507 10.8665ZM171.507 15.3646C171.507 15.625 171.406 15.8381 171.204 16.0275C171.002 16.2168 170.749 16.3115 170.446 16.3115C170.144 16.3115 169.916 16.2168 169.714 16.0275C169.512 15.8381 169.411 15.625 169.411 15.3646C169.411 15.1042 169.512 14.8674 169.714 14.7017C169.916 14.536 170.169 14.4413 170.446 14.4413C170.724 14.4413 171.002 14.536 171.204 14.7017C171.406 14.8674 171.507 15.1042 171.507 15.3646Z" fill="black"/><path d="M184.735 14.2049C184.482 14.2049 184.23 14.1575 183.978 14.0628C183.725 13.9681 183.548 13.8261 183.422 13.613C183.145 13.8498 182.842 13.9918 182.564 14.0628C182.286 14.1339 181.983 14.1812 181.68 14.1812C181.327 14.1812 180.999 14.1102 180.696 13.9918C180.393 13.8498 180.141 13.684 179.913 13.4473C179.711 13.2342 179.535 12.9738 179.408 12.6897C179.282 12.4056 179.232 12.0978 179.232 11.79C179.232 11.3165 179.307 10.8668 179.459 10.417C179.61 9.96714 179.838 9.58837 180.14 9.25693C180.443 8.92549 180.797 8.66508 181.201 8.45201C181.605 8.23894 182.084 8.14423 182.614 8.14423C182.917 8.14423 183.22 8.19157 183.523 8.28627C183.826 8.38097 184.079 8.54667 184.306 8.78341C184.356 8.54667 184.482 8.40466 184.659 8.30997C184.836 8.21527 185.013 8.19157 185.215 8.21525C185.391 8.23892 185.543 8.30994 185.669 8.42831C185.795 8.54668 185.82 8.71241 185.745 8.87813L184.684 12.4766C184.634 12.7134 184.684 12.8081 184.861 12.8081C185.038 12.8081 185.24 12.7607 185.467 12.6424C185.694 12.5477 185.896 12.3819 186.098 12.1688C186.3 11.9558 186.477 11.6954 186.603 11.3876C186.729 11.0798 186.83 10.7247 186.83 10.3222C186.83 9.8014 186.754 9.32797 186.527 8.90183C186.3 8.47569 185.997 8.09689 185.618 7.78913C185.24 7.48136 184.811 7.24455 184.306 7.05515C183.801 6.88943 183.271 6.79477 182.715 6.79477C182.084 6.79477 181.478 6.91318 180.923 7.12625C180.368 7.33932 179.888 7.64702 179.484 8.02581C179.08 8.4046 178.752 8.85444 178.525 9.37527C178.298 9.89611 178.171 10.4406 178.171 11.0561C178.171 11.6717 178.298 12.1925 178.525 12.6897C178.752 13.2105 179.08 13.6366 179.509 14.0154C179.913 14.3942 180.418 14.702 180.974 14.9151C181.529 15.1281 182.16 15.2466 182.842 15.2466C183.195 15.2466 183.498 15.2465 183.75 15.1992C184.003 15.1518 184.28 15.1045 184.533 15.0571C184.785 14.9861 185.038 14.9151 185.265 14.8204C185.517 14.7257 185.77 14.6073 186.073 14.489C186.401 14.3469 186.653 14.2996 186.881 14.3469C187.108 14.3943 187.259 14.489 187.335 14.6547C187.411 14.7967 187.411 14.9861 187.335 15.1755C187.234 15.3886 187.057 15.5543 186.78 15.72C186.376 15.9567 185.846 16.1462 185.189 16.3593C184.533 16.5486 183.725 16.6433 182.741 16.6433C181.832 16.6433 180.999 16.5013 180.241 16.2408C179.484 15.9804 178.828 15.578 178.298 15.1045C177.742 14.6073 177.338 14.0391 177.035 13.3526C176.733 12.666 176.581 11.9085 176.581 11.1035C176.581 10.3223 176.733 9.58839 177.035 8.90183C177.338 8.21527 177.768 7.62339 178.323 7.10255C178.878 6.58171 179.535 6.17922 180.292 5.89513C181.049 5.58736 181.882 5.44531 182.791 5.44531C183.649 5.44531 184.407 5.58739 185.114 5.84781C185.82 6.10823 186.401 6.487 186.906 6.93681C187.385 7.38662 187.764 7.88377 188.042 8.47563C188.32 9.06749 188.42 9.63573 188.42 10.2276C188.395 10.9852 188.244 11.6244 187.966 12.1452C187.688 12.666 187.385 13.0685 187.007 13.3526C186.628 13.6603 186.25 13.8734 185.82 13.9918C185.391 14.1102 185.038 14.1812 184.684 14.1812L184.735 14.2049ZM183.877 10.2986C183.776 10.0619 183.649 9.89612 183.447 9.75407C183.271 9.61202 183.018 9.54101 182.715 9.54101C182.438 9.54101 182.16 9.61202 181.933 9.75407C181.706 9.89612 181.504 10.0618 181.352 10.2749C181.201 10.488 181.075 10.7247 180.999 10.9851C180.923 11.2455 180.873 11.506 180.873 11.7664C180.873 12.0979 180.974 12.3583 181.176 12.5713C181.377 12.7844 181.605 12.8791 181.832 12.8791C182.185 12.8791 182.488 12.8081 182.741 12.666C182.993 12.524 183.17 12.3819 183.296 12.2399L183.851 10.2986H183.877Z" fill="black"/><path d="M191.373 15.3647C191.373 15.6015 191.298 15.8146 191.121 15.9803C190.944 16.146 190.717 16.217 190.439 16.217C190.162 16.217 189.934 16.1223 189.783 15.9803C189.606 15.8146 189.531 15.6251 189.531 15.3647V6.0844C189.531 5.84766 189.606 5.63459 189.783 5.49254C189.96 5.32682 190.162 5.25579 190.439 5.25579C190.717 5.25579 190.944 5.32682 191.121 5.49254C191.298 5.65827 191.373 5.84766 191.373 6.0844V15.3647Z" fill="black"/><path d="M199.704 12.216C199.704 12.7368 199.376 12.9972 198.72 12.9972H194.024C194.075 13.518 194.302 13.9205 194.656 14.2519C195.009 14.5834 195.514 14.7491 196.145 14.7491C196.397 14.7491 196.625 14.7491 196.827 14.7018C197.028 14.6544 197.18 14.6307 197.357 14.5597C197.508 14.4887 197.66 14.4177 197.811 14.323C197.962 14.2283 198.114 14.1099 198.265 13.9915C198.543 13.8022 198.77 13.7074 198.972 13.7311C199.174 13.7548 199.326 13.8258 199.427 13.9679C199.528 14.1099 199.578 14.2756 199.553 14.4887C199.528 14.7018 199.477 14.8675 199.326 15.0332C199.048 15.3173 198.644 15.5777 198.063 15.8382C197.508 16.0986 196.877 16.2169 196.17 16.2169C195.463 16.2169 194.908 16.0985 194.403 15.8855C193.898 15.6724 193.494 15.3646 193.191 15.0095C192.888 14.6544 192.636 14.2283 192.485 13.7548C192.333 13.2813 192.257 12.8078 192.257 12.3106C192.257 11.1979 192.586 10.2983 193.242 9.61177C193.898 8.92521 194.832 8.59379 196.069 8.59379C196.7 8.59379 197.23 8.6885 197.685 8.90157C198.139 9.09096 198.518 9.37505 198.821 9.70649C199.124 10.0379 199.351 10.4404 199.477 10.8665C199.603 11.3163 199.679 11.7661 199.654 12.2396L199.704 12.216ZM197.962 11.7662C197.962 11.5531 197.887 11.34 197.811 11.1269C197.735 10.9138 197.609 10.7245 197.458 10.5587C197.306 10.393 197.104 10.251 196.877 10.1563C196.65 10.0616 196.372 9.99057 196.094 9.99057C195.463 9.99057 194.958 10.1799 194.63 10.535C194.277 10.8902 194.075 11.3163 194.024 11.7898H197.988L197.962 11.7662Z" fill="black"/><path d="M206.444 13.9205C206.444 14.323 206.343 14.6781 206.167 14.9858C205.99 15.2699 205.737 15.5067 205.435 15.6961C205.132 15.8855 204.803 16.0275 204.425 16.0985C204.046 16.1932 203.667 16.217 203.289 16.217C202.885 16.217 202.481 16.1696 202.077 16.0985C201.673 16.0038 201.345 15.8855 201.042 15.7434C200.739 15.6014 200.487 15.4357 200.31 15.2463C200.133 15.0569 200.032 14.8675 200.032 14.6544C200.032 14.4177 200.133 14.2519 200.31 14.1099C200.487 13.9915 200.689 13.9205 200.891 13.9205C201.093 13.9205 201.244 13.9679 201.396 14.0626C201.522 14.1573 201.673 14.252 201.85 14.3704C202.001 14.4887 202.203 14.5834 202.431 14.6544C202.658 14.7255 202.961 14.7728 203.365 14.7728C203.794 14.7728 204.122 14.6781 204.349 14.5124C204.551 14.3467 204.677 14.1809 204.677 14.0152C204.677 13.8968 204.627 13.7785 204.551 13.6838C204.475 13.5891 204.349 13.518 204.223 13.447C204.097 13.376 203.97 13.305 203.819 13.2577C203.667 13.2103 203.541 13.163 203.44 13.1156C203.112 13.0209 202.784 12.9025 202.405 12.7841C202.027 12.6658 201.698 12.5237 201.396 12.358C201.093 12.1923 200.815 11.9792 200.613 11.7188C200.411 11.4583 200.285 11.127 200.285 10.7482C200.285 10.3694 200.361 10.0379 200.537 9.75382C200.714 9.46973 200.941 9.23296 201.219 9.06724C201.496 8.87785 201.825 8.75952 202.203 8.66482C202.582 8.57012 202.961 8.52278 203.365 8.52278C203.642 8.52278 203.97 8.5464 204.299 8.61742C204.652 8.68845 204.955 8.7832 205.258 8.90158C205.561 9.01995 205.788 9.18563 205.99 9.37502C206.192 9.56442 206.293 9.77746 206.293 10.0142C206.293 10.2036 206.217 10.393 206.066 10.535C205.914 10.6771 205.712 10.7482 205.435 10.7482C205.258 10.7482 205.106 10.7008 204.98 10.6298C204.854 10.5587 204.728 10.4641 204.576 10.3694C204.425 10.2747 204.273 10.1799 204.071 10.1089C203.869 10.0379 203.642 9.99058 203.365 9.99058C202.986 9.99058 202.683 10.0616 202.456 10.1799C202.229 10.2983 202.128 10.4641 202.128 10.6772C202.128 10.7955 202.178 10.8902 202.254 10.9849C202.355 11.0796 202.456 11.1506 202.582 11.2216C202.708 11.2926 202.834 11.3637 202.986 11.4111C203.112 11.4584 203.238 11.5057 203.339 11.5294C203.667 11.6478 203.996 11.7661 204.374 11.8845C204.753 12.0029 205.081 12.1449 205.409 12.3106C205.737 12.4763 205.99 12.6895 206.192 12.9499C206.394 13.2103 206.495 13.5417 206.495 13.9205H206.444Z" fill="black"/><path d="M210.812 9.20953C210.812 9.44627 210.736 9.6357 210.56 9.75407C210.383 9.87244 210.156 9.94343 209.878 9.94343H209.575V15.3886C209.575 15.6253 209.499 15.8384 209.348 15.9804C209.196 16.1462 208.969 16.2172 208.666 16.2172C208.363 16.2172 208.161 16.1462 207.985 15.9804C207.833 15.8147 207.757 15.6253 207.757 15.3886V9.94343H207.48C207.202 9.94343 206.975 9.87244 206.798 9.75407C206.621 9.6357 206.546 9.44627 206.546 9.20953C206.546 8.97279 206.621 8.80711 206.798 8.66506C206.975 8.54669 207.177 8.47563 207.455 8.47563H207.757V7.17357C207.757 6.93682 207.833 6.72375 207.985 6.58171C208.136 6.41598 208.363 6.34495 208.666 6.34495C208.969 6.34495 209.171 6.41598 209.348 6.58171C209.499 6.74743 209.575 6.93682 209.575 7.17357V8.47563H209.878C210.156 8.47563 210.383 8.54669 210.56 8.66506C210.736 8.78344 210.812 8.97279 210.812 9.20953Z" fill="black"/><path d="M213.564 6.91286C213.564 7.17328 213.463 7.41002 213.261 7.57574C213.059 7.74146 212.806 7.83619 212.503 7.83619C212.2 7.83619 211.948 7.74146 211.746 7.57574C211.544 7.41002 211.443 7.17328 211.443 6.91286C211.443 6.65244 211.544 6.43937 211.746 6.24998C211.948 6.06058 212.2 5.9659 212.503 5.9659C212.806 5.9659 213.059 6.06058 213.261 6.24998C213.463 6.43937 213.564 6.65244 213.564 6.91286ZM213.412 15.3646C213.412 15.6251 213.336 15.8381 213.16 15.9802C212.983 16.1459 212.781 16.217 212.503 16.217C212.226 16.217 211.998 16.1459 211.822 15.9802C211.67 15.8145 211.595 15.6251 211.595 15.3646V9.42234C211.595 9.18559 211.67 8.97257 211.822 8.80685C211.973 8.64113 212.2 8.57009 212.503 8.57009C212.781 8.57009 212.983 8.66481 213.16 8.80685C213.336 8.97257 213.412 9.18559 213.412 9.42234V15.3646Z" fill="black"/><path d="M221.994 15.4119C221.994 15.696 221.893 15.909 221.717 16.0274C221.54 16.1458 221.338 16.2168 221.161 16.2168C220.984 16.2168 220.808 16.1458 220.631 16.0274C220.454 15.909 220.353 15.7197 220.328 15.4829C219.773 15.9564 219.116 16.2168 218.359 16.2168C217.728 16.2168 217.198 16.0984 216.744 15.8854C216.289 15.6723 215.91 15.3645 215.608 15.0094C215.305 14.6543 215.077 14.2282 214.926 13.7784C214.774 13.3049 214.699 12.8314 214.699 12.3342C214.699 11.837 214.774 11.3872 214.926 10.9374C215.077 10.4876 215.305 10.0851 215.608 9.73C215.91 9.37489 216.289 9.09083 216.744 8.87776C217.198 8.66469 217.728 8.54628 218.359 8.54628C219.116 8.54628 219.773 8.75935 220.328 9.20917C220.353 8.97242 220.454 8.8067 220.656 8.68833C220.833 8.59363 221.01 8.54628 221.186 8.54628C221.363 8.54628 221.565 8.61735 221.742 8.73572C221.919 8.85409 222.019 9.06711 222.019 9.35121V15.4119H221.994ZM220.328 12.3579C220.328 12.0501 220.278 11.7424 220.202 11.4583C220.126 11.1742 220 10.9137 219.823 10.7007C219.647 10.4876 219.445 10.2982 219.217 10.1798C218.965 10.0378 218.687 9.96676 218.384 9.96676C218.031 9.96676 217.728 10.0378 217.476 10.1798C217.223 10.3219 217.021 10.4876 216.87 10.7244C216.718 10.9611 216.592 11.1979 216.516 11.482C216.441 11.7661 216.415 12.0501 216.415 12.3342C216.415 12.6183 216.466 12.9261 216.516 13.2338C216.592 13.5416 216.718 13.802 216.87 14.0388C217.021 14.2755 217.223 14.4649 217.476 14.6069C217.728 14.749 218.031 14.8201 218.384 14.8201C218.687 14.8201 218.965 14.749 219.192 14.6069C219.445 14.4649 219.647 14.2755 219.798 14.0388C219.975 13.802 220.101 13.5416 220.177 13.2575C220.278 12.9734 220.303 12.6656 220.303 12.3815L220.328 12.3579Z" fill="black"/><path d="M225.326 15.3647C225.326 15.6015 225.251 15.8146 225.074 15.9803C224.897 16.146 224.67 16.217 224.392 16.217C224.115 16.217 223.887 16.1223 223.736 15.9803C223.559 15.8146 223.484 15.6251 223.484 15.3647V6.0844C223.484 5.84766 223.559 5.63459 223.736 5.49254C223.913 5.32682 224.115 5.25579 224.392 5.25579C224.67 5.25579 224.897 5.32682 225.074 5.49254C225.251 5.65827 225.326 5.84766 225.326 6.0844V15.3647Z" fill="black"/><path d="M233 9.32758C233 9.32758 233 9.49327 232.95 9.58796C232.925 9.68266 232.874 9.77735 232.849 9.87205L230.552 15.554C230.476 15.7434 230.375 15.909 230.249 16.0274C230.123 16.1458 229.921 16.2168 229.643 16.2168C229.34 16.2168 229.138 16.1458 229.012 16.0274C228.886 15.909 228.785 15.7434 228.709 15.554L226.412 9.87205C226.412 9.87205 226.336 9.68266 226.311 9.58796C226.286 9.49327 226.26 9.42228 226.26 9.32758C226.26 9.09084 226.336 8.90139 226.513 8.75935C226.689 8.6173 226.891 8.54628 227.093 8.54628C227.396 8.54628 227.624 8.61735 227.75 8.73572C227.876 8.85409 227.977 8.9961 228.027 9.13814L229.643 13.4232L231.233 9.13814C231.284 8.97242 231.385 8.85409 231.511 8.73572C231.637 8.61735 231.864 8.54628 232.167 8.54628C232.369 8.54628 232.571 8.6173 232.748 8.75935C232.925 8.90139 233 9.09084 233 9.32758Z" fill="black"/></svg>