<svg width="128" height="66" viewBox="0 0 128 66" fill="none" xmlns="http://www.w3.org/2000/svg"><path d="M97.3133 33.3347L109.438 31.8162H109.754L125.196 21.6676V16.2971L92.1396 20.4083L83.8063 21.4454L86.7288 16.8897L79.5015 17.8157L77.8033 20.3712L69.6675 19.1119L71.9581 18.223L66.9818 17.0378L63.5064 0L61.5711 18.5934L50.9868 20.2232L49.486 17.9268L41.1922 16.9267L44.1149 21.4454L35.7816 20.4083L2.7251 16.2971V21.6676L18.1673 31.7792L30.6079 33.3347L0 56.3358V61.7063L24.9207 55.3357L38.5067 45.1131L46.0896 46.0391L57.4639 47.4465L63.2299 48.1502H64.7702L70.5364 47.4465L89.4934 45.076L103.079 55.2987L128 61.6693V56.2987L97.3922 33.2978L97.3133 33.3347Z" fill="white"/><path d="M26.7376 57.9652C26.7376 57.9652 26.7375 57.6318 26.8165 57.4466C26.856 57.2614 26.9745 57.1132 27.093 56.9651C27.2115 56.8169 27.3694 56.7059 27.5274 56.5948C27.6854 56.5207 27.8829 56.4466 28.0804 56.4466H32.3457C32.3457 56.4466 32.5036 56.4466 32.5826 56.5577C32.6616 56.6688 32.7011 56.7059 32.7011 56.7799C32.7011 56.854 32.7011 56.9281 32.5826 57.0022C32.4641 57.0762 32.4247 57.1133 32.3457 57.1133H28.2383C28.2383 57.1133 27.9224 57.1132 27.8434 57.1873C27.7249 57.2614 27.646 57.2984 27.6065 57.4095C27.567 57.5207 27.4879 57.5948 27.4879 57.6688C27.4879 57.7799 27.4879 57.8541 27.4879 57.9281C27.4879 58.0022 27.4879 58.1134 27.4879 58.1874C27.4879 58.2985 27.567 58.3726 27.6065 58.4467C27.646 58.5208 27.7644 58.5949 27.8434 58.6689C27.9619 58.743 28.0803 58.743 28.2383 58.743H32.3457C32.3457 58.743 32.5036 58.743 32.5826 58.8541C32.6616 58.9652 32.7011 59.0022 32.7011 59.0763C32.7011 59.1504 32.7011 59.2615 32.5826 59.2985C32.4641 59.3356 32.4247 59.4097 32.3457 59.4097H28.0013C27.8038 59.4097 27.6064 59.3726 27.4484 59.2615C27.2905 59.1503 27.172 59.0393 27.0535 58.8912C26.935 58.743 26.856 58.5948 26.8165 58.4096C26.7375 58.2245 26.7376 58.0762 26.7376 57.8911V57.9652Z" fill="white"/><path d="M39.8495 57.9657C39.8495 57.9657 39.8496 58.299 39.7706 58.4842C39.6916 58.6694 39.6126 58.8175 39.4941 58.9657C39.3756 59.1139 39.2177 59.225 39.0597 59.3361C38.9017 59.4102 38.7042 59.4843 38.5067 59.4843H35.1893C34.9918 59.4843 34.7944 59.4102 34.6364 59.3361C34.4784 59.225 34.3599 59.1139 34.2414 58.9657C34.123 58.8175 34.044 58.6694 34.0045 58.4842C33.9255 58.299 33.9254 58.1509 33.9254 57.9657C33.9254 57.7805 33.9255 57.6323 34.0045 57.4471C34.044 57.2619 34.1624 57.1137 34.2808 56.9656C34.3993 56.8174 34.5574 56.7064 34.7153 56.5953C34.8733 56.5212 35.0707 56.4471 35.2682 56.4471H38.5858C38.7833 56.4471 38.9806 56.5212 39.0991 56.5953C39.2571 56.7064 39.3756 56.8174 39.4941 56.9656C39.6126 57.1137 39.6915 57.2619 39.731 57.4471C39.7705 57.6323 39.8101 57.7805 39.8101 57.9657H39.8495ZM38.7437 58.7064C38.7437 58.7064 38.9412 58.5953 38.9806 58.4842C39.0201 58.4101 39.0991 58.299 39.0991 58.2249C39.0991 58.1508 39.0991 58.0398 39.0991 57.9657C39.0991 57.8916 39.0991 57.7805 39.0991 57.7064C39.0991 57.6323 39.0201 57.5212 38.9806 57.4471C38.9017 57.373 38.8227 57.299 38.7437 57.2249C38.6252 57.1878 38.5067 57.1508 38.3487 57.1508H35.3867C35.3867 57.1508 35.0708 57.1508 34.9918 57.2249C34.8734 57.299 34.7944 57.336 34.7549 57.4471C34.7154 57.5582 34.6364 57.6323 34.6364 57.7064C34.6364 57.8175 34.6364 57.8916 34.6364 57.9657C34.6364 58.0398 34.6364 58.1508 34.6364 58.2249C34.6364 58.336 34.7154 58.4101 34.7549 58.4842C34.7944 58.5583 34.9128 58.6323 34.9918 58.7064C35.1103 58.7805 35.2287 58.7805 35.3867 58.7805H38.3487C38.3487 58.7805 38.6647 58.7805 38.7437 58.7064Z" fill="white"/><path d="M41.5872 58.2249C41.5872 58.2249 41.3898 58.1138 41.2713 58.0397C41.1528 57.9657 41.1133 57.8546 41.0738 57.7435C41.0343 57.6324 40.9948 57.5212 40.9948 57.3731C40.9948 57.2249 40.9948 57.1138 41.0738 57.0027C41.1133 56.8915 41.1923 56.7805 41.2713 56.7064C41.3503 56.6323 41.4687 56.5582 41.5872 56.5211C41.7057 56.4841 41.8242 56.4471 41.9822 56.4471H46.4055C46.4055 56.4471 46.6029 56.4471 46.6424 56.5582C46.6819 56.6693 46.7609 56.7064 46.7609 56.7804C46.7609 56.8545 46.7609 56.9286 46.6424 57.0027C46.524 57.0767 46.4845 57.1138 46.4055 57.1138H41.9426C41.9426 57.1138 41.8242 57.1137 41.7452 57.1878C41.7057 57.2248 41.6663 57.299 41.6663 57.3731C41.6663 57.4471 41.6662 57.4841 41.7452 57.5582C41.7847 57.5952 41.8637 57.6324 41.9426 57.6324H45.9711C45.9711 57.6324 46.2476 57.6323 46.3661 57.7064C46.4846 57.7805 46.603 57.8175 46.682 57.8915C46.761 57.9656 46.8399 58.0768 46.8794 58.1879C46.9189 58.299 46.9585 58.4102 46.9585 58.5583C46.9585 58.7065 46.9584 58.8175 46.8794 58.9286C46.8399 59.0397 46.761 59.1509 46.682 59.225C46.603 59.2991 46.4846 59.3731 46.3661 59.4101C46.2476 59.4472 46.1291 59.4843 45.9711 59.4843H41.5478C41.5478 59.4843 41.3502 59.4843 41.3107 59.3732C41.2317 59.2991 41.1922 59.2249 41.1922 59.1508C41.1922 59.0768 41.1922 59.0027 41.3107 58.9286C41.3897 58.8545 41.4688 58.8175 41.5478 58.8175H46.0105C46.0105 58.8175 46.1291 58.8176 46.2081 58.7435C46.2476 58.7064 46.287 58.6324 46.287 58.5583C46.287 58.4842 46.2871 58.4101 46.2081 58.3731C46.1291 58.336 46.0895 58.299 46.0105 58.299H41.9426C41.9426 58.299 41.6663 58.299 41.5478 58.2249H41.5872Z" fill="white"/><path d="M48.775 59.3731C48.775 59.3731 48.6171 59.4842 48.5381 59.4842C48.4591 59.4842 48.3406 59.4842 48.3011 59.3731C48.2221 59.299 48.1827 59.2248 48.1827 59.1507V56.8174C48.1827 56.8174 48.1827 56.6322 48.3011 56.5952C48.3801 56.5211 48.4591 56.4839 48.5381 56.4839C48.5776 56.4839 48.6171 56.4839 48.6566 56.4839C48.6961 56.4839 48.7355 56.5211 48.775 56.5581C49.091 56.8174 49.3674 57.0026 49.6044 57.1507C49.8413 57.2989 50.0388 57.41 50.2363 57.4841C50.4338 57.5581 50.5918 57.5952 50.7497 57.6322C50.9077 57.6693 51.1052 57.6322 51.2632 57.6322C51.4212 57.6322 51.6187 57.6322 51.7766 57.6322C51.9346 57.6322 52.0926 57.5581 52.2901 57.4841C52.4875 57.41 52.6849 57.2989 52.9219 57.1507C53.1588 57.0026 53.4354 56.8173 53.7513 56.521C53.8303 56.4469 53.9093 56.4099 53.9883 56.4099C54.0673 56.4099 54.1462 56.4099 54.2252 56.521C54.3042 56.6321 54.3437 56.6692 54.3437 56.7432V59.0767C54.3437 59.0767 54.3437 59.2619 54.2252 59.2989C54.1068 59.336 54.0673 59.41 53.9883 59.41C53.9093 59.41 53.7908 59.41 53.7513 59.2989C53.7118 59.1878 53.6328 59.1508 53.6328 59.0767V57.447C53.3959 57.5951 53.1984 57.7434 53.0009 57.8545C52.8035 57.9656 52.606 58.0396 52.4085 58.1137C52.2111 58.1877 52.0135 58.2248 51.816 58.2618C51.6186 58.2618 51.4211 58.2989 51.2237 58.2989C51.0262 58.2989 50.8287 58.2989 50.6313 58.2618C50.4338 58.2618 50.2364 58.1877 50.0389 58.1137C49.8414 58.0396 49.644 57.9656 49.4465 57.8545C49.249 57.7434 49.0515 57.5951 48.8146 57.447V59.0767C48.8146 59.0767 48.8146 59.2619 48.6961 59.2989L48.775 59.3731ZM50.7893 59.1138C50.7893 59.1138 50.8288 58.8915 50.9078 58.8174C50.9867 58.7433 51.1052 58.7063 51.2237 58.7063C51.3421 58.7063 51.4607 58.7433 51.5397 58.8174C51.6187 58.8915 51.6581 59.0026 51.6581 59.1138C51.6581 59.2249 51.6187 59.3359 51.5397 59.41C51.4607 59.4841 51.3421 59.5211 51.2237 59.5211C51.1052 59.5211 50.9867 59.4841 50.9078 59.41C50.8288 59.3359 50.7893 59.2249 50.7893 59.1138Z" fill="white"/><path d="M56.4765 57.3731C56.4765 57.3731 56.4764 57.2248 56.3974 57.1878C56.3579 57.1508 56.279 57.1138 56.2 57.1138H55.884C55.884 57.1138 55.6865 57.1138 55.647 57.0027C55.568 56.9286 55.5286 56.8545 55.5286 56.7804C55.5286 56.7064 55.5286 56.5952 55.647 56.5582C55.726 56.4841 55.805 56.4471 55.884 56.4471H56.2C56.2 56.4471 56.4765 56.4471 56.595 56.5211C56.7135 56.5582 56.8319 56.6323 56.9109 56.7064C56.9899 56.7805 57.0688 56.8915 57.1083 57.0027C57.1478 57.1138 57.1874 57.2249 57.1874 57.3731V59.1139C57.1874 59.1139 57.1874 59.2991 57.0689 59.3361C56.9899 59.4102 56.9109 59.4472 56.8319 59.4472C56.7529 59.4472 56.6345 59.4472 56.595 59.3361C56.516 59.262 56.4765 59.188 56.4765 59.1139V57.3731Z" fill="white"/><path d="M58.3326 57.9657C58.3326 57.9657 58.3326 57.6323 58.4116 57.4471C58.4511 57.2619 58.5696 57.1137 58.6881 56.9656C58.8065 56.8174 58.9645 56.7064 59.1224 56.5953C59.2804 56.5212 59.4779 56.4471 59.6754 56.4471H63.9407C63.9407 56.4471 64.0987 56.4471 64.1777 56.5582C64.2567 56.6693 64.2961 56.7064 64.2961 56.7804C64.2961 56.8545 64.2962 56.9286 64.1777 57.0027C64.0592 57.0767 64.0197 57.1138 63.9407 57.1138H59.8333C59.8333 57.1138 59.5174 57.1137 59.4385 57.1878C59.32 57.2619 59.241 57.2989 59.2015 57.41C59.162 57.5211 59.0829 57.5952 59.0829 57.6693C59.0829 57.7804 59.0829 57.8545 59.0829 57.9286C59.0829 58.0027 59.0829 58.1138 59.0829 58.1879C59.0829 58.299 59.162 58.3731 59.2015 58.4472C59.241 58.5213 59.3595 58.5954 59.4385 58.6694C59.5569 58.7435 59.6753 58.7435 59.8333 58.7435H63.9407C63.9407 58.7435 64.0987 58.7435 64.1777 58.8546C64.2567 58.9657 64.2961 59.0027 64.2961 59.0768C64.2961 59.1509 64.2962 59.262 64.1777 59.299C64.0592 59.3361 64.0197 59.4101 63.9407 59.4101H59.5963C59.3989 59.4101 59.2015 59.3731 59.0435 59.262C58.8855 59.1508 58.767 59.0398 58.6485 58.8917C58.53 58.7435 58.4511 58.5953 58.4116 58.4101C58.3326 58.2249 58.3326 58.0767 58.3326 57.8915V57.9657Z" fill="white"/><path d="M73.8142 56.5955C73.8142 56.5955 73.9722 56.4843 74.0907 56.4843C74.1697 56.4843 74.2882 56.4844 74.3277 56.5955C74.4067 56.6696 74.4462 56.7437 74.4462 56.8177C74.4462 56.8918 74.4462 56.9658 74.3672 57.0029L72.5899 59.2622C72.5109 59.3733 72.3925 59.4474 72.274 59.5215C72.1555 59.5956 71.9975 59.6326 71.8395 59.6326C71.6816 59.6326 71.5631 59.6326 71.4446 59.5586C71.3261 59.4845 71.2077 59.4104 71.1287 59.2993L69.3514 57.0769C69.3514 57.0769 69.3119 57.0028 69.2724 56.9658C69.2724 56.9288 69.2724 56.8917 69.2724 56.8547C69.2724 56.7436 69.2724 56.6695 69.3909 56.6325C69.4699 56.5584 69.5489 56.5214 69.6279 56.5214C69.7464 56.5214 69.8254 56.5584 69.9044 56.6696L71.6026 58.8177C71.6026 58.8177 71.6816 58.8918 71.7211 58.9289C71.7606 58.9659 71.8396 59.003 71.8791 59.003C71.9186 59.003 71.9976 59.0029 72.0371 58.9289C72.0766 58.8918 72.1161 58.8548 72.1556 58.8177L73.8932 56.6696L73.8142 56.5955Z" fill="white"/><path d="M76.5792 57.3731C76.5792 57.3731 76.5792 57.2248 76.5002 57.1878C76.4607 57.1508 76.3817 57.1138 76.3027 57.1138H75.9868C75.9868 57.1138 75.7893 57.1138 75.7498 57.0027C75.6708 56.9286 75.6313 56.8545 75.6313 56.7804C75.6313 56.7064 75.6313 56.5952 75.7498 56.5582C75.8288 56.4841 75.9079 56.4471 75.9868 56.4471H76.3027C76.3027 56.4471 76.5792 56.4471 76.6977 56.5211C76.8162 56.5582 76.9346 56.6323 77.0136 56.7064C77.0926 56.7805 77.1717 56.8915 77.2111 57.0027C77.2506 57.1138 77.2901 57.2249 77.2901 57.3731V59.1139C77.2901 59.1139 77.2901 59.2991 77.1716 59.3361C77.0926 59.4102 77.0137 59.4472 76.9347 59.4472C76.8557 59.4472 76.7372 59.4472 76.6977 59.3361C76.6187 59.262 76.5792 59.188 76.5792 59.1139V57.3731Z" fill="white"/><path d="M79.0278 58.2249C79.0278 58.2249 78.8302 58.1138 78.7117 58.0397C78.5933 57.9657 78.5538 57.8546 78.5143 57.7435C78.4748 57.6324 78.4354 57.5212 78.4354 57.3731C78.4354 57.2249 78.4353 57.1138 78.5143 57.0027C78.5538 56.8915 78.6327 56.7805 78.7117 56.7064C78.7907 56.6323 78.9093 56.5582 79.0278 56.5211C79.1462 56.4841 79.2647 56.4471 79.4227 56.4471H83.846C83.846 56.4471 84.0435 56.4471 84.083 56.5582C84.1225 56.6693 84.2015 56.7064 84.2015 56.7804C84.2015 56.8545 84.2015 56.9286 84.083 57.0027C83.9645 57.0767 83.925 57.1138 83.846 57.1138H79.3832C79.3832 57.1138 79.2648 57.1137 79.1858 57.1878C79.1463 57.2248 79.1067 57.299 79.1067 57.3731C79.1067 57.4471 79.1068 57.4841 79.1858 57.5582C79.2253 57.5952 79.3042 57.6324 79.3832 57.6324H83.4115C83.4115 57.6324 83.688 57.6323 83.8065 57.7064C83.925 57.7805 84.0435 57.8175 84.1225 57.8915C84.2015 57.9656 84.2804 58.0768 84.3199 58.1879C84.3594 58.299 84.3989 58.4102 84.3989 58.5583C84.3989 58.7065 84.3989 58.8175 84.3199 58.9286C84.2804 59.0397 84.2015 59.1509 84.1225 59.225C84.0435 59.2991 83.925 59.3731 83.8065 59.4101C83.688 59.4472 83.5695 59.4843 83.4115 59.4843H78.9882C78.9882 59.4843 78.7908 59.4843 78.7513 59.3732C78.6723 59.2991 78.6328 59.2249 78.6328 59.1508C78.6328 59.0768 78.6328 59.0027 78.7513 58.9286C78.8303 58.8545 78.9092 58.8175 78.9882 58.8175H83.4511C83.4511 58.8175 83.5695 58.8176 83.6485 58.7435C83.688 58.7064 83.7276 58.6324 83.7276 58.5583C83.7276 58.4842 83.7275 58.4101 83.6485 58.3731C83.5695 58.336 83.5301 58.299 83.4511 58.299H79.3832C79.3832 58.299 79.1067 58.299 78.9882 58.2249H79.0278Z" fill="white"/><path d="M86.5707 57.3731C86.5707 57.3731 86.5706 57.2248 86.4916 57.1878C86.4521 57.1508 86.3732 57.1138 86.2942 57.1138H85.9783C85.9783 57.1138 85.7807 57.1138 85.7412 57.0027C85.6622 56.9286 85.6227 56.8545 85.6227 56.7804C85.6227 56.7064 85.6227 56.5952 85.7412 56.5582C85.8202 56.4841 85.8993 56.4471 85.9783 56.4471H86.2942C86.2942 56.4471 86.5706 56.4471 86.6891 56.5211C86.8076 56.5582 86.926 56.6323 87.005 56.7064C87.084 56.7805 87.1631 56.8915 87.2026 57.0027C87.2421 57.1138 87.2815 57.2249 87.2815 57.3731V59.1139C87.2815 59.1139 87.2815 59.2991 87.163 59.3361C87.084 59.4102 87.0051 59.4472 86.9261 59.4472C86.8471 59.4472 86.7286 59.4472 86.6891 59.3361C86.6101 59.262 86.5707 59.188 86.5707 59.1139V57.3731Z" fill="white"/><path d="M94.3905 57.9657C94.3905 57.9657 94.3906 58.299 94.3116 58.4842C94.2326 58.6694 94.1536 58.8175 94.0351 58.9657C93.9166 59.1139 93.7587 59.225 93.6007 59.3361C93.4427 59.4102 93.2452 59.4843 93.0477 59.4843H89.7303C89.5328 59.4843 89.3354 59.4102 89.1774 59.3361C89.0194 59.225 88.9009 59.1139 88.7824 58.9657C88.664 58.8175 88.585 58.6694 88.5455 58.4842C88.4665 58.299 88.4664 58.1509 88.4664 57.9657C88.4664 57.7805 88.4665 57.6323 88.5455 57.4471C88.585 57.2619 88.7035 57.1137 88.822 56.9656C88.9405 56.8174 89.0984 56.7064 89.2564 56.5953C89.4143 56.5212 89.6119 56.4471 89.8093 56.4471H93.1268C93.3243 56.4471 93.5217 56.5212 93.6401 56.5953C93.7981 56.7064 93.9166 56.8174 94.0351 56.9656C94.1536 57.1137 94.2326 57.2619 94.2721 57.4471C94.3115 57.6323 94.3511 57.7805 94.3511 57.9657H94.3905ZM93.3242 58.7064C93.3242 58.7064 93.5217 58.5953 93.5612 58.4842C93.6007 58.4101 93.6797 58.299 93.6797 58.2249C93.6797 58.1508 93.6797 58.0398 93.6797 57.9657C93.6797 57.8916 93.6797 57.7805 93.6797 57.7064C93.6797 57.6323 93.6007 57.5212 93.5612 57.4471C93.4822 57.373 93.4032 57.299 93.3242 57.2249C93.2058 57.1878 93.0872 57.1508 92.9293 57.1508H89.9672C89.9672 57.1508 89.6512 57.1508 89.5723 57.2249C89.4538 57.299 89.3748 57.336 89.3353 57.4471C89.2958 57.5582 89.2168 57.6323 89.2168 57.7064C89.2168 57.8175 89.2168 57.8916 89.2168 57.9657C89.2168 58.0398 89.2168 58.1508 89.2168 58.2249C89.2168 58.336 89.2958 58.4101 89.3353 58.4842C89.3748 58.5583 89.4933 58.6323 89.5723 58.7064C89.6907 58.7805 89.8092 58.7805 89.9672 58.7805H92.9293C92.9293 58.7805 93.2452 58.7805 93.3242 58.7064Z" fill="white"/><path d="M100.512 57.7064C100.512 57.7064 100.433 57.5212 100.394 57.4471C100.354 57.373 100.236 57.299 100.157 57.2249C100.038 57.1878 99.9196 57.1508 99.7617 57.1508H97.1155C97.1155 57.1508 96.7997 57.1508 96.7207 57.2249C96.6022 57.299 96.5231 57.336 96.4836 57.4471C96.4441 57.5582 96.3651 57.6323 96.3651 57.7064C96.3651 57.8175 96.3651 57.8916 96.3651 57.9657V59.1139C96.3651 59.1139 96.3651 59.2991 96.2466 59.3361C96.1677 59.4102 96.0887 59.4472 96.0097 59.4472C95.9307 59.4472 95.8122 59.4472 95.7727 59.3361C95.6938 59.262 95.6543 59.188 95.6543 59.1139V57.9657C95.6543 57.9657 95.6543 57.6323 95.7333 57.4471C95.7728 57.2619 95.8912 57.1137 96.0097 56.9656C96.1282 56.8174 96.2862 56.7064 96.4442 56.5953C96.6022 56.5212 96.7996 56.4471 96.997 56.4471H100.078C100.078 56.4471 100.473 56.5212 100.591 56.5953C100.749 56.7064 100.867 56.8174 100.986 56.9656C101.104 57.1137 101.183 57.2619 101.223 57.4471C101.262 57.6323 101.302 57.7805 101.302 57.9657V59.1139C101.302 59.1139 101.302 59.2991 101.183 59.3361C101.065 59.3731 101.025 59.4472 100.946 59.4472C100.867 59.4472 100.749 59.4472 100.709 59.3361C100.67 59.225 100.591 59.188 100.591 59.1139V57.9657C100.591 57.9657 100.591 57.7805 100.591 57.7064H100.512Z" fill="white"/><path d="M50.5522 63.6697C50.5522 63.6697 50.5521 63.3364 50.6311 63.1512C50.6706 62.966 50.7891 62.8178 50.9076 62.6697C51.0261 62.5215 51.184 62.4104 51.342 62.2992C51.5 62.2252 51.6975 62.1512 51.895 62.1512H56.1603C56.1603 62.1512 56.3182 62.1512 56.3972 62.2623C56.4762 62.3734 56.5157 62.4104 56.5157 62.4845C56.5157 62.5586 56.5157 62.6326 56.3972 62.7067C56.2787 62.7808 56.2392 62.8178 56.1603 62.8178H52.0528C52.0528 62.8178 51.737 62.8178 51.658 62.8919C51.5395 62.9659 51.4605 63.003 51.421 63.1141C51.3816 63.2252 51.3026 63.2993 51.3026 63.3734C51.3026 63.4845 51.3026 63.5586 51.3026 63.6327C51.3026 63.7068 51.3026 63.8178 51.3026 63.8919C51.3026 64.003 51.3816 64.0771 51.421 64.1512C51.4605 64.2252 51.579 64.2993 51.658 64.3734C51.7765 64.4475 51.8949 64.4475 52.0528 64.4475H56.1603C56.1603 64.4475 56.3182 64.4475 56.3972 64.5587C56.4762 64.6698 56.5157 64.7068 56.5157 64.7809C56.5157 64.855 56.5157 64.9661 56.3972 65.0031C56.2787 65.0401 56.2392 65.1142 56.1603 65.1142H51.8159C51.6184 65.1142 51.421 65.0771 51.263 64.966C51.1051 64.8549 50.9866 64.7438 50.8681 64.5956C50.7496 64.4475 50.6706 64.2994 50.6311 64.1142C50.5521 63.929 50.5522 63.7808 50.5522 63.5956V63.6697Z" fill="white"/><path d="M58.2932 65.114C58.2932 65.114 58.0562 65.0029 57.9772 64.9288C57.8982 64.8547 57.8193 64.7435 57.7798 64.6324C57.7403 64.5213 57.7009 64.4102 57.7009 64.262V62.5212C57.7009 62.5212 57.7009 62.336 57.8193 62.299C57.8983 62.2249 57.9773 62.1879 58.0563 62.1879C58.1353 62.1879 58.2143 62.1879 58.2932 62.299C58.3722 62.3731 58.4117 62.4471 58.4117 62.5212V64.262C58.4117 64.262 58.4117 64.4102 58.4907 64.4473C58.5302 64.4843 58.6092 64.5213 58.6882 64.5213H63.072C63.072 64.5213 63.2694 64.5213 63.3089 64.6324C63.3879 64.7065 63.4274 64.7806 63.4274 64.8547C63.4274 64.9287 63.4274 65.0398 63.3089 65.0769C63.23 65.151 63.151 65.188 63.072 65.188H58.6882C58.6882 65.188 58.4117 65.188 58.2932 65.114Z" fill="white"/><path d="M65.2836 63.9287C65.2836 63.9287 65.3626 64.1139 65.4021 64.188C65.4416 64.2621 65.56 64.3361 65.639 64.4102C65.718 64.4843 65.876 64.4842 66.034 64.4842H68.9565C68.9565 64.4842 69.2725 64.4843 69.3515 64.4102C69.4699 64.3361 69.5489 64.2991 69.5884 64.188C69.6279 64.0769 69.7069 64.0028 69.7069 63.9287C69.7069 63.8176 69.7069 63.7435 69.7069 63.6694V62.5212C69.7069 62.5212 69.7069 62.336 69.8254 62.299C69.9044 62.2249 69.9835 62.1879 70.0624 62.1879C70.1414 62.1879 70.2599 62.1879 70.2994 62.299C70.3784 62.3731 70.4179 62.4471 70.4179 62.5212V63.6694C70.4179 63.6694 70.4178 64.0028 70.3388 64.188C70.2598 64.3732 70.1809 64.5214 70.0624 64.6695C69.944 64.8177 69.7859 64.9288 69.6279 65.0399C69.47 65.114 69.2726 65.188 69.0751 65.188H65.7575C65.56 65.188 65.3626 65.114 65.2046 65.0399C65.0467 64.9288 64.9282 64.8177 64.8097 64.6695C64.6912 64.5214 64.6122 64.3732 64.5727 64.188C64.4937 64.0028 64.4938 63.8546 64.4938 63.6694V62.5212C64.4938 62.5212 64.4938 62.336 64.6122 62.299C64.6912 62.2249 64.7702 62.1879 64.8492 62.1879C64.9282 62.1879 65.0467 62.1879 65.0862 62.299C65.1651 62.3731 65.2046 62.4471 65.2046 62.5212V63.6694C65.2046 63.6694 65.2046 63.8546 65.2046 63.9287H65.2836Z" fill="white"/><path d="M72.5506 63.6697C72.5506 63.6697 72.5506 63.4845 72.6691 63.4474C72.748 63.3734 72.827 63.3363 72.906 63.3363H76.5395C76.5395 63.3363 76.658 63.3364 76.7369 63.2623C76.8159 63.1882 76.816 63.1512 76.816 63.0771C76.816 63.0031 76.8159 62.966 76.7369 62.8919C76.6974 62.8548 76.6185 62.8178 76.5395 62.8178H72.0767C72.0767 62.8178 71.8792 62.8178 71.8397 62.7067C71.7607 62.6326 71.7212 62.5586 71.7212 62.4845C71.7212 62.4104 71.7212 62.2993 71.8397 62.2623C71.9187 62.1882 71.9977 62.1512 72.0767 62.1512H76.5C76.5 62.1512 76.7765 62.1511 76.895 62.2252C77.0134 62.2622 77.132 62.3363 77.211 62.4104C77.29 62.4844 77.3689 62.5956 77.4084 62.7067C77.4479 62.8178 77.4873 62.929 77.4873 63.0771C77.4873 63.1882 77.4874 63.2994 77.4084 63.4105C77.4084 63.5216 77.3294 63.5956 77.2504 63.6697C77.4084 63.8548 77.4873 64.0401 77.4873 64.2623C77.4873 64.4104 77.4874 64.5216 77.4084 64.6327C77.3689 64.7438 77.29 64.855 77.211 64.9291C77.132 65.0031 77.0134 65.0772 76.895 65.1142C76.7765 65.1512 76.658 65.1882 76.5 65.1882H72.0767C72.0767 65.1882 71.8792 65.1883 71.8397 65.0771C71.7607 65.0031 71.7212 64.929 71.7212 64.8549C71.7212 64.7808 71.7212 64.7068 71.8397 64.6327C71.9187 64.5586 71.9977 64.5216 72.0767 64.5216H76.5395C76.5395 64.5216 76.658 64.5216 76.7369 64.4475C76.7764 64.4105 76.816 64.3364 76.816 64.2623C76.816 64.1882 76.8159 64.1142 76.7369 64.0771C76.658 64.0401 76.6185 64.0031 76.5395 64.0031H72.906C72.906 64.0031 72.7086 64.003 72.6691 63.8919C72.5901 63.8178 72.5506 63.7437 72.5506 63.6697Z" fill="white"/><path d="M91.4679 21.7788L84.1615 33.1126L93.3637 32.0015L121.918 53.4838L103.632 48.8171L89.7697 38.4092L71.089 40.7426L82.5422 22.89L91.4679 21.7788Z" fill="black"/><path d="M34.9128 21.5937L38.8228 27.7051L18.6018 25.1865L8.05695 18.2603L34.9128 21.5937Z" fill="black"/><path d="M43.8385 18.5563L57.1085 39.1869L61.6898 32.2976L56.4371 24.2974L51.6584 23.7417L48.6568 19.149L43.8385 18.5563Z" fill="black"/><path d="M76.1447 30.7425L70.8525 31.4092L75.9077 23.7422L71.287 24.2978L64.573 34.4464H63.1117L62.4402 33.4093L57.8589 40.3355L58.2145 40.9281L63.2302 41.5208H64.6125L69.5887 40.9281L76.1447 30.7425Z" fill="black"/><path d="M73.2216 29.6679L77.171 29.1494L84.043 18.5563L80.2911 19.0379L73.2216 29.6679Z" fill="black"/><path d="M50.5918 31.1496L45.2601 22.89L36.3739 21.7788L43.6409 33.1126L34.4387 32.0015L5.88465 53.4838L24.2098 48.8171L38.0327 38.4092L45.3391 39.2981L50.5918 31.1496Z" fill="black"/><path d="M92.9292 21.5937L88.9798 27.7051L109.24 25.1865L119.785 18.2603L92.9292 21.5937Z" fill="black"/><path d="M46.603 39.4834L56.7528 40.7427L51.2632 32.2239L46.603 39.4834Z" fill="black"/><path d="M64.7308 19.6676L67.6138 18.5193L65.7576 18.0748L63.9013 9.00045L62.7955 19.7045L52.7641 21.2602L63.1115 22.8899L60.2284 24.001L62.0451 24.4455L63.9013 33.52L65.0072 22.8158L75.0387 21.2602L64.7308 19.6676Z" fill="black"/></svg>