<svg width="405" height="108" viewBox="0 0 405 108" fill="none" xmlns="http://www.w3.org/2000/svg"><g filter="url(#filter0_d_13_248)"><path d="M206.523 48.6163C206.851 49.1602 206.825 49.7988 206.724 50.3663C206.321 52.5657 206.018 54.7887 205.64 56.988C204.934 61.2684 204.228 65.5489 203.522 69.8529L214.239 66.4948L218.677 39.4169C218.677 39.4169 199.815 44.7852 195.125 46.1332C198.151 45.9676 204.405 45.0926 206.472 48.6163H206.523Z" fill="#0E0088"/><path d="M391.133 11.6058C389.267 22.035 385.585 26.5282 378.02 27.2613L370.153 27.3796L370.002 28.3728C370.909 28.4201 371.918 28.562 373.053 28.7749C374.188 28.9877 375.247 29.2952 376.23 29.7208C377.213 30.1465 378.02 30.6668 378.626 31.3289C379.231 31.9911 379.458 32.7951 379.281 33.7884C379.155 34.5215 378.752 35.8222 378.02 37.7141C377.289 39.606 375.927 42.3729 373.91 46.0385C371.237 50.8392 368.64 55.4271 366.169 59.8021C363.697 64.2008 361.453 68.1265 359.436 71.5792C357.418 75.032 355.754 77.9408 354.443 80.2584C353.106 82.5759 352.199 84.1131 351.745 84.8462C351.291 82.8834 350.635 80.3529 349.803 77.2549C348.971 74.157 348.063 70.8225 347.13 67.2515C346.197 63.6569 345.264 60.015 344.306 56.3021C343.348 52.5892 342.515 49.1602 341.784 46.0385C341.053 42.9169 340.473 40.2445 340.069 38.0452C339.641 35.8459 339.489 34.4506 339.59 33.8357C339.742 32.8425 340.246 32.0147 341.103 31.3289C341.961 30.6668 342.894 30.1228 343.902 29.7681C344.911 29.3897 345.895 29.1296 346.828 28.9877C347.761 28.8458 348.416 28.7276 348.794 28.6566L348.946 27.6634L317.248 28.1127L317.072 29.2006C318.686 29.2479 319.997 29.4843 320.981 29.8864C321.964 30.312 322.796 30.8087 323.426 31.3762C324.082 31.9675 324.561 32.535 324.889 33.1262C325.217 33.7175 325.444 34.2141 325.595 34.5925C325.898 35.3729 326.175 36.1296 326.453 36.8627C326.73 37.5959 326.982 38.329 327.259 39.1331C327.512 39.9135 327.789 40.7648 328.066 41.6871C328.344 42.6094 328.621 43.6973 328.924 44.9506C330.008 49.1601 331.092 53.346 332.177 57.5318C333.261 61.7177 334.396 66.0218 335.581 70.4914C336.766 74.961 337.951 79.6199 339.187 84.4442C340.422 89.2686 341.759 94.353 343.222 99.674H344.482L351.291 89.6706C353.459 85.8868 355.754 81.8665 358.15 77.6333C360.571 73.4002 362.991 69.1907 365.437 65.0049C367.883 60.819 370.279 56.7514 372.599 52.7784C374.944 48.8291 377.062 45.2344 379.004 42.0418C380.164 40.1026 381.172 38.5182 382.055 37.2411C382.938 35.9641 383.694 34.9236 384.299 34.0958C384.778 33.481 385.182 32.9843 385.56 32.5823C386.392 35.0654 386.342 38.4945 385.51 43.106C387.552 31.6364 391.814 27.3086 400.993 27.3323C391.789 27.3323 389.09 23.0046 391.158 11.5349L391.133 11.6058Z" fill="#0E0088"/><path d="M398.244 49.3496C393.327 49.3496 391.058 51.6672 389.973 57.7923C391.058 51.6672 389.62 49.3496 384.703 49.3496C389.62 49.3496 391.89 47.0321 392.974 40.907C391.89 47.0321 393.327 49.3496 398.244 49.3496Z" fill="#0E0088"/><path d="M137.933 66.2111C136.446 65.8327 134.68 65.407 132.613 64.9813C130.545 64.5557 128.654 64.13 126.914 63.7516C124.392 63.1368 122.375 62.2144 120.862 60.9611C119.349 59.7313 118.819 57.6975 119.273 54.8833C119.55 53.1333 120.13 51.5961 121.013 50.2481C121.896 48.9238 122.904 47.8123 124.064 46.9373C125.224 46.0623 126.51 45.4001 127.948 44.9508C129.36 44.5015 130.772 44.2886 132.159 44.2886C134.453 44.2886 136.395 44.6906 138.034 45.4711C139.673 46.2515 141.06 47.3393 142.22 48.7582C143.38 50.1772 144.364 51.8562 145.196 53.8191C146.028 55.7583 146.81 57.8867 147.591 60.1806L148.449 62.853L149.457 45.7785C147.213 44.9271 144.843 44.2177 142.321 43.6265C139.799 43.0352 136.824 42.7278 133.394 42.7278C130.696 42.7278 128.099 43.0589 125.628 43.7683C123.131 44.4778 120.887 45.5184 118.87 46.89C116.852 48.2616 115.138 49.8934 113.776 51.7853C112.414 53.6772 111.532 55.8056 111.128 58.1705C110.573 61.5996 111.052 64.532 112.565 66.9915C114.078 69.451 116.297 71.1774 119.248 72.1706C120.786 72.7145 122.551 73.2112 124.493 73.6841C126.46 74.1571 128.502 74.5828 130.646 74.9848C133.319 75.5287 135.336 76.5929 136.672 78.1538C138.009 79.7146 138.488 81.7011 138.085 84.066C137.379 88.4174 135.689 91.6336 133.041 93.7147C130.368 95.7958 127.09 96.8363 123.182 96.8127C120.483 96.8127 118.264 96.2451 116.499 95.11C114.734 93.9985 113.145 92.5322 111.859 90.9241C110.472 89.1741 109.615 87.7788 108.959 85.745C108.329 83.7349 107.825 81.7247 107.951 79.62C107.951 79.5017 107.976 79.4308 107.976 79.4308C103.588 98.3025 87.1219 99.3904 87.1219 99.3904L123.03 98.1843C126.056 98.1843 128.981 97.9005 131.831 97.3093C134.655 96.7181 137.252 95.7485 139.598 94.3769C141.943 93.0052 143.935 91.2552 145.549 89.0795C147.163 86.9038 148.222 84.3498 148.701 81.37C149.331 77.4916 148.575 74.2044 146.431 71.5084C144.288 68.8361 141.438 67.0625 137.908 66.1875L137.933 66.2111Z" fill="#0E0088"/><path d="M180.525 20.2614L182.517 8.05861L175.456 22.6736C177.095 21.8695 178.785 21.0655 180.525 20.2614Z" fill="#0E0088"/><path d="M184.786 91.2318C183.046 91.823 181.105 92.296 178.734 92.296C175.885 92.296 173.691 91.3973 172.178 89.6237C170.665 87.85 170.236 85.0358 170.867 81.1574L175.759 51.0761L176.641 44.0997L178.608 32.0388C173.615 34.7584 169.934 37.2652 167.664 39.3936C166.983 43.6031 163.907 62.5221 162.898 68.2451C162.243 71.9107 161.612 75.7182 160.957 79.6202V79.5729C156.569 98.4447 140.102 99.5325 140.102 99.5325L172.682 98.421C172.682 98.421 172.607 98.3974 172.556 98.3737C174.573 98.3028 176.439 98.0899 178.053 97.6406C179.667 97.1913 181.205 96.5764 182.643 95.7724C184.156 94.921 185.517 93.8805 186.703 92.6744C187.963 91.3973 191.519 86.7149 192.301 85.0594C192.301 85.0594 188.972 89.8365 184.811 91.2554L184.786 91.2318Z" fill="#0E0088"/><path d="M274.481 3.44718C270.925 -3.41098 240.691 0.278235 206.951 11.7243C206.623 11.8425 206.32 11.9371 206.018 12.0554C204.631 10.1398 203.194 8.01139 201.63 5.6465C203.194 8.05868 204.555 10.2107 205.741 12.1499C172.631 23.525 148.801 38.0691 152.307 44.8563C154.551 49.1604 171.143 51.3124 188.265 47.032C176.994 48.711 165.47 47.2921 163.629 44.5015C160.149 39.2279 179.667 27.4034 207.203 18.0621C207.707 17.8966 208.212 17.7311 208.716 17.5655C211.868 24.3764 209.649 26.6466 198.251 24.9203C211.086 26.8595 217.391 29.6264 230.226 49.5624C216.861 28.7514 220.77 28.3257 233.605 30.2649C223.846 28.7987 217.92 26.7649 209.952 17.1635C236.404 8.53165 260.007 5.62285 263.386 10.7074C265.428 13.8053 259.528 19.1736 248.71 24.9676C266.361 16.5013 276.927 8.12965 274.506 3.44718H274.481Z" fill="#0E0088"/><path d="M99.7549 83.38C98.7715 84.657 97.662 85.9341 96.4768 87.1165C96.3507 87.2348 95.7959 87.7314 94.636 88.4645C94.2073 88.7483 93.7534 89.0557 93.2491 89.3395C91.8369 90.1909 90.3491 90.8294 88.7605 91.3024C85.2302 92.6504 80.3382 93.951 73.7566 94.6841C70.4533 95.0389 65.3595 95.5592 62.3083 95.5828C56.9624 95.4882 50.9356 95.0862 47.3044 94.3531C45.4132 93.9747 43.0933 92.6977 42.2863 90.1436C41.782 88.4882 42.2107 83.6638 42.3115 82.576C43.5219 71.059 44.3037 68.0556 46.1445 56.7278C47.5566 48.025 48.8174 39.275 50.7843 30.7377C51.3391 28.3019 51.9695 25.8424 53.3312 23.8323C55.1468 21.1127 58.3745 19.9302 61.7031 19.268C63.2161 18.9842 78.0435 17.518 78.0435 17.518L22.2896 17.2106C22.2896 17.2106 30.5102 19.1734 32.351 19.7883C36.1335 21.0417 37.3187 23.312 37.2934 26.4573C37.2934 29.1769 36.8395 31.8019 36.4109 34.4269C33.7631 50.6264 31.0397 66.7786 28.2407 82.9544C27.585 86.7618 26.8538 90.7348 24.3573 93.5254C22.0878 96.0795 18.5827 97.3565 15.002 98.0659C11.396 98.7518 7.63873 98.8936 4.00754 99.5322C21.9617 99.6268 45.8419 99.6977 63.7709 99.7923C67.5786 99.7923 71.3611 99.8396 75.1688 99.8633C75.3453 99.8633 75.547 99.8633 75.7487 99.8633C88.3318 99.9342 98.5445 92.8632 101.823 81.8192L102.806 78.532C102.806 78.532 101.545 81.0624 99.7297 83.4037L99.7549 83.38Z" fill="#0E0088"/><path d="M72.4199 90.2147C69.7721 88.914 67.6792 87.1167 66.1662 84.8701C65.5105 83.9005 64.981 82.8363 64.5019 81.7485L53.457 85.2012C54.2387 87.4951 55.2978 89.5999 56.6847 91.4681C57.2395 92.2249 57.8699 92.9107 58.5255 93.5729C62.8628 93.9986 73.5294 94.6607 83.9439 92.1776C83.3134 92.2249 82.683 92.2485 82.0274 92.2485C78.2701 92.2485 75.0676 91.5627 72.4199 90.262V90.2147Z" fill="#0E0088"/><path d="M81.1959 65.3597C81.1959 65.3597 103.487 58.3833 104.723 57.9813C104.622 56.0894 104.269 54.2684 103.689 52.7312C102.756 50.3664 101.394 48.3798 99.5536 46.819C97.738 45.2346 95.4685 44.0757 92.7703 43.2953C90.0721 42.5149 87.1218 42.1129 83.9445 42.1129C80.0107 42.1129 76.3291 42.846 72.824 44.4068C69.3441 45.944 66.2676 47.9778 63.6199 50.4846C60.9722 52.9914 58.7531 55.8292 57.0132 58.9745C55.2732 62.1198 54.1385 65.3124 53.6089 68.505C52.9533 72.478 53.0037 76.2382 53.735 79.7855C53.962 80.8497 54.2393 81.8429 54.5671 82.8125L61.6782 80.5895L76.0013 76.0963L65.3346 78.6031C64.8555 77.3733 64.4773 76.0726 64.2251 74.6773C63.4686 70.2787 63.9729 65.9273 64.9816 61.8833C66.1164 57.3664 68.5119 53.5589 71.6892 50.2954C73.3031 48.6163 75.1439 47.1737 77.1864 45.9204C79.229 44.667 81.3976 44.0521 83.6923 44.0758C87.1974 44.0758 89.8452 45.1163 91.5851 47.1501C94.3842 50.39 94.0816 56.184 91.5851 58.7617C89.7695 60.6536 83.188 64.7448 81.1202 65.3833L81.1959 65.3597Z" fill="#0E0088"/><path d="M211.262 96.7183C210.556 96.5527 209.951 96.3163 209.472 95.9615C208.993 95.6068 208.741 95.0629 208.69 94.3061C208.69 94.3061 210.758 81.7486 212.851 68.9309L202.134 72.2891L189.4 76.2857L201.983 73.3296C201.579 75.7891 201.176 78.2722 200.772 80.7317C200.369 83.2385 199.94 85.7453 199.537 88.252C199.335 89.5054 199.133 90.7588 198.931 92.0122C198.755 93.0764 198.704 94.0696 197.973 94.8737C197.318 95.6304 196.359 96.0561 195.376 96.4109C193.232 97.1913 190.913 97.4041 188.593 97.7116C187.206 97.9008 185.819 98.0899 184.432 98.2791L222.181 98.5156C220.139 98.2555 212.775 97.0257 211.288 96.7183H211.262Z" fill="#0E0088"/><path d="M270.95 90.9953C269.942 91.7048 268.479 92.0596 266.613 92.0596C264.974 92.0596 263.612 91.492 262.528 90.3805C261.444 89.269 261.166 86.9987 261.746 83.5696C262.175 80.9682 262.578 78.6034 262.982 76.4277C263.385 74.252 263.738 72.1472 264.066 70.0898C264.369 68.2452 264.697 66.306 265.05 64.3195L278.238 59.0221L265.251 63.0661L263.284 63.681H263.183V63.7046L254.711 66.3533C253.828 66.8026 252.744 67.3229 251.458 67.8905C250.172 68.458 248.709 69.1438 247.02 69.9243C245.33 70.7283 243.363 71.6742 241.094 72.8094C238.824 73.9445 236.202 75.2925 233.251 76.877C230.301 78.4614 227.729 80.2351 225.56 82.2216C223.392 84.1845 222.156 86.2419 221.803 88.3703C221.475 90.3568 221.551 92.0359 222.03 93.4075C222.509 94.7792 223.215 95.9143 224.173 96.7893C225.132 97.6643 226.266 98.2792 227.552 98.6339C228.838 98.9887 230.15 99.1542 231.461 99.1778C233.655 99.1778 235.748 98.8704 237.69 98.2319C239.631 97.5933 241.447 96.742 243.136 95.6778C244.826 94.6136 246.314 93.4785 247.625 92.2724C248.936 91.0663 249.995 89.9548 250.802 88.9615L251.029 89.0798C250.399 92.8872 251.054 95.5596 252.971 97.0967C254.887 98.6339 257.232 99.4143 260.006 99.4143C261.721 99.4143 263.335 99.1542 264.873 98.5866C266.386 98.0191 267.773 97.1913 269.034 96.0798C270.269 94.992 271.328 93.7386 272.211 92.367C273.094 90.9953 273.674 89.6001 274.001 88.1338H273.27C272.766 89.269 271.984 90.2149 270.975 90.9244L270.95 90.9953ZM251.559 85.8162C251.357 87.1169 250.676 88.1811 249.567 89.0088C247.953 90.3095 246.314 91.1609 244.599 91.6102C242.884 92.0596 240.968 92.2724 238.849 92.2724C236.479 92.2724 234.689 91.4447 233.478 89.8366C232.268 88.2284 231.814 86.4311 232.142 84.4446C232.47 82.4581 233.504 80.6845 235.269 79.1473C237.034 77.5865 239.076 76.1675 241.371 74.8905C243.666 73.6134 246.011 72.4074 248.407 71.3195C250.802 70.2317 252.794 69.1911 254.433 68.1979L251.559 85.8162Z" fill="#0E0088"/><path d="M268.883 46.8193C268.303 45.2821 267.168 44.0051 265.454 42.9645C263.739 41.924 261.823 41.4037 259.704 41.3801C258.645 41.3801 257.233 41.5929 255.493 42.0422C253.753 42.4916 251.812 43.0828 249.668 43.8395C247.55 44.5963 245.28 45.495 242.91 46.5592C240.54 47.6234 238.195 48.7112 235.875 49.8464C235.169 50.2247 234.336 50.6504 233.403 51.0997C232.47 51.5491 231.588 52.093 230.756 52.6842C230.68 52.7315 230.604 52.8025 230.529 52.8734L227.906 54.5052L226.242 64.7215L226.318 64.5559C227.654 62.9951 233.782 55.7113 239.783 50.7214C240.515 50.1301 241.347 49.4207 242.431 48.7822C243.515 48.1436 244.726 47.6234 246.062 47.1977C247.399 46.7957 248.71 46.5828 250.021 46.5828C251.988 46.5828 253.526 46.8429 254.686 47.3632C255.821 47.8598 256.704 48.4274 257.309 49.0423C257.914 49.6572 258.292 50.2484 258.494 50.816C258.696 51.3835 258.771 51.7619 258.746 51.9038L256.83 63.6336L267.37 60.3228C267.748 58.2653 268.127 56.0423 268.53 53.5592C268.732 52.2585 268.908 50.9578 269.06 49.6099C269.186 48.2855 269.135 47.3396 268.908 46.7956L268.883 46.8193Z" fill="#0E0088"/><path d="M296.293 23.9743C296.621 24.5182 296.596 25.1567 296.495 25.7243C296.092 27.9236 295.789 30.1466 295.411 32.346C294.251 39.4406 293.091 46.5352 291.906 53.6535C291.553 55.7819 289.888 65.8327 289.157 70.3023L299.899 66.9442L308.473 14.7749C308.473 14.7749 289.611 20.1431 284.921 21.4911C287.947 21.3256 294.2 20.4506 296.268 23.9743H296.293Z" fill="#0E0088"/><path d="M296.898 97.2383C296.192 97.0728 295.587 96.8363 295.108 96.4816C294.628 96.1268 294.376 95.5829 294.326 94.8262C294.326 94.8262 296.394 82.2686 298.487 69.4509L287.77 72.8091L275.035 76.8057L287.618 73.8496C287.215 76.3091 286.811 78.7922 286.408 81.2517C286.004 83.7585 285.576 86.2652 285.172 88.772C284.97 90.0254 284.769 91.2788 284.567 92.5322C284.391 93.5964 284.34 94.5896 283.609 95.3937C282.953 96.1505 281.995 96.5762 281.012 96.9309C278.868 97.7113 276.548 97.9241 274.228 98.2316C272.841 98.4207 271.454 98.6099 270.068 98.7991L307.817 99.0356C305.774 98.7755 298.411 97.5457 296.923 97.2383H296.898Z" fill="#0E0088"/></g><defs><filter id="filter0_d_13_248" x="0" y="0" width="405" height="107.879" filterUnits="userSpaceOnUse" color-interpolation-filters="sRGB"><feFlood flood-opacity="0" result="BackgroundImageFix"/><feColorMatrix in="SourceAlpha" type="matrix" values="0 0 0 0 0 0 0 0 0 0 0 0 0 0 0 0 0 0 127 0" result="hardAlpha"/><feOffset dy="4"/><feGaussianBlur stdDeviation="2"/><feComposite in2="hardAlpha" operator="out"/><feColorMatrix type="matrix" values="0 0 0 0 0 0 0 0 0 0 0 0 0 0 0 0 0 0 0.25 0"/><feBlend mode="normal" in2="BackgroundImageFix" result="effect1_dropShadow_13_248"/><feBlend mode="normal" in="SourceGraphic" in2="effect1_dropShadow_13_248" result="shape"/></filter></defs></svg>