<svg width="67" height="12" viewBox="0 0 67 12" fill="none" xmlns="http://www.w3.org/2000/svg"><path d="M2.24596 5.89292C2.24596 6.15325 2.14501 6.38993 1.91789 6.57926C1.69078 6.76859 1.43842 6.86325 1.11036 6.86325C0.782303 6.86325 0.555181 6.76859 0.328063 6.57926C0.12618 6.38993 0 6.15325 0 5.89292C0 5.63258 0.100944 5.3959 0.328063 5.20657C0.555181 5.01724 0.807538 4.92258 1.11036 4.92258C1.43842 4.92258 1.69078 5.01724 1.91789 5.20657C2.11978 5.3959 2.24596 5.63258 2.24596 5.89292ZM2.24596 10.6262C2.24596 10.8865 2.14501 11.1232 1.91789 11.3126C1.69078 11.5019 1.43842 11.5965 1.11036 11.5965C0.782303 11.5965 0.555181 11.5019 0.328063 11.3126C0.12618 11.1232 0 10.8865 0 10.6262C0 10.3422 0.100944 10.1056 0.328063 9.91624C0.555181 9.72691 0.807538 9.63225 1.11036 9.63225C1.43842 9.63225 1.69078 9.72691 1.91789 9.91624C2.11978 10.1056 2.24596 10.3422 2.24596 10.6262Z" fill="black"/><path d="M16.1758 9.39556C15.8982 9.39556 15.6459 9.34821 15.3683 9.22988C15.1159 9.13521 14.914 8.96952 14.7879 8.75652C14.485 8.99318 14.1822 9.15888 13.8794 9.22988C13.5766 9.32454 13.2738 9.34818 12.9709 9.34818C12.5924 9.34818 12.2643 9.27719 11.9363 9.13519C11.6082 8.99319 11.3559 8.80389 11.1287 8.56722C10.9016 8.33056 10.725 8.07023 10.5988 7.76257C10.4726 7.45491 10.3969 7.14726 10.3969 6.81593C10.3969 6.31893 10.4726 5.84557 10.6493 5.37224C10.8259 4.89891 11.053 4.4966 11.3559 4.14161C11.6587 3.78661 12.0372 3.50258 12.4915 3.28958C12.9205 3.07658 13.4252 2.95829 13.9803 2.95829C14.3084 2.95829 14.6112 3.00564 14.9393 3.12397C15.2673 3.2423 15.5197 3.40797 15.7468 3.64463C15.8225 3.40797 15.9487 3.24225 16.1254 3.14759C16.3272 3.05292 16.5039 3.02931 16.7058 3.05297C16.9076 3.07664 17.0591 3.17125 17.16 3.28958C17.2609 3.40791 17.3114 3.5736 17.2357 3.76294L16.1001 7.54958C16.0244 7.78625 16.1001 7.90456 16.302 7.90456C16.5039 7.90456 16.7058 7.85721 16.9581 7.73888C17.1852 7.62055 17.4124 7.4549 17.6395 7.24191C17.8666 7.02891 18.018 6.7449 18.1694 6.41357C18.3208 6.08224 18.3965 5.72724 18.4218 5.30124C18.4218 4.75691 18.3208 4.25991 18.0937 3.81024C17.8666 3.36058 17.5385 2.95825 17.16 2.62692C16.7562 2.29559 16.302 2.03532 15.772 1.86965C15.2421 1.70398 14.6869 1.60928 14.1065 1.60928C13.4252 1.60928 12.8195 1.7276 12.2391 1.96426C11.6587 2.20093 11.154 2.50858 10.725 2.91091C10.296 3.31324 9.94268 3.78658 9.71556 4.33091C9.46321 4.87524 9.33703 5.46695 9.33703 6.08227C9.33703 6.6976 9.46321 7.26555 9.71556 7.80988C9.96792 8.3542 10.296 8.82753 10.7502 9.20619C11.1792 9.60852 11.7092 9.91624 12.3148 10.1529C12.9205 10.3896 13.5766 10.5079 14.2832 10.5079C14.6617 10.5079 14.9645 10.5078 15.2421 10.4605C15.5197 10.4132 15.7973 10.3659 16.0496 10.2949C16.302 10.2239 16.5796 10.1529 16.8319 10.0345C17.0843 9.93986 17.3619 9.82155 17.6899 9.67955C18.018 9.53755 18.3208 9.49022 18.5479 9.53755C18.7751 9.58489 18.9265 9.70323 19.0022 9.84523C19.0779 9.98723 19.0779 10.2002 19.0022 10.4132C18.9012 10.6262 18.7246 10.8155 18.4218 10.9812C17.9928 11.2178 17.4376 11.4308 16.731 11.6438C16.0496 11.8568 15.1916 11.9515 14.157 11.9515C13.198 11.9515 12.3148 11.8095 11.5325 11.5255C10.725 11.2415 10.0436 10.8392 9.48844 10.3185C8.90803 9.79785 8.47903 9.18253 8.15097 8.47253C7.82291 7.76254 7.67149 6.95788 7.67149 6.10589C7.67149 5.2539 7.82291 4.52029 8.15097 3.78663C8.47903 3.07663 8.90803 2.4376 9.51368 1.89327C10.0941 1.34894 10.7754 0.922995 11.583 0.615332C12.3905 0.307668 13.2485 0.141974 14.2075 0.141974C15.0907 0.141974 15.9235 0.283955 16.6553 0.567953C17.3871 0.85195 18.018 1.23064 18.5227 1.70397C19.0526 2.1773 19.4312 2.72161 19.7088 3.31327C19.9864 3.9286 20.1125 4.54392 20.1125 5.15925C20.0873 5.96391 19.9359 6.65025 19.6331 7.17091C19.3555 7.71524 19.0274 8.14125 18.6236 8.44892C18.2199 8.75658 17.8161 8.99324 17.3871 9.11157C16.9581 9.25357 16.5544 9.30087 16.2011 9.30087L16.1758 9.39556ZM15.2673 5.27755C15.1664 5.04089 15.015 4.85155 14.8131 4.68589C14.6112 4.52022 14.3589 4.4729 14.0308 4.4729C13.7028 4.4729 13.4504 4.54389 13.2233 4.68589C12.9962 4.82789 12.7943 5.01725 12.6176 5.23024C12.4662 5.44324 12.34 5.70359 12.2391 5.98759C12.1382 6.27158 12.1129 6.53193 12.1129 6.81593C12.1129 7.17092 12.2139 7.43122 12.4157 7.66788C12.6176 7.88088 12.8448 7.99925 13.0971 7.99925C13.4756 7.99925 13.8037 7.92826 14.0561 7.78626C14.3084 7.64426 14.5103 7.50221 14.6365 7.36021L15.2421 5.32493L15.2673 5.27755Z" fill="black"/><path d="M23.1662 10.6262C23.1662 10.8865 23.0905 11.0996 22.9139 11.2652C22.7372 11.4309 22.5101 11.5255 22.2073 11.5255C21.9297 11.5255 21.6774 11.4309 21.5259 11.2652C21.3493 11.0996 21.2736 10.8865 21.2736 10.6262V0.875647C21.2736 0.615316 21.3493 0.402344 21.5259 0.236679C21.7026 0.0710138 21.9297 0 22.2073 0C22.5101 0 22.7372 0.0946802 22.9139 0.236679C23.0905 0.402344 23.1662 0.615316 23.1662 0.875647V10.6262Z" fill="black"/><path d="M31.9478 7.31318C31.9478 7.8575 31.5945 8.14152 30.9131 8.14152H25.967C26.0175 8.68584 26.2446 9.11183 26.6231 9.46683C27.0017 9.82183 27.5316 9.9875 28.1877 9.9875C28.4653 9.9875 28.6924 9.98745 28.8943 9.94012C29.0962 9.89278 29.2728 9.86912 29.4495 9.79812C29.6261 9.72712 29.7775 9.65616 29.929 9.53783C30.0804 9.44316 30.2318 9.32484 30.4084 9.18285C30.686 8.96985 30.9384 8.87519 31.1402 8.89886C31.3421 8.89886 31.4935 9.01716 31.5945 9.15916C31.6954 9.30115 31.7459 9.49051 31.7459 9.70351C31.7459 9.91651 31.6702 10.1058 31.5188 10.2715C31.2412 10.5791 30.787 10.8631 30.2065 11.1234C29.6261 11.3838 28.9448 11.5258 28.2129 11.5258C27.4811 11.5258 26.8755 11.4075 26.3708 11.1708C25.8408 10.9342 25.4371 10.6265 25.0838 10.2478C24.7305 9.86913 24.5033 9.4195 24.3519 8.94617C24.2005 8.44917 24.1248 7.95214 24.1248 7.43148C24.1248 6.24816 24.4781 5.30154 25.1595 4.59155C25.8408 3.88156 26.8502 3.50284 28.1372 3.50284C28.7934 3.50284 29.3738 3.59752 29.8532 3.81052C30.3327 4.02352 30.7365 4.30755 31.0645 4.66255C31.3926 5.01754 31.6197 5.44351 31.7459 5.89318C31.8973 6.3665 31.9478 6.83982 31.9478 7.36048V7.31318ZM30.1308 6.8162C30.1308 6.6032 30.0551 6.36654 29.9794 6.15354C29.8785 5.94055 29.7523 5.72753 29.6009 5.53819C29.4243 5.34886 29.2224 5.20686 28.9952 5.08853C28.7681 4.97019 28.4653 4.92284 28.1625 4.92284C27.4811 4.92284 26.9764 5.11222 26.5979 5.49089C26.2194 5.86955 26.0175 6.31918 25.9418 6.79251H30.1308V6.8162Z" fill="black"/><path d="M39.0396 9.08799C39.0396 9.51398 38.9387 9.89265 38.762 10.2003C38.5854 10.508 38.3078 10.7683 38.005 10.9577C37.6769 11.147 37.3236 11.289 36.9198 11.3836C36.5161 11.4783 36.1123 11.5256 35.7338 11.5256C35.3048 11.5256 34.8758 11.4783 34.472 11.3836C34.0682 11.289 33.6897 11.1706 33.3617 11.005C33.0336 10.8393 32.7812 10.6736 32.6046 10.4843C32.4279 10.295 32.327 10.0819 32.327 9.86895C32.327 9.63228 32.4279 9.44298 32.6046 9.30098C32.7812 9.15898 32.9831 9.08799 33.2102 9.08799C33.4374 9.08799 33.5888 9.13532 33.7402 9.22998C33.8916 9.32465 34.043 9.41932 34.1944 9.53766C34.3711 9.65599 34.573 9.75067 34.8001 9.84533C35.0272 9.94 35.3553 9.98732 35.7843 9.98732C36.2385 9.98732 36.5918 9.89262 36.8189 9.72696C37.046 9.53762 37.147 9.37196 37.147 9.20629C37.147 9.06429 37.0965 8.94598 36.9955 8.85131C36.8946 8.75664 36.7937 8.66201 36.6675 8.59101C36.5413 8.52001 36.3899 8.44897 36.2385 8.40164C36.0871 8.35431 35.9609 8.30698 35.8347 8.25965C35.5067 8.16498 35.1281 8.04669 34.7496 7.92836C34.3711 7.81002 33.9925 7.66802 33.6645 7.47869C33.3364 7.28936 33.0588 7.07634 32.8317 6.79234C32.6046 6.53201 32.5036 6.17701 32.5036 5.75101C32.5036 5.32502 32.5793 4.99366 32.756 4.68599C32.9326 4.37833 33.1598 4.14167 33.4626 3.95234C33.7654 3.76301 34.1187 3.62103 34.4972 3.52636C34.8758 3.43169 35.2795 3.38437 35.7086 3.38437C36.0114 3.38437 36.3394 3.40805 36.6927 3.47905C37.046 3.55005 37.3741 3.64473 37.7021 3.78673C38.005 3.92873 38.2826 4.09437 38.4844 4.2837C38.6863 4.47304 38.7873 4.7097 38.7873 4.94636C38.7873 5.15936 38.7116 5.32505 38.5601 5.49072C38.4087 5.65638 38.1816 5.7037 37.904 5.7037C37.7021 5.7037 37.5507 5.65633 37.4245 5.58533C37.2984 5.49066 37.147 5.4197 36.9955 5.32503C36.8441 5.23037 36.6675 5.13566 36.4656 5.06466C36.2637 4.97 36.0114 4.94636 35.7086 4.94636C35.3048 4.94636 35.002 5.01735 34.7748 5.15935C34.5477 5.30135 34.4215 5.46702 34.4215 5.68002C34.4215 5.79835 34.472 5.89302 34.5729 5.98769C34.6739 6.08236 34.7748 6.15337 34.9262 6.22437C35.0524 6.29537 35.2038 6.36634 35.3552 6.41367C35.5067 6.461 35.6076 6.50838 35.7086 6.53204C36.0366 6.65038 36.4151 6.76865 36.7937 6.91064C37.1722 7.02898 37.5507 7.19465 37.8788 7.36031C38.2068 7.54964 38.4844 7.76264 38.7115 8.02297C38.9134 8.2833 39.0396 8.6383 39.0396 9.0643V9.08799Z" fill="black"/><path d="M43.6325 4.1416C43.6325 4.40193 43.5315 4.59123 43.3549 4.70957C43.1782 4.8279 42.9511 4.89894 42.6483 4.89894H42.3202V10.6499C42.3202 10.9102 42.2445 11.1232 42.0679 11.2888C41.8912 11.4545 41.6641 11.5255 41.3613 11.5255C41.0584 11.5255 40.8313 11.4308 40.6547 11.2888C40.478 11.1468 40.4023 10.9102 40.4023 10.6499V4.89894H40.0995C39.7967 4.89894 39.5696 4.8279 39.3929 4.70957C39.2163 4.59123 39.1153 4.40193 39.1153 4.1416C39.1153 3.90493 39.191 3.71562 39.3677 3.57362C39.5443 3.43162 39.7714 3.36056 40.049 3.36056H40.3518V1.98794C40.3518 1.72761 40.4275 1.51464 40.6042 1.34897C40.7808 1.18331 41.008 1.11229 41.3108 1.11229C41.6136 1.11229 41.8407 1.20697 42.0174 1.34897C42.194 1.51464 42.2697 1.72761 42.2697 1.98794V3.36056H42.5978C42.9006 3.36056 43.1277 3.43162 43.3044 3.57362C43.481 3.71562 43.582 3.90493 43.582 4.1416H43.6325Z" fill="black"/><path d="M46.5342 1.72762C46.5342 2.01162 46.4333 2.24832 46.2314 2.43766C46.0295 2.62699 45.7519 2.72164 45.4491 2.72164C45.1463 2.72164 44.8687 2.62699 44.6416 2.43766C44.4145 2.24832 44.3135 2.01162 44.3135 1.72762C44.3135 1.44362 44.4145 1.23068 44.6416 1.04134C44.8687 0.852012 45.1211 0.757358 45.4491 0.757358C45.7772 0.757358 46.0295 0.852012 46.2314 1.04134C46.4333 1.23068 46.5342 1.46729 46.5342 1.72762ZM46.3828 10.6262C46.3828 10.8866 46.3071 11.1233 46.1305 11.2653C45.9538 11.4309 45.7267 11.5019 45.4491 11.5019C45.1463 11.5019 44.9192 11.4073 44.7425 11.2653C44.5659 11.0996 44.4902 10.8866 44.4902 10.6262V4.35463C44.4902 4.0943 44.5659 3.88133 44.7425 3.71566C44.9192 3.55 45.1463 3.45529 45.4491 3.45529C45.7267 3.45529 45.9791 3.55 46.1305 3.71566C46.3071 3.88133 46.3828 4.0943 46.3828 4.35463V10.6262Z" fill="black"/><path d="M55.4167 10.6739C55.4167 10.9815 55.3158 11.1945 55.1139 11.3128C54.912 11.4548 54.7101 11.5258 54.5335 11.5258C54.3568 11.5258 54.155 11.4548 53.9783 11.3365C53.8017 11.2182 53.6755 11.0288 53.6502 10.7685C53.0698 11.2655 52.3632 11.5258 51.5809 11.5258C50.9248 11.5258 50.3696 11.4075 49.8902 11.1708C49.4107 10.9342 49.0069 10.6265 48.6789 10.2478C48.3508 9.86914 48.0985 9.44317 47.9471 8.94618C47.7956 8.44918 47.7199 7.95215 47.7199 7.43149C47.7199 6.91083 47.7956 6.43756 47.9471 5.94056C48.0985 5.46724 48.3508 5.04122 48.6789 4.66256C49.0069 4.30756 49.4107 3.99991 49.8902 3.78691C50.3696 3.57391 50.9248 3.45554 51.5809 3.45554C52.3885 3.45554 53.0698 3.69223 53.6502 4.14189C53.6755 3.88156 53.8017 3.71587 53.9783 3.59754C54.1802 3.50287 54.3568 3.43186 54.5335 3.43186C54.7354 3.43186 54.912 3.5029 55.1139 3.62123C55.3158 3.73956 55.4167 3.95253 55.4167 4.2602V10.6265V10.6739ZM53.6755 7.45518C53.6755 7.12385 53.625 6.8162 53.5493 6.50854C53.4736 6.20087 53.3222 5.94055 53.1455 5.70389C52.9689 5.46722 52.767 5.27784 52.4894 5.13584C52.2371 4.99384 51.9342 4.92285 51.6062 4.92285C51.2276 4.92285 50.9248 4.99384 50.6725 5.13584C50.4201 5.27784 50.193 5.46722 50.0164 5.70389C49.8397 5.94055 49.7135 6.20087 49.6378 6.50854C49.5621 6.79253 49.5116 7.10021 49.5116 7.40787C49.5116 7.71554 49.5621 8.04685 49.6378 8.35452C49.7135 8.66218 49.8397 8.94614 50.0164 9.20647C50.193 9.44314 50.3949 9.65616 50.6725 9.82182C50.9248 9.98749 51.2529 10.0585 51.6062 10.0585C51.9342 10.0585 52.2118 9.98751 52.4642 9.84551C52.7165 9.70351 52.9436 9.49052 53.1203 9.25385C53.2969 9.01719 53.4231 8.73318 53.5241 8.42551C53.625 8.11785 53.6755 7.81015 53.6755 7.50249V7.45518Z" fill="black"/><path d="M58.9251 10.6262C58.9251 10.8865 58.8494 11.0996 58.6727 11.2652C58.4961 11.4309 58.269 11.5255 57.9662 11.5255C57.6886 11.5255 57.4362 11.4309 57.2848 11.2652C57.1081 11.0996 57.0324 10.8865 57.0324 10.6262V0.875647C57.0324 0.615316 57.1081 0.402344 57.2848 0.236679C57.4614 0.0710138 57.6886 0 57.9662 0C58.269 0 58.4961 0.0946802 58.6727 0.236679C58.8494 0.402344 58.9251 0.615316 58.9251 0.875647V10.6262Z" fill="black"/><path d="M66.9998 4.26C66.9998 4.26 66.9998 4.44937 66.9494 4.52037C66.8989 4.59137 66.8736 4.70969 66.8232 4.80436L64.4006 10.792C64.3249 11.005 64.2239 11.1706 64.0978 11.2889C63.9716 11.4073 63.7445 11.4783 63.4416 11.4783C63.1136 11.4783 62.9117 11.4073 62.7603 11.2889C62.6341 11.1706 62.5332 11.005 62.4575 10.792L60.0349 4.80436C60.0349 4.80436 59.9591 4.61504 59.9087 4.52037C59.8582 4.42571 59.8582 4.331 59.8582 4.26C59.8582 3.99967 59.9591 3.81034 60.1358 3.66834C60.3124 3.52635 60.5143 3.45535 60.7415 3.45535C61.0695 3.45535 61.2966 3.52639 61.4228 3.64473C61.549 3.76306 61.6499 3.92866 61.7256 4.09432L63.4164 8.61462L65.0819 4.09432C65.1576 3.92866 65.2333 3.78673 65.3847 3.64473C65.5109 3.52639 65.7381 3.45535 66.0661 3.45535C66.2932 3.45535 66.4951 3.52635 66.6718 3.66834C66.8484 3.81034 66.9494 3.99967 66.9494 4.26H66.9998Z" fill="black"/></svg>