<svg width="142" height="56" viewBox="0 0 142 56" fill="none" xmlns="http://www.w3.org/2000/svg"><path d="M103.89 39.2561C103.727 38.9503 103.646 38.3006 103.646 37.2685C103.646 36.2365 103.646 35.1662 103.646 34.1342C103.646 32.9875 103.646 32.6817 103.646 31.879C103.646 30.3119 106.173 29.1652 106.173 29.1652C106.173 29.1652 103.646 28.0185 103.646 26.4514C103.646 26.1074 103.646 25.7633 103.646 25.4575C103.646 24.9224 102.26 24.1961 101.2 24.005C100.508 23.8521 99.8962 23.6611 99.1218 23.2024C98.3067 22.7055 97.6546 21.9028 97.6546 21.9028C97.6546 21.9028 98.6736 24.1197 98.7551 25.8398C98.7551 26.0691 98.7551 26.2602 98.7551 26.4895C98.7551 28.0185 96.228 29.1652 96.228 29.1652C96.228 29.1652 98.7957 30.3119 98.7957 31.879C98.7957 33.4844 98.7957 35.0516 98.7957 36.6569C98.7957 37.7654 98.7142 38.7593 98.5512 38.9886C98.5104 39.0651 98.1436 39.7149 97.2877 39.8295C97.6953 39.8295 98.1028 39.906 98.3066 39.906C100.263 40.1353 102.26 40.3646 104.216 40.6322C104.42 40.6322 105.48 40.8233 106.091 40.8998C105.113 40.4793 104.787 40.2881 104.502 39.9824C104.257 39.753 104.054 39.3708 104.013 39.2561H103.89Z" fill="url(#paint0_linear_13_865)"/><path d="M93.5788 16.9716C93.5788 16.9716 93.5788 17.0862 93.5788 17.1626C93.4973 18.3475 92.9267 19.2268 91.8671 19.8766C91.378 20.1441 90.8887 20.3351 90.3588 20.3734C90.5218 21.4054 90.6034 22.5522 90.6849 23.7753C90.6849 25.3042 88.1988 26.451 88.1988 26.451C88.1988 26.451 90.6442 27.5976 90.6849 29.1265C90.5627 31.4964 90.2367 33.4076 89.7476 34.9366C89.0547 37.0771 88.2396 38.1091 87.2615 38.0326C86.3648 37.9562 85.5495 36.9241 84.8159 34.8218C84.3268 33.3311 83.96 31.4582 83.7969 29.1265C83.7969 27.5594 86.1201 26.451 86.1201 26.451C86.1201 26.451 83.7156 25.3425 83.6748 23.8136C83.7971 20.641 84.2453 18.0418 85.0604 16.0924C85.2642 15.6337 85.4682 15.2132 85.7535 14.9075C85.998 14.5634 86.2833 14.3341 86.5279 14.1812C86.7724 14.0283 87.0575 13.9137 87.302 13.9137C87.9134 13.9137 88.3618 14.1047 88.6879 14.6399C88.9732 15.1368 88.9732 15.7483 88.7287 16.4364C88.4841 17.1244 87.9951 17.6977 87.2615 18.1182C87.7098 18.7298 88.2802 19.1503 88.8916 19.3796C89.503 19.609 90.0737 19.6089 90.6036 19.456C91.1334 19.3032 91.5816 18.9973 91.9892 18.5769C92.3968 18.1564 92.6007 17.6596 92.6415 17.0862C92.7637 15.7102 92.2338 14.6017 91.0519 13.7225C89.8699 12.8434 88.5655 12.4612 87.0983 12.5759C86.0386 12.5759 85.0197 12.8435 84.0415 13.4168C83.0633 13.9902 82.1668 14.7928 81.3924 15.863C80.618 16.9333 79.9658 18.3093 79.4767 20.0294C78.9876 21.7494 78.7431 23.6606 78.7431 25.8011C78.7431 27.9034 78.9468 29.8146 79.4359 31.5346C79.925 33.2547 80.5773 34.6689 81.3924 35.7774C82.2076 36.8858 83.1449 37.7268 84.1231 38.3766C85.142 39.0264 86.2016 39.3704 87.302 39.4469C88.4025 39.5233 89.5031 39.3704 90.522 38.9117C91.5409 38.453 92.4783 37.7268 93.2935 36.6948C94.1086 35.701 94.7606 34.3249 95.2497 32.6049C95.7388 30.8848 95.9428 28.9354 95.9428 26.7567C95.9428 22.8579 95.1682 19.609 93.7417 17.0862L93.5788 16.9716Z" fill="url(#paint1_linear_13_865)"/><path d="M16.7512 44.6072C16.7919 44.0721 16.8328 43.4987 16.8328 42.9253C15.7731 43.4222 14.795 43.6133 13.8984 43.4604C13.0017 43.2693 12.2273 42.8489 11.616 42.0844C11.0046 41.3582 10.4339 40.4408 9.94479 39.4087C9.4557 38.3385 9.04822 37.1536 8.76292 35.854C8.47762 34.5544 8.23293 33.3313 8.11066 32.1463C8.11066 32.0317 8.11066 31.917 8.11066 31.8023C8.11066 30.2734 10.4339 29.1267 10.4339 29.1267C10.4339 29.1267 7.98844 27.9418 7.90693 26.4128C7.94768 24.9986 8.07006 23.6225 8.27385 22.2082C8.55915 19.9913 9.00751 18.0037 9.57811 16.2072C10.1487 14.4107 10.9231 12.9582 11.8605 11.8879C12.7979 10.8176 13.8575 10.2826 15.0395 10.3208C15.8954 10.3208 16.5883 10.6266 17.1997 11.2382C17.7703 11.8497 18.1778 12.5378 18.3408 13.3787C18.5038 14.2196 18.5038 15.0223 18.3408 15.825C18.1778 16.4366 17.9332 16.9717 17.5664 17.4686C17.1996 17.9655 16.792 18.386 16.3029 18.6918C15.8138 18.9976 15.3248 19.2269 14.7949 19.3798C15.121 20.3736 15.6509 21.0615 16.3845 21.4437C17.1181 21.826 17.8925 21.9407 18.6669 21.7878C19.4413 21.635 20.2156 21.2144 20.9085 20.6411C21.6421 20.0295 22.1312 19.3415 22.4165 18.5006C22.6611 17.8508 22.7834 17.1628 22.7834 16.4747C22.7834 15.7485 22.7019 15.0223 22.5389 14.3343C22.3351 13.608 22.0497 12.92 21.6421 12.2702C21.2345 11.6204 20.7047 11.0088 20.0933 10.5119C19.482 10.015 18.7484 9.59461 17.8925 9.2506C16.9959 8.94481 16.0584 8.79182 15.0395 8.79182C13.4092 8.79182 11.8604 9.17405 10.4747 9.97674C9.08891 10.7794 7.90696 11.8115 6.92879 13.1493C5.95062 14.4872 5.13553 16.0543 4.44265 17.889C3.74978 19.6855 3.26071 21.5967 2.93465 23.5843C2.77163 24.6164 2.64924 25.6483 2.56773 26.7186C2.36394 28.1711 0 29.2413 0 29.2413C0 29.2413 2.56773 30.388 2.56773 31.9552C2.69 33.1783 2.85305 34.3632 3.09759 35.5482C3.50517 37.4593 4.15737 39.1412 4.97252 40.5937C5.78767 42.0461 6.76568 43.2311 7.86613 44.1103C8.96657 44.9894 10.3117 45.4862 11.8605 45.6009C13.4093 45.7156 15.0394 45.4098 16.792 44.6836L16.7512 44.6072Z" fill="url(#paint2_linear_13_865)"/><path d="M23.1913 30.579C23.2321 30.8465 23.395 31.1141 23.395 31.3816C23.395 31.6874 23.3951 31.9932 23.1913 32.2226C22.7837 32.7577 21.8871 32.9106 21.235 32.7959C20.0938 32.6048 19.0342 31.8786 18.219 31.1142C17.5669 30.5408 17.0371 29.5087 15.9366 29.6234C15.3253 29.6998 14.8361 30.1203 14.5916 30.6554C14.5508 30.7701 14.4284 31.4198 14.7137 31.955C15.162 30.9612 16.4663 31.1523 17.0777 31.955C17.4038 32.3754 17.526 32.9489 17.526 33.484C17.5667 34.2102 17.6076 34.9365 17.6484 35.6245C17.7299 38.453 17.6482 41.2815 17.526 44.1101C17.4445 46.1359 17.1594 48.3911 16.222 50.2258C16.0182 50.6081 15.7736 50.952 15.4068 51.2196C14.7139 51.7165 13.8579 51.4489 13.7356 50.608C13.6541 49.9964 13.8579 49.4613 14.2654 49.0027C14.5915 48.6204 14.999 48.3528 15.4881 48.2381C15.4881 47.4354 15.1621 46.9004 14.51 46.6328C13.6948 46.3653 12.9206 46.6328 12.1054 47.3591C11.0865 48.3147 10.7196 49.6524 11.0049 51.3342C11.1272 52.0987 11.494 52.672 12.0238 53.0161C13.4503 53.8952 15.5289 53.1307 16.8332 52.4045C18.2189 51.64 19.4417 50.5698 20.2161 49.2702C22.3762 45.8684 22.3762 41.6256 22.4577 37.8032C22.4577 36.8094 22.3353 35.8155 22.6206 34.8217C22.7837 34.2101 23.1912 33.8661 23.6396 33.4075C24.414 32.643 23.9657 31.1905 23.1913 30.5407V30.579Z" fill="url(#paint3_linear_13_865)"/><path d="M54.8184 16.4364C53.0251 16.4364 50.3758 18.921 50.3758 20.6028C50.3758 18.921 47.7267 16.4364 45.9334 16.4364C47.7267 16.4364 50.3758 13.9519 50.3758 12.27C50.3758 13.9519 53.0251 16.4364 54.8184 16.4364Z" fill="url(#paint4_linear_13_865)"/><path d="M105.521 16.6661C103.727 16.6661 101.078 19.5329 101.078 21.4823C101.078 19.5711 98.429 16.6661 96.6357 16.6661C98.429 16.6661 101.078 13.7994 101.078 11.85C101.078 13.7612 103.727 16.6661 105.521 16.6661Z" fill="url(#paint5_linear_13_865)"/><path d="M32.8503 40.5554C32.4835 40.3261 32.1982 39.9822 32.076 39.5617C32.0352 39.1795 31.9944 38.6826 32.0352 38.0328C32.0759 34.2869 32.1168 30.5028 32.1575 26.7569C32.1575 26.3746 32.1576 25.8395 32.2391 25.1897C32.2799 24.4252 32.2391 23.6607 32.4429 22.8963C32.5244 22.4758 32.6875 22.0172 33.0135 21.7114C33.2988 21.4438 33.7062 21.0998 34.1138 21.3291C34.3991 21.482 34.5622 21.8261 34.6845 22.0936C34.7252 22.2083 34.7661 22.3612 34.8069 22.4759C34.8069 22.4759 35.3367 21.138 34.5623 20.3735C34.114 19.9148 33.4618 19.9149 32.9319 20.1442C32.6466 20.2589 32.4429 20.4883 32.2391 20.6794C31.9946 20.9087 31.7501 21.0998 31.5055 21.3291C30.6496 22.0936 29.7937 22.9346 28.6525 23.3168C28.0004 23.5079 27.3482 23.5079 26.7776 23.1639C26.3292 22.8963 25.9217 22.5523 25.5957 22.17C25.3919 21.9407 25.2288 21.6732 25.0658 21.4056C25.0658 21.4056 24.7805 22.4758 25.5141 23.5079C25.7179 23.7754 25.881 24.043 26.1255 24.2724C26.3701 24.5017 26.6554 24.6164 26.8999 24.8457C27.0222 24.9604 27.1037 25.1132 27.1445 25.2661C27.3075 25.6483 27.3483 26.0306 27.389 26.4129C27.389 27.98 24.8213 29.0884 24.8213 29.0884C24.8213 29.0884 27.3482 30.2352 27.3482 31.8024C27.3482 34.0958 27.3074 36.4274 27.2666 38.7591C27.2666 39.1795 27.2666 39.5617 27.2258 39.9057C27.1851 40.7848 25.6363 42.7343 23.9245 43.2694C23.9245 43.2694 26.9407 42.5431 29.4677 42.0845C30.1198 41.9698 30.7718 41.8551 31.4239 41.7405C33.6248 41.3965 35.2143 41.2435 35.2143 41.2435C35.2143 41.2435 33.9102 41.1288 32.9727 40.5554H32.8503Z" fill="url(#paint6_linear_13_865)"/><path d="M51.4358 43.6518C51.9248 43.4224 52.2917 43.0783 52.2917 42.4667C52.2917 42.4667 51.8435 43.002 51.0691 43.0402C49.8871 43.0402 48.8681 42.8108 47.9715 42.161C47.0341 41.5112 46.0967 40.4792 45.2 39.0649C44.6294 38.1476 43.9773 36.7333 43.1622 34.7457C42.347 32.7581 41.6949 31.3438 41.1651 30.4647C40.3907 29.2798 39.4938 28.4388 38.3934 27.9037C38.1488 27.7508 37.9045 27.6362 37.6192 27.5215C38.8012 27.0628 39.8607 26.4512 40.7166 25.8014C41.5725 25.1134 42.2655 24.4254 42.7139 23.6609C43.1622 22.9347 43.4474 22.1319 43.6104 21.3293C43.7327 20.5266 43.7326 19.7239 43.5288 18.9594C43.325 18.195 42.9584 17.4688 42.4285 16.7425C41.8987 16.0163 41.2464 15.4047 40.472 14.8314C39.6976 14.2962 38.7602 13.8375 37.6598 13.4553C36.5593 13.1112 35.3774 12.8819 34.1139 12.8437C32.4428 12.7672 30.8534 12.9584 29.3862 13.4553C27.9189 13.9139 26.7778 14.7167 25.8811 15.7869C24.9844 16.8572 24.6175 18.1185 24.7806 19.571C24.8213 20.2208 25.0658 20.7559 25.4734 21.2146C25.8809 21.6733 26.3294 21.9408 26.8592 22.0555C27.3891 22.1702 27.9596 22.0937 28.571 21.8262C29.1823 21.5586 29.7122 21.0235 30.1198 20.3355C29.1008 19.7622 28.5709 19.0742 28.5302 18.195C28.4894 16.9719 29.0193 15.9398 30.1198 15.1754C31.2202 14.4109 32.4836 14.1433 33.8286 14.3344C34.8067 14.5255 35.6627 14.946 36.3963 15.5958C37.1299 16.2455 37.6598 17.01 37.9859 17.8892C38.312 18.7683 38.475 19.724 38.475 20.7178C38.475 21.7116 38.3119 22.6671 37.9451 23.5463C37.619 24.4254 37.0485 25.2281 36.2742 25.9161C35.4998 26.6041 34.5624 27.0628 33.5027 27.2539C33.1766 27.3304 32.5243 27.2539 32.2798 27.2539C33.6248 28.3242 34.277 29.2033 34.9291 29.9678C35.5812 30.7322 36.1112 31.6114 36.6003 32.6434C37.0894 33.6372 37.5376 34.6692 38.0267 35.7013C38.475 36.7333 39.0457 37.7653 39.6571 38.8356C40.2684 39.9059 40.9613 40.7468 41.6542 41.3584C42.4693 42.0846 43.4067 42.7343 44.4664 43.193C45.6076 43.6899 46.8709 43.8811 48.0936 43.9575C48.5012 43.9575 48.9495 43.9958 49.3571 43.9958C49.9685 43.9958 50.8652 43.9576 51.4766 43.6518H51.4358Z" fill="url(#paint7_linear_13_865)"/><path d="M61.6657 38.7971C58.8534 38.4531 58.079 36.9624 58.0382 36.1597C58.0382 35.9686 58.0382 35.7774 58.0382 35.5481C58.0382 32.0316 58.079 28.5532 58.1198 25.0367C57.59 23.9282 57.1416 23.0109 56.8155 22.2465C56.8155 26.6804 56.7747 31.1525 56.7339 35.5864C56.7339 35.8921 56.7339 36.1597 56.7339 36.389C56.7339 36.4655 56.7339 36.5419 56.7339 36.6183C56.7339 36.6566 56.7339 36.6948 56.7339 36.733C56.5709 37.5739 56.0004 38.1091 55.5521 38.4148C55.063 38.7206 54.0849 38.8353 53.555 38.4531C53.555 38.4531 53.4734 38.4149 53.4326 38.3767C53.2288 38.1856 52.9843 37.8416 52.9436 37.7651C52.7805 37.4976 52.699 36.8477 52.699 35.8157C52.699 34.7837 52.699 33.7134 52.699 32.6813C52.699 32.2991 52.699 32.0316 52.699 31.764C52.699 30.2351 55.2667 29.0883 55.2667 29.0883C55.2667 29.0883 52.7398 27.9417 52.7398 26.3745C52.7398 25.3043 52.7399 24.6162 52.7806 23.9664C52.7806 23.4313 51.395 23.0108 50.3353 23.0108C49.6424 23.0108 49.031 22.9345 48.2566 22.6287C47.4415 22.2847 46.7894 21.6349 46.7894 21.6349C46.7894 21.6349 47.7676 23.6607 47.8083 25.3808C47.8083 25.7248 47.8083 26.107 47.8083 26.4892C47.6861 27.9799 45.2812 29.0883 45.2812 29.0883C45.2812 29.0883 47.8083 30.2351 47.8083 31.8023C47.8083 33.2548 47.8083 34.7455 47.7675 36.1979C47.7675 37.3064 47.6452 38.3385 47.4822 38.606C47.4007 38.6825 47.0339 39.4088 46.1779 39.7145C46.5855 39.6381 46.9931 39.5998 47.1969 39.5998C49.1125 39.4086 51.028 39.2176 52.9436 39.103C55.9596 38.8736 61.6249 38.759 61.6657 38.759V38.7971Z" fill="url(#paint8_linear_13_865)"/><path d="M83.1859 8.48615C82.5745 7.79813 81.474 7.75995 79.8437 8.29508C77.7651 9.02132 75.8087 11.4293 73.9747 15.481C73.3226 16.9335 72.1406 19.762 70.4288 23.8901C68.717 28.0565 67.5348 30.6939 66.9235 31.7641C66.9235 30.9615 66.6791 30.0441 66.2715 28.9357C65.8639 27.8272 65.4563 26.8333 64.9672 25.916C64.4781 24.9986 63.9075 23.8519 63.1739 22.4376C62.4403 21.0616 61.9105 19.9531 61.5029 19.1122C61.3399 18.6918 61.1769 18.2331 61.0547 17.7744C60.9324 17.3157 60.8507 16.8188 60.8507 16.3219C60.8507 15.825 60.8916 15.3664 61.0547 14.9842C61.2177 14.6019 61.4621 14.2579 61.8696 14.0286C62.2772 13.7992 62.7663 13.6845 63.4184 13.7227C63.989 13.7609 64.5189 14.0667 64.9672 14.5636C65.4155 15.0605 65.6601 15.6721 65.7008 16.3601C65.7008 17.0482 65.4563 17.7744 64.9264 18.5006C65.6601 18.73 66.3529 18.8065 66.9643 18.6536C67.5756 18.5007 68.0241 18.1566 68.3501 17.6215C68.6762 17.0863 68.7577 16.4365 68.6355 15.7103C68.5132 15.0605 68.187 14.4872 67.6979 13.9903C66.6382 12.8818 65.1302 12.3467 63.1331 12.3467C61.0545 12.3467 59.3835 12.9965 58.0792 14.1814C56.3267 15.825 55.9598 18.042 57.0603 20.7941C57.4679 21.7879 58.1202 23.2403 59.0168 25.0751C59.9135 26.9098 60.7285 28.5534 61.4214 29.9676C62.1142 31.3819 62.7257 32.9108 63.2963 34.5162C63.8669 36.1216 64.1115 37.4595 64.1115 38.4915C64.6006 38.1857 65.0896 37.6506 65.6195 36.9243C66.1493 36.1981 66.6383 35.4718 67.0459 34.7456C67.4942 33.9811 67.9833 32.9873 68.5539 31.6877C69.1245 30.3881 69.6135 29.3179 69.9803 28.4387C70.3471 27.5596 70.8364 26.3746 71.4885 24.8075C71.4885 28.2476 71.4885 31.6877 71.4885 35.1278C71.4885 36.4274 70.5102 38.6444 68.4723 38.8355C68.4723 38.8355 69.0429 39.2942 70.9992 38.4915C72.1812 37.9946 72.8742 37.8799 74.2192 37.8799C75.4419 37.8799 80.4142 38.9502 77.1944 41.1289C77.1944 41.1289 81.2703 39.4088 77.0723 37.383C76.787 37.2683 76.624 37.1536 76.5832 37.039C76.4202 36.7714 76.3387 36.1216 76.3387 35.1278C76.3387 34.0193 76.3387 32.8726 76.3387 31.7641C76.3387 30.8468 76.3387 29.9295 76.3387 29.0503C76.3387 27.4832 78.4987 26.3365 78.4987 26.3365C78.4987 26.3365 76.3387 25.1897 76.3387 23.6226C76.3387 21.138 76.3387 18.6153 76.3387 16.1308C76.3387 14.2961 76.9907 12.4613 78.2949 11.0853C79.1101 10.2444 79.8845 9.78572 80.6181 9.78572C81.0257 9.78572 81.3924 9.90042 81.7592 10.168C82.4521 10.2827 82.9819 10.1297 83.308 9.67106C83.5933 9.28883 83.5525 8.71549 83.2264 8.37148L83.1859 8.48615Z" fill="url(#paint9_linear_13_865)"/><path d="M134.254 50.4556C134.254 50.7232 133.969 50.9906 133.725 51.0671C133.154 51.1817 132.339 50.7232 131.891 50.4556C129.364 49.0796 128.019 46.2893 126.877 43.8812C126.307 42.6198 125.614 40.7469 124.758 38.2624C123.902 35.7778 123.209 34.0195 122.68 32.911C121.905 31.4203 120.968 30.2736 119.867 29.4709C119.623 29.2798 119.378 29.0504 119.093 28.8593C120.275 28.5918 121.294 28.1714 122.15 27.598C123.006 27.0247 123.658 26.3367 124.065 25.6104C124.514 24.846 124.758 24.0432 124.88 23.1258C125.003 22.2467 124.962 21.3294 124.717 20.4503C124.514 19.5711 124.106 18.692 123.576 17.8128C123.046 16.9719 122.394 16.2074 121.62 15.5194C120.845 14.8696 119.908 14.2963 118.808 13.8376C117.707 13.3789 116.525 13.1113 115.262 12.9967C113.591 12.8438 112.001 12.9967 110.575 13.3407C109.148 13.7229 107.966 14.4109 107.11 15.3665C106.254 16.3221 105.888 17.4688 106.091 18.8448C106.173 19.4564 106.417 19.9916 106.825 20.4503C107.232 20.9089 107.721 21.2529 108.251 21.444C108.781 21.6351 109.352 21.6351 109.963 21.444C110.575 21.2529 111.064 20.8325 111.471 20.1827C110.452 19.4947 109.882 18.7302 109.841 17.8893C109.759 16.6661 110.289 15.7488 111.39 15.0608C112.49 14.3727 113.713 14.1817 115.058 14.4874C116.036 14.755 116.892 15.2518 117.666 15.9781C118.4 16.7426 118.971 17.5834 119.297 18.5772C119.663 19.5711 119.827 20.6032 119.867 21.6734C119.867 22.7437 119.745 23.7375 119.419 24.6549C119.093 25.534 118.563 26.2984 117.789 26.8718C117.014 27.4451 116.118 27.7509 115.058 27.7509C114.732 27.7509 113.917 27.4833 113.917 27.4833C113.917 27.4833 115.506 29.1652 116.525 30.847C117.137 31.8408 117.748 32.8728 118.237 34.0578C118.726 35.2427 119.215 36.4658 119.704 37.7272C120.193 38.9885 120.764 40.2881 121.375 41.6642C122.027 43.0402 122.68 44.2252 123.413 45.1808C125.533 48.2004 127.937 50.5702 131.605 51.6787C132.135 51.8316 133.358 52.0991 133.847 51.7933C134.295 51.4875 134.295 50.9524 134.254 50.4938V50.4556Z" fill="url(#paint10_linear_13_865)"/><path d="M113.794 38.9506C113.754 38.5684 113.713 38.0715 113.713 37.4217C113.713 35.587 113.713 33.714 113.713 31.8793C113.713 30.0828 113.632 28.2863 113.713 26.4898C113.713 25.7635 113.713 25.0755 113.713 24.3493C113.713 23.6995 113.835 23.0497 114.161 22.4381C114.365 22.0176 115.058 21.1767 115.669 21.4825C115.955 21.6354 116.036 21.7883 116.158 22.0941C116.199 22.2088 116.24 22.3617 116.281 22.4764C116.281 22.4764 116.77 21.1385 116.036 20.374C115.588 19.9153 114.936 19.9153 114.406 20.1447C114.121 20.2594 113.917 20.4887 113.713 20.6799C113.468 20.9092 113.224 21.1003 112.979 21.3296C112.124 22.0941 111.512 22.5146 110.249 22.8586C109.596 23.0497 108.822 22.8586 108.251 22.5528C107.803 22.2852 107.396 21.9413 107.07 21.559C106.866 21.3297 106.703 21.0621 106.54 20.7945C106.54 20.7945 106.254 21.8647 106.988 22.8968C107.192 23.1643 107.355 23.4319 107.599 23.6613C107.803 23.8906 108.129 24.0052 108.333 24.1963C108.578 24.4257 108.7 24.7315 108.741 25.0373C108.822 25.4959 108.863 25.9547 108.904 26.4134C108.904 27.9805 106.336 29.1272 106.336 29.1272C106.336 29.1272 108.863 30.2739 108.863 31.841C108.863 33.2171 108.863 34.6314 108.863 36.0075C108.863 36.7337 108.863 37.4599 108.863 38.1861C108.863 38.6066 108.863 38.9889 108.863 39.3329C108.863 40.212 108.129 40.9764 106.377 40.9382C106.377 40.9382 107.477 41.0911 109.963 41.4734C110.616 41.588 111.268 41.7027 111.92 41.8174C114.121 42.1996 117.666 43.308 117.666 43.308C117.666 43.308 116.077 42.1996 115.221 41.5498C114.324 40.9 113.876 40.5942 113.754 38.9506H113.794Z" fill="url(#paint11_linear_13_865)"/><path d="M139.227 45.0279C141.184 45.7541 139.798 46.6333 139.023 46.5186C138.738 46.4804 138.371 46.4039 137.923 46.251C136.619 45.907 135.314 45.5629 134.051 45.2189C134.051 41.5495 134.051 37.9183 134.01 34.2488C134.01 33.7902 134.01 33.3315 134.01 32.8729C134.051 31.7262 134.173 30.8088 134.377 30.1972C134.581 29.5856 134.907 29.2033 135.396 29.0887C135.926 28.9358 136.333 29.0123 136.66 29.2799C136.904 29.471 137.067 29.7003 137.189 29.9678C137.312 30.2354 137.311 30.5029 137.271 30.7705C137.23 31.0381 137.148 31.2674 136.985 31.4968C136.863 31.7261 136.659 31.879 136.374 31.9554C136.089 32.0319 135.844 32.0701 135.518 31.9554C135.518 32.4141 135.641 32.8728 135.926 33.2933C136.211 33.7137 136.537 34.0578 136.904 34.2871C137.271 34.5164 137.638 34.6311 138.045 34.6311C138.983 34.6311 139.635 34.1342 140.002 32.9875C140.368 31.8408 140.287 30.7324 139.798 29.6621C139.268 28.5154 138.412 27.751 137.23 27.4069C136.048 27.0629 134.948 27.2922 133.969 28.1331C133.969 25.037 133.929 20.8707 133.929 17.163C133.929 15.6723 133.929 13.9522 133.929 12.7291C135.233 12.6526 136.211 12.5762 137.515 12.4998C138.29 12.4615 138.86 12.4998 139.227 12.5763C140.409 12.9203 139.513 14.6403 139.513 14.6403C140.409 14.258 141.306 13.5319 141.102 12.2323C140.857 10.8562 139.268 10.9708 139.268 10.9708C139.146 10.9708 139.023 10.9708 138.942 10.9708C137.841 11.0473 136.7 11.2003 135.6 11.2767C134.662 11.3531 133.806 11.3913 133.073 11.4295C130.75 11.5824 127.285 11.7353 126.756 11.6971C126.756 11.6971 127.57 12.2322 128.06 12.6144C128.752 13.1878 129.038 14.1051 129.119 15.5958C129.119 16.0545 129.119 16.3221 129.119 16.8573C129.119 19.8387 129.201 23.9286 129.201 26.4131C129.119 27.942 126.633 29.0505 126.633 29.0505C126.633 29.0505 129.242 30.1972 129.242 31.7643C129.242 34.9369 129.282 38.1476 129.323 41.3202C129.323 41.97 129.364 42.658 129.242 43.3078C128.997 44.3398 127.815 44.8368 127.774 44.8368C128.101 44.9132 128.63 45.066 128.793 45.1043C129.527 45.2954 130.587 45.5248 131.932 45.8688C133.277 46.2128 134.499 46.5186 135.6 46.8243C136.7 47.1301 137.719 47.4359 138.697 47.7417C139.472 47.971 140.409 48.5444 141.224 48.2769C141.754 48.0857 141.999 47.5888 141.999 47.0919C142.039 46.0217 141.183 45.3337 140.124 45.0661C139.838 44.9897 139.513 44.9514 139.227 44.9514V45.0279Z" fill="url(#paint12_linear_13_865)"/><path d="M50.4982 48.5435L50.2537 48.7729V50.0725L50.539 50.34H48.4196L48.6233 50.0725V47.932L48.4196 47.779L48.6233 47.6261V46.1736L48.4196 45.8679H49.4385L49.194 46.1355V47.6261L49.4385 47.779L49.194 47.932V49.8431H49.6422V48.5817H50.4574L50.4982 48.5435Z" fill="url(#paint13_linear_13_865)"/><path d="M58.8124 50.0731L59.0164 50.3407H56.8154L56.9785 50.0731V48.0854L56.8154 47.8943L58.8532 47.0534V47.9707L58.6087 47.7032L57.5898 48.1619V49.9201H58.242V49.041L58.038 48.8116H59.0164L58.8532 49.041V50.0731H58.8124ZM56.9785 47.665V46.0978L56.8154 45.8302H58.9756L58.8124 46.0978V46.5183L59.0164 46.7477H58.038L58.242 46.5183V46.2125H57.5898V47.3592L56.9785 47.6267V47.665Z" fill="url(#paint14_linear_13_865)"/><path d="M66.9234 48.6968C67.2087 48.544 67.372 48.4675 67.4127 48.4675C67.4127 48.4675 67.4941 48.4293 67.4941 48.3911C67.4941 48.3911 67.4941 48.3529 67.4941 48.3147V50.3405H66.1493C65.7417 50.3405 65.5378 50.1494 65.5378 49.7289V47.9706L65.2933 47.7795L65.5378 47.6266V46.4799C65.5378 46.0977 65.7415 45.8684 66.1898 45.8684H67.0866C67.3719 45.8684 67.5349 46.0977 67.5349 46.5946V46.7857L67.7386 47.0533H66.7197L66.9234 46.8239V46.327H66.1898V49.8436H66.9234V48.6587V48.6968ZM66.3938 48.2764L67.5349 47.7413C67.5349 47.9324 67.5348 48.0853 67.4941 48.1618C67.4941 48.2382 67.4535 48.2765 67.4127 48.3147C67.4127 48.3147 67.0459 48.544 66.3938 48.8498V48.2764Z" fill="url(#paint15_linear_13_865)"/><path d="M76.0936 50.0348L76.2976 50.3024H75.3195L75.5232 50.0731V48.2L74.8302 48.5823V50.0731L75.0342 50.3024H74.0558L74.2598 50.0731V48.5442L74.0558 48.3912L75.5232 47.6267V46.2889H74.8302V47.8179L74.2598 48.0854V46.4037C74.2598 46.0214 74.4634 45.8302 74.8302 45.8302H75.6046C75.9714 45.8302 76.1344 46.0214 76.1344 46.4037V48.009L76.3384 48.1619L76.1344 48.3148V49.9965L76.0936 50.0348Z" fill="url(#paint16_linear_13_865)"/><path d="M84.1234 46.9387V46.2507H83.4714V49.8437H84.1234V49.1556L83.9197 48.9263H84.8978L84.7349 49.1556V49.6526C84.7349 50.073 84.5718 50.3024 84.205 50.3024H83.512C83.1044 50.3024 82.9007 50.073 82.9007 49.6526V48.1619L82.697 48.009L82.9007 47.8561V46.5183C82.9007 46.0596 83.1044 45.8302 83.512 45.8302H84.1234C84.531 45.8302 84.7349 46.0596 84.7349 46.4801V46.9005L84.8978 47.1681H83.8789L84.1234 46.9387Z" fill="url(#paint17_linear_13_865)"/><path d="M92.6823 50.0729L92.9676 50.3405H91.8673L92.0711 50.1111V48.9644L91.6228 48.4675C91.6228 48.4675 91.4188 48.1617 91.4188 47.9706V46.0594L91.2967 45.8684H92.2748L92.0303 46.0594V48.0471C92.0303 48.0471 92.1933 48.2383 92.2748 48.3147C92.3563 48.3912 92.4378 48.4676 92.4786 48.544C92.5193 48.6205 92.5602 48.6969 92.6009 48.7351C92.6417 48.7733 92.6417 48.888 92.6417 48.9262V50.0347L92.6823 50.0729ZM93.4975 45.8684L93.3753 46.0594V48.0089C93.3753 48.0089 93.2936 48.3529 93.1714 48.5058L92.8047 48.888C92.8047 48.888 92.7638 48.7351 92.6823 48.6587C92.6415 48.5823 92.5601 48.5058 92.4786 48.4294L92.7639 48.1235V46.1359L92.5193 45.9448H93.5383L93.4975 45.8684Z" fill="url(#paint18_linear_13_865)"/><path d="M65.3339 5.963V5.08383H67.2901V5.963L67.0048 5.58075H66.5973V7.14792L66.8011 7.26258L66.5973 7.41551V9.21201L66.8419 9.55601H65.7413L66.0267 9.21201V7.41551L65.7821 7.26258L66.0267 7.14792V5.58075H65.6192L65.3339 5.963Z" fill="url(#paint19_linear_13_865)"/><path d="M71.8958 9.51824H70.8769L71.1214 9.32717V7.37775L70.3878 7.53067V9.36544L70.5915 9.59477H69.6134L69.8171 9.40358V7.49241L69.6134 7.30134L71.0806 6.84268V5.42844L70.8361 5.16084H71.855L71.6513 5.42844V7.14842L71.855 7.30134C71.855 7.30134 71.7328 7.41604 71.6513 7.45427V9.36544L71.855 9.59477L71.8958 9.51824ZM69.8579 5.35191L69.695 5.04618H70.6731L70.4286 5.31377V6.84268L69.8579 6.99549V5.31377V5.35191Z" fill="url(#paint20_linear_13_865)"/><path d="M76.379 9.25077L76.5829 9.51824H74.3819L74.5451 9.25077V7.26308L74.3819 7.07201L76.4197 6.23109V7.14842L76.1752 6.88082L75.1563 7.3396V9.09784H75.8085V8.21866L75.6046 7.98933H76.5829L76.4197 8.21866V9.25077H76.379ZM74.5451 6.88082V5.31377L74.3819 5.04618H76.5421L76.379 5.31377V5.73417L76.5829 5.9635H75.6046L75.8085 5.73417V5.42844H75.1563V6.57509L74.5451 6.84268V6.88082Z" fill="url(#paint21_linear_13_865)"/><path fill-rule="evenodd" clip-rule="evenodd" d="M73.1596 54.2012C71.1625 54.2012 69.9398 53.0163 68.065 52.787C63.7039 52.2518 56.9383 52.7106 52.3327 52.7106C50.1726 52.7106 48.0124 52.3283 46.2191 51.0287C46.2191 52.0608 47.1156 53.131 49.3981 53.0546C48.1753 53.7044 46.4229 54.2395 44.7111 54.2777C43.7737 54.2777 42.7954 53.8955 42.7954 52.7106C42.7954 51.8697 43.3252 51.5257 44.0181 51.5257C43.7735 51.7168 43.6106 51.9843 43.6106 52.2901C43.6106 52.8252 44.0589 53.2456 44.6295 53.2456C45.2001 53.2456 45.6077 52.8252 45.6484 52.2901C45.7707 51.258 44.7927 50.4554 43.733 50.4171C42.6733 50.3789 41.8581 51.1816 41.6135 52.099C41.4505 52.7106 41.4912 53.3985 41.8173 53.9336C42.0618 54.3159 42.4287 54.6217 42.877 54.8511C43.4068 55.0804 43.9773 55.1951 44.5479 55.2333C45.2408 55.2333 45.8929 55.1186 46.545 54.9657C47.8085 54.6599 49.0314 54.163 50.3356 53.8572C50.8655 53.7043 51.436 53.5897 52.0066 53.5515C55.0226 53.2075 65.6602 52.9017 68.0242 53.5132C69.1246 53.819 70.0621 54.6217 71.1626 54.9657C71.8554 55.1951 72.589 54.9658 73.1596 54.2777V54.2012ZM68.7578 52.099C70.7549 52.099 71.9776 53.2839 73.8524 53.5132C78.2135 54.0484 84.9794 53.5896 89.5849 53.5896C91.7451 53.5896 93.9052 53.9719 95.6985 55.2715C95.6985 54.2394 94.8018 53.1692 92.5193 53.2456C93.7421 52.5958 95.4947 52.0607 97.2065 52.0225C98.144 52.0225 99.122 52.4047 99.122 53.5896C99.122 54.4305 98.5922 54.7745 97.8993 54.7745C98.1439 54.5834 98.3068 54.3159 98.3068 54.0101C98.3068 53.475 97.8585 53.0546 97.2879 53.0546C96.7173 53.0546 96.3097 53.475 96.2689 54.0101C96.1467 55.0422 97.125 55.8448 98.1847 55.8831C99.2444 55.9213 100.059 55.1186 100.304 54.2012C100.467 53.5896 100.426 52.9017 100.1 52.3666C99.8556 51.9843 99.4887 51.6785 99.0404 51.4491C98.5106 51.2198 97.9401 51.1051 97.3695 51.0669C96.6766 51.0669 96.0245 51.1816 95.3724 51.3345C94.1089 51.6403 92.8862 52.1372 91.582 52.443C91.0522 52.5959 90.4814 52.7105 89.9108 52.7487C86.8948 53.0927 76.2572 53.3985 73.8932 52.787C72.7928 52.4812 71.8553 51.6785 70.7548 51.3345C70.062 51.1051 69.3284 51.3344 68.7578 52.0225V52.099Z" fill="url(#paint22_linear_13_865)"/><path d="M73.3633 43.5754C72.4259 43.5754 70.9993 44.9133 70.9993 45.7924C70.9993 44.9133 69.573 43.5754 68.6356 43.5754C69.573 43.5754 70.9993 42.2377 70.9993 41.3585C70.9993 42.2377 72.4259 43.5754 73.3633 43.5754Z" fill="url(#paint23_linear_13_865)"/><path d="M75.7273 40.1735C75.3605 40.1735 74.79 40.7085 74.79 41.0525C74.79 40.7085 74.2192 40.1735 73.8524 40.1735C74.2192 40.1735 74.79 39.6383 74.79 39.2943C74.79 39.6383 75.3605 40.1735 75.7273 40.1735Z" fill="url(#paint24_linear_13_865)"/><path d="M68.0649 41.779C67.6981 41.779 67.1276 42.3141 67.1276 42.6582C67.1276 42.3141 66.5568 41.779 66.19 41.779C66.5568 41.779 67.1276 41.2439 67.1276 40.8999C67.1276 41.2439 67.6981 41.779 68.0649 41.779Z" fill="url(#paint25_linear_13_865)"/><path d="M87.2615 1.262C86.8539 -0.458054 79.2323 -0.419836 70.225 1.37666C61.2176 3.13493 54.2481 5.96352 54.6557 7.64534C54.9002 8.7156 58.8129 9.67123 63.2554 9.13611C60.4024 9.21255 57.6717 8.56269 57.4271 7.87467C56.938 6.53686 62.481 4.31991 69.8581 2.86743C77.1944 1.41494 83.5524 1.33854 84.0415 2.67636C84.3268 3.44082 82.5335 4.54926 79.4767 5.61951C84.3676 4.1288 87.506 2.44692 87.2207 1.262H87.2615Z" fill="url(#paint26_linear_13_865)"/><defs><linearGradient id="paint0_linear_13_865" x1="101.16" y1="58.903" x2="101.16" y2="10.474" gradientUnits="userSpaceOnUse"><stop stop-color="#AA7142"/><stop offset="1" stop-color="#E1AA6E"/></linearGradient><linearGradient id="paint1_linear_13_865" x1="87.2207" y1="58.9026" x2="87.2207" y2="10.4736" gradientUnits="userSpaceOnUse"><stop stop-color="#AA7142"/><stop offset="1" stop-color="#E1AA6E"/></linearGradient><linearGradient id="paint2_linear_13_865" x1="11.3713" y1="58.9026" x2="11.3713" y2="10.4736" gradientUnits="userSpaceOnUse"><stop stop-color="#AA7142"/><stop offset="1" stop-color="#E1AA6E"/></linearGradient><linearGradient id="paint3_linear_13_865" x1="17.4853" y1="58.9024" x2="17.4853" y2="10.4735" gradientUnits="userSpaceOnUse"><stop stop-color="#AA7142"/><stop offset="1" stop-color="#E1AA6E"/></linearGradient><linearGradient id="paint4_linear_13_865" x1="50.3759" y1="58.903" x2="50.3759" y2="10.4735" gradientUnits="userSpaceOnUse"><stop stop-color="#AA7142"/><stop offset="1" stop-color="#E1AA6E"/></linearGradient><linearGradient id="paint5_linear_13_865" x1="101.078" y1="58.9028" x2="101.078" y2="10.474" gradientUnits="userSpaceOnUse"><stop stop-color="#AA7142"/><stop offset="1" stop-color="#E1AA6E"/></linearGradient><linearGradient id="paint6_linear_13_865" x1="29.4675" y1="58.9028" x2="29.4675" y2="10.4737" gradientUnits="userSpaceOnUse"><stop stop-color="#AA7142"/><stop offset="1" stop-color="#E1AA6E"/></linearGradient><linearGradient id="paint7_linear_13_865" x1="38.475" y1="58.9029" x2="38.475" y2="10.4738" gradientUnits="userSpaceOnUse"><stop stop-color="#AA7142"/><stop offset="1" stop-color="#E1AA6E"/></linearGradient><linearGradient id="paint8_linear_13_865" x1="53.4734" y1="58.9027" x2="53.4734" y2="10.4736" gradientUnits="userSpaceOnUse"><stop stop-color="#AA7142"/><stop offset="1" stop-color="#E1AA6E"/></linearGradient><linearGradient id="paint9_linear_13_865" x1="69.9396" y1="58.9028" x2="69.9396" y2="10.4738" gradientUnits="userSpaceOnUse"><stop stop-color="#AA7142"/><stop offset="1" stop-color="#E1AA6E"/></linearGradient><linearGradient id="paint10_linear_13_865" x1="120.112" y1="58.9029" x2="120.112" y2="10.4739" gradientUnits="userSpaceOnUse"><stop stop-color="#AA7142"/><stop offset="1" stop-color="#E1AA6E"/></linearGradient><linearGradient id="paint11_linear_13_865" x1="112.042" y1="58.9031" x2="112.042" y2="10.4742" gradientUnits="userSpaceOnUse"><stop stop-color="#AA7142"/><stop offset="1" stop-color="#E1AA6E"/></linearGradient><linearGradient id="paint12_linear_13_865" x1="134.255" y1="58.9029" x2="134.255" y2="10.4739" gradientUnits="userSpaceOnUse"><stop stop-color="#AA7142"/><stop offset="1" stop-color="#E1AA6E"/></linearGradient><linearGradient id="paint13_linear_13_865" x1="49.4793" y1="58.9022" x2="49.4793" y2="10.4727" gradientUnits="userSpaceOnUse"><stop stop-color="#AA7142"/><stop offset="1" stop-color="#E1AA6E"/></linearGradient><linearGradient id="paint14_linear_13_865" x1="57.9159" y1="58.9029" x2="57.9159" y2="10.4729" gradientUnits="userSpaceOnUse"><stop stop-color="#AA7142"/><stop offset="1" stop-color="#E1AA6E"/></linearGradient><linearGradient id="paint15_linear_13_865" x1="66.516" y1="58.9027" x2="66.516" y2="10.4731" gradientUnits="userSpaceOnUse"><stop stop-color="#AA7142"/><stop offset="1" stop-color="#E1AA6E"/></linearGradient><linearGradient id="paint16_linear_13_865" x1="75.1563" y1="58.9027" x2="75.1563" y2="10.4732" gradientUnits="userSpaceOnUse"><stop stop-color="#AA7142"/><stop offset="1" stop-color="#E1AA6E"/></linearGradient><linearGradient id="paint17_linear_13_865" x1="83.7974" y1="58.9027" x2="83.7974" y2="10.4732" gradientUnits="userSpaceOnUse"><stop stop-color="#AA7142"/><stop offset="1" stop-color="#E1AA6E"/></linearGradient><linearGradient id="paint18_linear_13_865" x1="92.3971" y1="58.9027" x2="92.3971" y2="10.4731" gradientUnits="userSpaceOnUse"><stop stop-color="#AA7142"/><stop offset="1" stop-color="#E1AA6E"/></linearGradient><linearGradient id="paint19_linear_13_865" x1="66.312" y1="58.9029" x2="66.312" y2="10.4734" gradientUnits="userSpaceOnUse"><stop stop-color="#AA7142"/><stop offset="1" stop-color="#E1AA6E"/></linearGradient><linearGradient id="paint20_linear_13_865" x1="70.7546" y1="58.903" x2="70.7546" y2="10.4739" gradientUnits="userSpaceOnUse"><stop stop-color="#AA7142"/><stop offset="1" stop-color="#E1AA6E"/></linearGradient><linearGradient id="paint21_linear_13_865" x1="75.4417" y1="58.9021" x2="75.4417" y2="10.4738" gradientUnits="userSpaceOnUse"><stop stop-color="#AA7142"/><stop offset="1" stop-color="#E1AA6E"/></linearGradient><linearGradient id="paint22_linear_13_865" x1="70.9587" y1="58.9027" x2="70.9587" y2="10.474" gradientUnits="userSpaceOnUse"><stop stop-color="#AA7142"/><stop offset="1" stop-color="#E1AA6E"/></linearGradient><linearGradient id="paint23_linear_13_865" x1="70.9994" y1="58.9031" x2="70.9994" y2="10.474" gradientUnits="userSpaceOnUse"><stop stop-color="#AA7142"/><stop offset="1" stop-color="#E1AA6E"/></linearGradient><linearGradient id="paint24_linear_13_865" x1="74.7898" y1="58.9025" x2="74.7898" y2="10.4744" gradientUnits="userSpaceOnUse"><stop stop-color="#AA7142"/><stop offset="1" stop-color="#E1AA6E"/></linearGradient><linearGradient id="paint25_linear_13_865" x1="67.1274" y1="58.9028" x2="67.1274" y2="10.4747" gradientUnits="userSpaceOnUse"><stop stop-color="#AA7142"/><stop offset="1" stop-color="#E1AA6E"/></linearGradient><linearGradient id="paint26_linear_13_865" x1="70.9586" y1="58.9034" x2="70.9586" y2="10.4739" gradientUnits="userSpaceOnUse"><stop stop-color="#AA7142"/><stop offset="1" stop-color="#E1AA6E"/></linearGradient></defs></svg>