<svg width="135" height="30" viewBox="0 0 135 30" fill="none" xmlns="http://www.w3.org/2000/svg"><path d="M2.11044 23.1305C1.39561 23.1305 0.850989 22.9203 0.510595 22.4997C0.170202 22.0791 0 21.5885 0 21.0628V3.53953C0 2.90869 0.170196 2.41806 0.544629 2.10264C0.919062 1.78722 1.32754 1.61199 1.77005 1.61199C2.21256 1.61199 2.62103 1.78722 2.99547 2.10264C3.3699 2.41806 3.54009 2.90869 3.54009 3.53953V19.8011H9.08851C9.70122 19.8011 10.1778 19.9763 10.4841 20.3268C10.7905 20.6773 10.9607 21.0628 10.9607 21.4833C10.9607 21.9039 10.7905 22.2894 10.4841 22.6399C10.1778 22.9904 9.70122 23.1656 9.08851 23.1656H2.11044V23.1305Z" fill="#9D9FA2"/><path d="M16.4069 3.57485C16.4069 4.1356 16.2027 4.62626 15.8282 5.01177C15.4538 5.39728 14.9772 5.5725 14.3645 5.5725C13.7518 5.5725 13.2753 5.39728 12.9008 5.01177C12.5264 4.62626 12.3222 4.17064 12.3222 3.57485C12.3222 3.04915 12.5264 2.5585 12.9008 2.17299C13.3093 1.78747 13.7859 1.5772 14.3645 1.5772C14.9432 1.5772 15.4198 1.78747 15.8282 2.17299C16.2027 2.5585 16.4069 3.04915 16.4069 3.57485ZM16.1346 21.5187C16.1346 22.0794 15.9644 22.5 15.658 22.8154C15.3517 23.1308 14.9092 23.306 14.3986 23.306C13.8539 23.306 13.4114 23.1308 13.1051 22.8154C12.7987 22.5 12.6626 22.0444 12.6626 21.5187V8.90193C12.6626 8.37624 12.7987 7.95567 13.1051 7.6052C13.4114 7.25474 13.8539 7.0795 14.3986 7.0795C14.9092 7.0795 15.3517 7.25474 15.658 7.6052C15.9644 7.95567 16.1346 8.37624 16.1346 8.90193V21.5187Z" fill="#9D9FA2"/><path d="M32.7457 21.5537C32.7457 22.7453 32.5755 23.7967 32.2011 24.778C31.8607 25.7593 31.3501 26.6004 30.6693 27.3364C30.0226 28.0724 29.2056 28.6331 28.2865 29.0186C27.3675 29.4042 26.3463 29.6144 25.223 29.6144C24.5763 29.6144 23.8955 29.5443 23.1466 29.3691C22.3977 29.1939 21.7169 28.9836 21.0702 28.7032C20.4234 28.4228 19.8788 28.0724 19.4704 27.7219C19.0619 27.3714 18.8236 26.9158 18.8236 26.4602C18.8236 26.1448 18.9257 25.7593 19.164 25.4089C19.3682 25.0233 19.8107 24.8481 20.4235 24.8481C20.7638 24.8481 21.1042 24.9182 21.4446 25.0934C21.785 25.2687 22.1254 25.4439 22.4999 25.6191C22.8743 25.7944 23.3168 25.9696 23.7934 26.1448C24.2699 26.3201 24.8486 26.3902 25.4953 26.3902C26.2101 26.3902 26.7888 26.25 27.2654 25.9696C27.7419 25.6892 28.1163 25.3388 28.3887 24.9182C28.695 24.4977 28.8993 24.042 29.0014 23.5163C29.1035 22.9906 29.1716 22.5 29.1716 21.9743C28.2185 22.8505 27.0611 23.306 25.6995 23.306C24.5082 23.306 23.4529 23.0607 22.5339 22.6051C21.6148 22.1495 20.866 21.5187 20.2533 20.7827C19.6405 20.0467 19.164 19.1706 18.8576 18.1893C18.5513 17.208 18.3811 16.1916 18.3811 15.1753C18.3811 14.1589 18.5173 13.1426 18.8576 12.1613C19.164 11.18 19.6405 10.3038 20.2533 9.56783C20.866 8.83185 21.6148 8.20102 22.5339 7.74542C23.4529 7.28981 24.5082 7.07953 25.6995 7.07953C26.3803 7.07953 27.0271 7.21972 27.6398 7.46504C28.2525 7.71037 28.7631 8.02578 29.2056 8.3412C29.3077 7.8856 29.546 7.57018 29.9204 7.35991C30.2608 7.14963 30.6693 7.07953 31.0778 7.07953C31.3841 7.07953 31.7586 7.21972 32.167 7.46504C32.5755 7.71037 32.7457 8.16598 32.7457 8.76177V21.6238V21.5537ZM29.4439 15.1402C29.4439 14.5094 29.3758 13.8785 29.2396 13.3178C29.1035 12.722 28.8993 12.1963 28.5929 11.7057C28.2865 11.215 27.8781 10.8295 27.4356 10.5491C26.993 10.2688 26.3803 10.1286 25.7336 10.1286C25.0868 10.1286 24.4741 10.2688 24.0316 10.5491C23.5891 10.8295 23.1806 11.215 22.8743 11.7057C22.5679 12.1963 22.3297 12.722 22.1935 13.3178C22.0573 13.9136 21.9893 14.5094 21.9893 15.1402C21.9893 15.7711 22.0573 16.4019 22.1935 16.9977C22.3297 17.5935 22.5679 18.1542 22.8743 18.6098C23.1806 19.1005 23.5891 19.486 24.0316 19.7664C24.4741 20.0467 25.0868 20.1869 25.7336 20.1869C26.3803 20.1869 26.993 20.0467 27.4356 19.7664C27.8781 19.486 28.2865 19.1005 28.5929 18.6098C28.8993 18.1192 29.1375 17.5935 29.2396 16.9977C29.3758 16.4019 29.4439 15.7711 29.4439 15.1402Z" fill="#9D9FA2"/><path d="M48.8803 21.5185C48.8803 22.0442 48.7441 22.4648 48.4378 22.8153C48.1314 23.1657 47.6889 23.341 47.1443 23.341C46.6337 23.341 46.1912 23.1657 45.8848 22.8153C45.5785 22.4648 45.4083 22.0442 45.4083 21.5185V13.1424C45.4083 11.9859 45.1019 11.2149 44.4552 10.7943C43.8084 10.3737 43.0936 10.1635 42.3447 10.1635C42.0043 10.1635 41.6299 10.2336 41.2555 10.3738C40.881 10.5139 40.5407 10.7593 40.2683 11.0396C39.996 11.32 39.7237 11.6705 39.5535 12.056C39.3493 12.4415 39.2812 12.8971 39.2812 13.3527V21.5185C39.2812 22.0442 39.111 22.4648 38.8046 22.8153C38.4983 23.1657 38.0558 23.341 37.4771 23.341C36.9665 23.341 36.524 23.1657 36.2177 22.8153C35.9113 22.4648 35.7411 22.0442 35.7411 21.5185V1.82241C35.7411 1.29671 35.9113 0.876141 36.2177 0.525676C36.524 0.175211 36.9665 0 37.4771 0C38.0217 0 38.4643 0.175211 38.8046 0.525676C39.111 0.876141 39.2812 1.29671 39.2812 1.82241V8.23592C39.8599 7.78032 40.4726 7.46489 41.1193 7.32471C41.7661 7.14947 42.4128 7.07938 43.0936 7.07938C43.7744 7.07938 44.4211 7.18453 45.1019 7.35976C45.7827 7.53499 46.4295 7.88545 47.0081 8.34106C47.5868 8.79666 48.0633 9.39244 48.4037 10.1635C48.7441 10.9345 48.9484 11.8808 48.9484 13.0022V21.5185H48.8803Z" fill="#9D9FA2"/><path d="M58.2075 8.44623C58.2075 8.97192 58.0373 9.35744 57.6969 9.60277C57.3565 9.84809 56.9481 9.98828 56.4034 9.98828H55.8248V21.5887C55.8248 22.1144 55.6546 22.5349 55.3482 22.8503C55.0419 23.1658 54.5993 23.341 54.0547 23.341C53.5101 23.341 53.0676 23.1658 52.7612 22.8503C52.4549 22.5349 52.3187 22.1144 52.3187 21.5887V9.98828H51.7741C51.2294 9.98828 50.7869 9.84809 50.4806 9.60277C50.1402 9.35744 50.004 8.97192 50.004 8.44623C50.004 7.95558 50.1742 7.57006 50.4806 7.32474C50.7869 7.07941 51.2294 6.9042 51.7741 6.9042H52.3528V4.13552C52.3528 3.60982 52.4889 3.18926 52.7953 2.87385C53.1016 2.55843 53.5441 2.3832 54.0888 2.3832C54.6334 2.3832 55.0759 2.55843 55.3823 2.87385C55.6886 3.18926 55.8588 3.60982 55.8588 4.13552V6.9042H56.4375C56.9821 6.9042 57.4246 7.04437 57.731 7.32474C58.0714 7.60511 58.2416 7.99062 58.2416 8.44623H58.2075Z" fill="#9D9FA2"/><path d="M84.3493 21.5535C84.3493 21.974 84.2131 22.3596 83.9068 22.675C83.6004 22.9904 83.26 23.2007 82.8516 23.2708C82.4431 23.3759 82.0006 23.3409 81.5581 23.1656C81.1155 23.0254 80.7071 22.675 80.4007 22.1843L71.7547 9.00685L71.0059 7.46479L71.108 9.14704V21.4133C71.108 22.0792 70.9378 22.5698 70.5634 22.9203C70.1889 23.2708 69.8145 23.411 69.372 23.411C68.9295 23.411 68.555 23.2357 68.1806 22.9203C67.8062 22.6049 67.636 22.0792 67.636 21.4133V3.36436C67.636 2.9438 67.7721 2.55829 68.0785 2.24287C68.3848 1.92745 68.7252 1.71718 69.1337 1.64709C69.5422 1.54195 69.9847 1.57699 70.4272 1.75222C70.8697 1.92745 71.2782 2.24287 71.6526 2.73352L80.2646 15.946L81.0134 17.4881L80.9113 15.911V3.46949C80.9113 2.83866 81.0815 2.34799 81.4559 2.03257C81.8304 1.71716 82.2048 1.54192 82.6473 1.54192C83.0898 1.54192 83.4643 1.71716 83.8387 2.03257C84.2131 2.34799 84.3833 2.83866 84.3833 3.46949V21.5885L84.3493 21.5535Z" fill="#9D9FA2"/><path d="M101.063 15.1753C101.063 16.1916 100.893 17.208 100.586 18.1893C100.28 19.1706 99.8034 20.0467 99.1907 20.7827C98.578 21.5537 97.7951 22.1495 96.9101 22.6051C96.025 23.0607 94.9698 23.306 93.7784 23.306C92.5871 23.306 91.5318 23.0607 90.6128 22.6051C89.6937 22.1495 88.9449 21.5187 88.3322 20.7827C87.7194 20.0467 87.2429 19.1706 86.9365 18.1893C86.6302 17.208 86.46 16.1916 86.46 15.1753C86.46 14.1589 86.5961 13.1426 86.9365 12.1613C87.2429 11.18 87.7194 10.3038 88.3322 9.56783C88.9449 8.83185 89.7278 8.20102 90.6128 7.74542C91.5318 7.28981 92.5871 7.07953 93.7784 7.07953C94.9698 7.07953 95.991 7.28981 96.9101 7.74542C97.8291 8.20102 98.578 8.7968 99.1907 9.56783C99.8034 10.3388 100.28 11.18 100.586 12.1613C100.893 13.1426 101.063 14.1589 101.063 15.1753ZM97.4887 15.1753C97.4887 14.5444 97.4207 13.9486 97.2845 13.3529C97.1483 12.7571 96.9441 12.2314 96.6377 11.7407C96.3314 11.2501 95.957 10.8645 95.4804 10.5842C95.0039 10.3038 94.4252 10.1636 93.7784 10.1636C93.1317 10.1636 92.519 10.3038 92.0765 10.5842C91.634 10.8645 91.2255 11.2501 90.9191 11.7407C90.6128 12.2314 90.3745 12.7571 90.2384 13.3529C90.1022 13.9486 90.0341 14.5444 90.0341 15.1753C90.0341 15.8061 90.1022 16.437 90.2384 17.0327C90.3745 17.6285 90.6128 18.1893 90.9191 18.6449C91.2255 19.1355 91.5999 19.521 92.0765 19.8014C92.553 20.0818 93.1317 20.222 93.7784 20.222C94.4252 20.222 95.0379 20.0818 95.4804 19.8014C95.9229 19.521 96.3314 19.1355 96.6377 18.6449C96.9441 18.1542 97.1824 17.6285 97.2845 17.0327C97.4207 16.437 97.4887 15.8061 97.4887 15.1753Z" fill="#9D9FA2"/><path d="M114.985 8.69166C114.985 8.8669 114.985 9.04214 114.883 9.25242C114.815 9.42765 114.747 9.63792 114.679 9.8482L110.253 21.9392C110.117 22.3598 109.913 22.7103 109.675 22.9556C109.436 23.2009 109.028 23.3411 108.483 23.3411C107.939 23.3411 107.496 23.2009 107.258 22.9556C107.02 22.7103 106.849 22.3598 106.679 21.9392L102.254 9.8482C102.152 9.63792 102.084 9.42765 102.05 9.25242C102.016 9.07719 101.948 8.90194 101.948 8.69166C101.948 8.16597 102.118 7.78047 102.458 7.50009C102.799 7.21972 103.173 7.07953 103.582 7.07953C104.16 7.07953 104.569 7.21972 104.841 7.46504C105.113 7.71037 105.284 8.02578 105.386 8.3412L108.517 17.4533L111.581 8.3412C111.683 8.02578 111.887 7.71037 112.126 7.46504C112.364 7.21972 112.806 7.07953 113.385 7.07953C113.794 7.07953 114.168 7.21972 114.508 7.50009C114.849 7.78047 115.019 8.20101 115.019 8.69166H114.985Z" fill="#9D9FA2"/><path d="M129.554 14.8599C129.554 15.9813 128.907 16.5421 127.682 16.5421H118.593C118.695 17.6285 119.104 18.5047 119.819 19.2056C120.499 19.9065 121.452 20.257 122.712 20.257C123.223 20.257 123.631 20.257 124.005 20.1519C124.38 20.0818 124.72 20.0117 125.027 19.8715C125.333 19.7313 125.639 19.5561 125.912 19.3458C126.184 19.1355 126.49 18.8902 126.797 18.6098C127.341 18.1893 127.784 18.014 128.158 18.0491C128.533 18.0841 128.839 18.2594 129.009 18.5748C129.213 18.8902 129.282 19.2407 129.282 19.6612C129.282 20.0818 129.145 20.4673 128.873 20.7827C128.328 21.3785 127.545 21.9392 126.456 22.4649C125.367 22.9906 124.142 23.271 122.814 23.271C121.486 23.271 120.363 23.0257 119.41 22.5701C118.457 22.1145 117.674 21.4836 117.061 20.7126C116.449 19.9416 116.006 19.0654 115.7 18.0841C115.393 17.1028 115.257 16.0514 115.257 15C115.257 12.6169 115.904 10.6893 117.164 9.25242C118.423 7.81551 120.261 7.07953 122.644 7.07953C123.835 7.07953 124.89 7.28981 125.775 7.71037C126.66 8.13092 127.409 8.69166 127.988 9.42764C128.567 10.1636 129.009 10.9697 129.282 11.9159C129.554 12.8622 129.656 13.8435 129.622 14.8599H129.554ZM126.218 13.8786C126.218 13.423 126.082 12.9673 125.946 12.5117C125.775 12.0561 125.537 11.6356 125.231 11.2851C124.924 10.9347 124.55 10.6192 124.108 10.409C123.665 10.1987 123.154 10.0585 122.576 10.0585C121.35 10.0585 120.397 10.444 119.716 11.215C119.036 11.986 118.661 12.8622 118.525 13.8786H126.218Z" fill="#9D9FA2"/><path d="M135 21.5185C135 22.0442 134.83 22.4648 134.524 22.8152C134.217 23.1657 133.775 23.3409 133.196 23.3409C132.685 23.3409 132.243 23.1657 131.937 22.8152C131.63 22.4648 131.46 22.0442 131.46 21.5185V1.82239C131.46 1.29669 131.63 0.876133 131.937 0.560714C132.243 0.245296 132.685 0.0700652 133.196 0.0700652C133.741 0.0700652 134.183 0.245296 134.524 0.560714C134.864 0.876133 135 1.33174 135 1.82239V21.5185Z" fill="#9D9FA2"/></svg>