<svg width="26" height="25" viewBox="0 0 26 25" fill="none" xmlns="http://www.w3.org/2000/svg"><path fill-rule="evenodd" clip-rule="evenodd" d="M12.8099 4.60338C13.9334 3.49935 15.3831 3.10613 16.7734 3.12576C20.1152 3.17294 23.488 5.8337 23.488 9.68816C23.488 13.3958 21.0575 16.4824 18.6537 18.5809C17.4374 19.6427 16.1899 20.4856 15.1768 21.0661C14.6706 21.3562 14.2143 21.5857 13.842 21.7455C13.6564 21.8252 13.4824 21.8916 13.3273 21.9396C13.1924 21.9813 13.0023 22.0319 12.8116 22.0319C12.6209 22.0319 12.4308 21.9813 12.2959 21.9396C12.1408 21.8916 11.9668 21.8252 11.7813 21.7455C11.409 21.5857 10.9527 21.3562 10.4464 21.0661C9.43333 20.4856 8.18585 19.6427 6.96955 18.5809C4.5657 16.4824 2.13525 13.3958 2.13525 9.68816C2.13525 5.84281 5.5002 3.12568 8.86134 3.12568C10.214 3.12568 11.6776 3.5015 12.8099 4.60338ZM16.7503 4.6881C15.4715 4.67004 14.2798 5.09363 13.4778 6.26739C13.3293 6.48473 13.0793 6.61527 12.8116 6.61527C12.5439 6.61527 12.2939 6.48473 12.1454 6.2674C11.3482 5.10072 10.1349 4.68818 8.86134 4.68818C6.2971 4.68818 3.73666 6.78875 3.73666 9.68816C3.73666 12.7254 5.75026 15.4199 8.03734 17.4165C9.16651 18.4022 10.3262 19.1852 11.2574 19.7188C11.7233 19.9858 12.1234 20.1854 12.4262 20.3153C12.5782 20.3806 12.6964 20.4243 12.78 20.4502C12.792 20.4539 12.8025 20.457 12.8116 20.4596C12.8207 20.457 12.8312 20.4539 12.8432 20.4502C12.9268 20.4243 13.045 20.3806 13.197 20.3153C13.4998 20.1854 13.8999 19.9858 14.3658 19.7188C15.297 19.1852 16.4567 18.4022 17.5859 17.4165C19.873 15.4199 21.8865 12.7254 21.8865 9.68816C21.8865 6.79786 19.3339 4.72457 16.7503 4.6881Z" fill="#040509"/></svg>