<svg width="110" height="30" viewBox="0 0 110 30" fill="none" xmlns="http://www.w3.org/2000/svg"><path d="M13.9877 22.9655C13.6142 23.2451 13.1729 23.35 12.6976 23.2801C12.2223 23.2102 11.7809 22.9655 11.3735 22.546L3.53087 14.1917V21.4275C3.53087 22.0567 3.36111 22.546 2.98766 22.8606C2.6142 23.1752 2.20679 23.35 1.76543 23.35C1.32407 23.35 0.91667 23.1752 0.543211 22.8606C0.169753 22.546 0 22.0567 0 21.4275V3.53035C0 2.90115 0.169753 2.41182 0.543211 2.09722C0.91667 1.78262 1.32407 1.60779 1.76543 1.60779C2.20679 1.60779 2.6142 1.78262 2.98766 2.09722C3.36111 2.41182 3.53087 2.90115 3.53087 3.53035V9.61258L10.4908 2.62153C11.0679 2.02729 11.6112 1.71271 12.1204 1.71271C12.6297 1.71271 13.0371 1.85251 13.3426 2.13216C13.6482 2.44675 13.784 2.83123 13.784 3.35556C13.784 3.87989 13.5124 4.33432 13.071 4.78874L5.90742 11.8847L13.8519 20.274C14.3272 20.7633 14.5649 21.2527 14.5649 21.7071C14.5649 22.1615 14.3951 22.581 13.9877 22.9305V22.9655Z" fill="#9D9FA2"/><path d="M29.1639 14.8559C29.1639 15.9744 28.5188 16.5337 27.2966 16.5337H18.2318C18.3336 17.6173 18.741 18.4912 19.454 19.1903C20.133 19.8895 21.0836 20.239 22.3398 20.239C22.8491 20.239 23.2565 20.239 23.6299 20.1341C24.0034 20.0642 24.3429 19.9943 24.6485 19.8545C24.954 19.7146 25.2596 19.5399 25.5312 19.3301C25.8028 19.1204 26.1083 18.8757 26.4139 18.5961C26.9571 18.1766 27.3985 18.0019 27.7719 18.0368C28.1454 18.0718 28.4509 18.2465 28.6207 18.5611C28.8244 18.8757 28.8923 19.2253 28.8923 19.6447C28.8923 20.0642 28.7565 20.4487 28.4849 20.7633C27.9417 21.3576 27.1608 21.9168 26.0744 22.4412C24.988 22.9655 23.7657 23.2451 22.4417 23.2451C21.1176 23.2451 19.9972 23.0004 19.0466 22.546C18.096 22.0916 17.3151 21.4624 16.704 20.6934C16.0929 19.9244 15.6515 19.0505 15.3459 18.0718C15.0404 17.093 14.9046 16.0443 14.9046 14.9957C14.9046 12.6187 15.5496 10.6962 16.8058 9.26301C18.062 7.82984 19.8953 7.0958 22.2719 7.0958C23.4602 7.0958 24.5127 7.3055 25.3954 7.72497C26.2781 8.14443 27.025 8.70373 27.6022 9.43779C28.1793 10.1719 28.6207 10.9758 28.8923 11.9196C29.1639 12.8634 29.2657 13.8422 29.2318 14.8559H29.1639ZM25.8367 13.8421C25.8367 13.3877 25.7009 12.9333 25.5651 12.4789C25.3954 12.0245 25.1577 11.605 24.8522 11.2555C24.5466 10.9059 24.1731 10.5913 23.7318 10.3816C23.2904 10.1719 22.7812 10.032 22.204 10.032C20.9818 10.032 20.0311 10.4165 19.3521 11.1856C18.6731 11.9546 18.2997 12.8284 18.1639 13.8421H25.8367Z" fill="#9D9FA2"/><path d="M42.71 8.59909C42.71 8.77386 42.71 8.98364 42.6421 9.19337C42.6081 9.40311 42.5063 9.71766 42.3705 10.1371L35.8859 28.209C35.7501 28.5236 35.5124 28.8382 35.2408 29.0829C34.9692 29.3276 34.5957 29.4674 34.1544 29.4674C33.747 29.4674 33.3735 29.3276 33.034 29.0479C32.6945 28.7683 32.4908 28.3838 32.4908 27.9294C32.4908 27.7546 32.4908 27.5448 32.5926 27.3351C32.6605 27.1254 32.7624 26.8108 32.9321 26.3914L34.4599 22.3365L30.1482 10.1371C30.0124 9.71766 29.9105 9.40311 29.8426 9.19337C29.7747 8.98364 29.7408 8.77386 29.7408 8.59909C29.7408 8.10971 29.9105 7.72523 30.284 7.48055C30.6235 7.2009 30.9969 7.0611 31.3704 7.0611C31.8118 7.0611 32.1852 7.20092 32.4908 7.44561C32.7963 7.6903 33 8.00489 33.1358 8.31949L36.2933 17.4428L39.3488 8.31949C39.4846 8.00489 39.6883 7.6903 39.9599 7.44561C40.2315 7.20092 40.605 7.0611 41.0464 7.0611C41.4198 7.0611 41.7933 7.2009 42.1328 7.48055C42.4723 7.76019 42.6421 8.14467 42.6421 8.59909H42.71Z" fill="#9D9FA2"/><path d="M55.9506 10.7662C55.7129 11.1157 55.4074 11.2905 55 11.3604C54.5926 11.4303 54.1852 11.3254 53.7777 10.9759C53.4382 10.6613 53.0308 10.4166 52.5555 10.2069C52.1142 9.99714 51.5709 9.92723 50.9259 9.99715C49.6018 10.102 48.6172 10.6613 47.9722 11.675C47.3271 12.6537 46.9876 13.8072 46.9876 15.1006C46.9876 15.7647 47.0555 16.394 47.2253 16.9882C47.395 17.5824 47.6327 18.1067 47.9382 18.5961C48.2438 19.0505 48.6512 19.435 49.1265 19.7496C49.6018 20.0642 50.179 20.2041 50.824 20.239C51.4012 20.239 51.9105 20.2391 52.3518 20.0643C52.7932 19.9245 53.2345 19.6798 53.7098 19.4001C54.2531 19.0506 54.6944 18.9457 55.0339 19.0505C55.4074 19.1904 55.679 19.435 55.8487 19.7496C56.0185 20.0642 56.0864 20.4488 56.0185 20.8682C55.9506 21.2877 55.7808 21.6023 55.5092 21.812C55.2037 22.0917 54.6605 22.3713 53.9814 22.6859C53.2685 23.0005 52.4876 23.1753 51.6728 23.2452C50.3827 23.3151 49.2623 23.1403 48.2438 22.7209C47.2253 22.3014 46.4104 21.7421 45.7314 20.9731C45.0524 20.239 44.5431 19.3302 44.2036 18.3515C43.8641 17.3378 43.6944 16.2541 43.6944 15.1356C43.6944 14.1568 43.8302 13.213 44.1018 12.3042C44.3734 11.3954 44.7808 10.5215 45.324 9.78742C45.8672 9.05336 46.5462 8.42417 47.395 7.9348C48.2438 7.44542 49.2283 7.13083 50.3487 7.06091C51.5709 6.95605 52.6574 7.06092 53.5401 7.34056C54.4568 7.65516 55.1697 8.03964 55.7469 8.56397C56.1203 8.94847 56.3241 9.36792 56.3241 9.75243C56.3241 10.1369 56.1882 10.5215 55.9845 10.8011L55.9506 10.7662Z" fill="#9D9FA2"/><path d="M70.9572 21.4625C70.9572 21.9869 70.8214 22.4063 70.5159 22.7559C70.2103 23.1054 69.769 23.2802 69.2258 23.2802C68.7165 23.2802 68.2751 23.1054 67.9696 22.7559C67.664 22.4063 67.4943 21.9869 67.4943 21.4625V13.1082C67.4943 11.9547 67.1887 11.1857 66.5436 10.7662C65.8986 10.3468 65.1856 10.137 64.4387 10.137C64.0992 10.137 63.7257 10.2069 63.3523 10.3467C62.9788 10.4866 62.6393 10.7312 62.3677 11.0109C62.0961 11.2905 61.8245 11.6401 61.6547 12.0246C61.451 12.4091 61.3831 12.8635 61.3831 13.318V21.4625C61.3831 21.9869 61.2134 22.4063 60.9078 22.7559C60.6023 23.1054 60.1609 23.2802 59.5837 23.2802C59.0745 23.2802 58.6331 23.1054 58.3276 22.7559C58.022 22.4063 57.8522 21.9869 57.8522 21.4625V1.81769C57.8522 1.29336 58.022 0.873861 58.3276 0.524308C58.6331 0.174755 59.0745 0 59.5837 0C60.127 0 60.5683 0.174755 60.9078 0.524308C61.2134 0.873861 61.3831 1.29336 61.3831 1.81769V8.21451C61.9603 7.76009 62.5714 7.44546 63.2165 7.30564C63.8615 7.13086 64.5066 7.06098 65.1856 7.06098C65.8646 7.06098 66.5097 7.16585 67.1887 7.34063C67.8677 7.51541 68.5128 7.86495 69.0899 8.31937C69.6671 8.77379 70.1424 9.36799 70.4819 10.137C70.8214 10.906 71.0251 11.8498 71.0251 12.9684V21.4625H70.9572Z" fill="#9D9FA2"/><path d="M86.982 21.5675C86.982 22.1618 86.8122 22.6162 86.4388 22.8958C86.0653 23.1755 85.7258 23.3153 85.3524 23.3153C84.9789 23.3153 84.6734 23.1755 84.3338 22.9308C83.9943 22.6861 83.7906 22.3016 83.7567 21.7773C82.6703 22.791 81.4141 23.3153 79.9542 23.3153C78.7659 23.3153 77.7134 23.0706 76.8307 22.6162C75.948 22.1618 75.2011 21.5326 74.6239 20.7636C74.0128 19.9946 73.5715 19.1207 73.2999 18.1419C72.9943 17.1632 72.8585 16.1494 72.8585 15.1008C72.8585 14.0521 72.9943 13.0734 73.2999 12.1296C73.6054 11.1858 74.0468 10.312 74.6239 9.57789C75.2011 8.84383 75.948 8.24956 76.8307 7.79514C77.7134 7.34072 78.732 7.13098 79.9542 7.13098C81.4141 7.13098 82.7042 7.58543 83.7567 8.52923C83.8246 8.0049 84.0283 7.65535 84.3678 7.44562C84.7073 7.23589 85.0468 7.13098 85.3863 7.13098C85.7258 7.13098 86.0993 7.27081 86.4727 7.51549C86.8462 7.76018 87.0159 8.21463 87.0159 8.80887V21.6375L86.982 21.5675ZM83.7906 15.1008C83.7906 14.4366 83.7227 13.8075 83.553 13.1783C83.3832 12.5491 83.1456 12.0247 82.84 11.5703C82.5344 11.1159 82.127 10.7314 81.6517 10.4518C81.1764 10.1721 80.6332 10.0323 80.0221 10.0323C79.3431 10.0323 78.7659 10.1721 78.2906 10.4518C77.8153 10.7314 77.4079 11.1159 77.1023 11.6053C76.7968 12.0946 76.5591 12.619 76.4233 13.2132C76.2875 13.8075 76.2196 14.4017 76.2196 15.0309C76.2196 15.6601 76.2875 16.2893 76.4233 16.9185C76.5591 17.5477 76.7968 18.1069 77.1023 18.5963C77.4079 19.0857 77.8153 19.5052 78.2906 19.8198C78.7659 20.1344 79.3431 20.3091 80.0221 20.3091C80.5993 20.3091 81.1425 20.1693 81.5838 19.8547C82.0252 19.5401 82.4326 19.1556 82.7721 18.6662C83.0777 18.1769 83.3493 17.6176 83.519 16.9884C83.6888 16.3592 83.7906 15.73 83.7906 15.1008Z" fill="#9D9FA2"/><path d="M93.8736 3.60027C93.8736 4.15955 93.6699 4.64894 93.2964 5.03345C92.9229 5.41796 92.4476 5.59275 91.8365 5.59275C91.2254 5.59275 90.7501 5.41796 90.3766 5.03345C90.0032 4.64894 89.7995 4.19451 89.7995 3.60027C89.7995 3.07594 90.0032 2.58659 90.3766 2.20208C90.784 1.81757 91.2593 1.60779 91.8365 1.60779C92.4137 1.60779 92.889 1.81757 93.2964 2.20208C93.6699 2.58659 93.8736 3.07594 93.8736 3.60027ZM93.602 21.4624C93.602 22.0217 93.4322 22.4411 93.1266 22.7557C92.8211 23.0703 92.3797 23.2451 91.8705 23.2451C91.3272 23.2451 90.8859 23.0703 90.5803 22.7557C90.2748 22.4411 90.139 21.9867 90.139 21.4624V8.8785C90.139 8.35417 90.2748 7.93472 90.5803 7.58517C90.8859 7.23562 91.3272 7.06086 91.8705 7.06086C92.3797 7.06086 92.8211 7.23562 93.1266 7.58517C93.4322 7.93472 93.602 8.35417 93.602 8.8785V21.4624Z" fill="#9D9FA2"/><path d="M109.932 21.4627C109.932 21.987 109.797 22.4064 109.491 22.756C109.185 23.1055 108.744 23.2803 108.201 23.2803C107.692 23.2803 107.25 23.1055 106.945 22.756C106.639 22.4064 106.469 21.987 106.469 21.4627V13.1083C106.469 11.9548 106.164 11.1858 105.519 10.7664C104.874 10.3469 104.161 10.1371 103.414 10.1371C103.074 10.1371 102.701 10.207 102.327 10.3469C101.954 10.4867 101.614 10.7314 101.343 11.011C101.071 11.2907 100.8 11.6402 100.63 12.0247C100.426 12.4093 100.358 12.8637 100.358 13.3181V21.4627C100.358 21.987 100.188 22.4064 99.8829 22.756C99.5773 23.1055 99.136 23.2803 98.5588 23.2803C98.0496 23.2803 97.6082 23.1055 97.3026 22.756C96.9971 22.4064 96.8273 21.987 96.8273 21.4627V8.80886C96.8273 8.28453 96.9971 7.86507 97.3026 7.55047C97.6082 7.23587 98.0496 7.0611 98.5588 7.0611C99.0002 7.0611 99.3736 7.16593 99.6452 7.41062C99.9169 7.65531 100.155 7.93495 100.256 8.2845C100.834 7.79513 101.479 7.48054 102.158 7.30576C102.837 7.13098 103.516 7.0611 104.161 7.0611C104.806 7.0611 105.485 7.16597 106.164 7.34075C106.843 7.51552 107.488 7.86507 108.065 8.31949C108.642 8.77391 109.118 9.36811 109.457 10.1371C109.797 10.9061 110 11.8499 110 12.9685V21.4627H109.932Z" fill="#9D9FA2"/></svg>