<svg width="25" height="24" viewBox="0 0 25 24" fill="none" xmlns="http://www.w3.org/2000/svg"><path fill-rule="evenodd" clip-rule="evenodd" d="M12.3016 4.41936C13.3805 3.3595 14.7727 2.98201 16.1079 3.00085C19.317 3.04614 22.5559 5.60047 22.5559 9.30073C22.5559 12.86 20.2219 15.8232 17.9135 17.8378C16.7454 18.8571 15.5475 19.6663 14.5746 20.2236C14.0884 20.502 13.6503 20.7223 13.2927 20.8758C13.1146 20.9522 12.9474 21.016 12.7985 21.062C12.669 21.1021 12.4864 21.1507 12.3033 21.1507C12.1201 21.1507 11.9375 21.1021 11.808 21.062C11.6591 21.016 11.492 20.9522 11.3138 20.8758C10.9563 20.7223 10.5181 20.502 10.0319 20.2236C9.05906 19.6663 7.86109 18.8571 6.69306 17.8378C4.3846 15.8232 2.05061 12.86 2.05061 9.30074C2.05061 5.60922 5.28201 3.00077 8.50977 3.00077C9.80875 3.00077 11.2143 3.36156 12.3016 4.41936ZM16.0856 4.50069C14.8576 4.48336 13.7132 4.89 12.943 6.01681C12.8004 6.22545 12.5604 6.35077 12.3033 6.35077C12.0462 6.35077 11.8061 6.22545 11.6635 6.01681C10.8979 4.89681 9.73276 4.50077 8.50977 4.50077C6.04729 4.50077 3.58846 6.51731 3.58846 9.30074C3.58846 12.2165 5.52215 14.8032 7.71847 16.7199C8.80282 17.6662 9.91651 18.4179 10.8107 18.9301C11.2581 19.1864 11.6424 19.378 11.9331 19.5028C12.0791 19.5655 12.1926 19.6074 12.2729 19.6322C12.2844 19.6358 12.2945 19.6388 12.3033 19.6413C12.312 19.6388 12.3221 19.6358 12.3336 19.6322C12.4139 19.6074 12.5274 19.5655 12.6734 19.5028C12.9642 19.378 13.3484 19.1864 13.7958 18.9301C14.69 18.4179 15.8037 17.6662 16.8881 16.7199C19.0844 14.8032 21.0181 12.2165 21.0181 9.30073C21.0181 6.52606 18.5668 4.53571 16.0856 4.50069Z" fill="#040509"/></svg>