<svg width="41" height="42" viewBox="0 0 41 42" fill="none" xmlns="http://www.w3.org/2000/svg"><path d="M32.8013 32.8244C30.5482 32.8244 28.7143 34.6582 28.7143 36.9111C28.7143 39.164 30.5482 41.0239 32.8013 41.0239C35.0545 41.0239 36.9146 39.1902 36.9146 36.9111C36.9146 34.632 35.0807 32.8244 32.8013 32.8244ZM12.2875 32.8244C10.0344 32.8244 8.20044 34.6582 8.20044 36.9111C8.20044 39.164 10.0344 41.0239 12.2875 41.0239C14.5406 41.0239 16.4008 39.1902 16.4008 36.9111C16.4008 34.632 14.5668 32.8244 12.2875 32.8244ZM29.8148 22.5815C31.3605 22.5815 32.6967 21.7432 33.404 20.4596L40.7398 7.15168C41.4995 5.78946 40.504 4.11287 38.9582 4.11287H8.61955L6.70706 0H2.04353C0.916968 0 0 0.916879 0 2.04334C0 3.16979 0.916968 4.08668 2.04353 4.08668H4.08715L9.61513 15.7442L11.4753 19.6475L8.69823 24.651C7.20487 27.4017 9.1698 30.7287 12.2875 30.7287H34.845C35.9715 30.7287 36.8884 29.8118 36.8884 28.6853C36.8884 27.5589 35.9715 26.642 34.845 26.642H12.2875L14.5406 22.5553H29.8148V22.5815ZM10.5845 8.25194H35.4999L29.8408 18.4948H15.4575L13.2044 13.7532L10.5845 8.25194Z" fill="#231F20"/></svg>