<svg width="53" height="53" viewBox="0 0 53 53" fill="none" xmlns="http://www.w3.org/2000/svg"><mask id="mask0_256_1887" style="mask-type:luminance" maskUnits="userSpaceOnUse" x="0" y="0" width="53" height="53"><path d="M26.5001 52.5637C40.8974 52.5637 52.5687 40.8935 52.5687 26.4976C52.5687 12.1017 40.8974 0.43152 26.5001 0.43152C12.1028 0.43152 0.43152 12.1017 0.43152 26.4976C0.43152 40.8935 12.1028 52.5637 26.5001 52.5637Z" fill="white"/></mask><g mask="url(#mask0_256_1887)"><path d="M32.9124 32.9088C36.6965 30.6666 39.2192 26.5324 39.2192 21.8027C39.2192 14.6906 33.4729 8.94485 26.4301 8.94485C19.3874 8.94485 13.6761 14.7256 13.7112 21.8377C13.7112 26.5675 16.269 30.7016 20.0531 32.9439C11.6789 35.4664 5.65237 42.7887 5.65237 51.4073C5.65237 52.1781 5.68733 52.9138 5.79244 53.6496C12.3797 52.9138 19.3524 52.5284 26.5003 52.5284C33.6832 52.5284 40.6207 52.9138 47.243 53.6496C47.3481 52.9138 47.3833 52.1781 47.3833 51.4073C47.3833 42.7887 41.3214 35.5014 32.9472 32.9789L32.9124 32.9088Z" fill="white"/></g><path d="M26.5001 52.5637C40.8974 52.5637 52.5687 40.8935 52.5687 26.4976C52.5687 12.1017 40.8974 0.43152 26.5001 0.43152C12.1028 0.43152 0.43152 12.1017 0.43152 26.4976C0.43152 40.8935 12.1028 52.5637 26.5001 52.5637Z" fill="white" stroke="#231F20" stroke-width="0.86" stroke-miterlimit="10"/><mask id="mask1_256_1887" style="mask-type:luminance" maskUnits="userSpaceOnUse" x="0" y="0" width="53" height="53"><path d="M26.5001 52.5637C40.8974 52.5637 52.5687 40.8935 52.5687 26.4976C52.5687 12.1017 40.8974 0.43152 26.5001 0.43152C12.1028 0.43152 0.43152 12.1017 0.43152 26.4976C0.43152 40.8935 12.1028 52.5637 26.5001 52.5637Z" fill="white"/></mask><g mask="url(#mask1_256_1887)"><path d="M32.9124 32.9088C36.6965 30.6666 39.2192 26.5324 39.2192 21.8027C39.2192 14.6906 33.4729 8.94485 26.4301 8.94485C19.3874 8.94485 13.6761 14.7256 13.7112 21.8377C13.7112 26.5675 16.269 30.7016 20.0531 32.9439C11.6789 35.4664 5.65237 42.7887 5.65237 51.4073C5.65237 52.1781 5.68733 52.9138 5.79244 53.6496C12.3797 52.9138 19.3524 52.5284 26.5003 52.5284C33.6832 52.5284 40.6207 52.9138 47.243 53.6496C47.3481 52.9138 47.3833 52.1781 47.3833 51.4073C47.3833 42.7887 41.3214 35.5014 32.9472 32.9789L32.9124 32.9088Z" fill="#231F20"/></g><path d="M26.5001 52.5637C40.8974 52.5637 52.5687 40.8935 52.5687 26.4976C52.5687 12.1017 40.8974 0.43152 26.5001 0.43152C12.1028 0.43152 0.43152 12.1017 0.43152 26.4976C0.43152 40.8935 12.1028 52.5637 26.5001 52.5637Z" stroke="#231F20" stroke-width="0.86" stroke-miterlimit="10"/></svg>