<svg width="101" height="24" viewBox="0 0 101 24" fill="none" xmlns="http://www.w3.org/2000/svg"><path d="M13.7852 16.7187C13.7852 17.5986 13.6143 18.4435 13.3066 19.2178C12.9989 19.9921 12.5203 20.6961 11.905 21.2944C11.2896 21.8928 10.5376 22.3503 9.61453 22.6671C8.7257 22.9839 7.70011 23.1599 6.53779 23.1599C4.99941 23.1599 3.76872 22.9839 2.87988 22.5967C1.95686 22.2096 1.23895 21.7872 0.726158 21.2944C0.281739 20.9425 0.0424402 20.52 0.00825421 20.0273C-0.0259318 19.5345 0.0424335 19.1122 0.281736 18.7954C0.521038 18.4435 0.862903 18.2323 1.34151 18.1267C1.82011 18.0211 2.36709 18.2323 2.98244 18.6899C3.35848 19.0066 3.8029 19.2882 4.31569 19.5346C4.82848 19.7809 5.5464 19.9217 6.50361 19.9217C7.11895 19.9217 7.66592 19.8161 8.11034 19.6402C8.55476 19.429 8.9308 19.1826 9.20429 18.901C9.47778 18.5843 9.68291 18.2675 9.85384 17.9155C9.99058 17.5635 10.0931 17.2115 10.0931 16.8595C10.0931 16.1204 9.85383 15.4869 9.37522 15.0293C8.89662 14.5717 8.28128 14.1494 7.52918 13.8326C6.77709 13.5158 5.99081 13.199 5.13616 12.8822C4.28151 12.5654 3.46104 12.2135 2.74313 11.7559C1.99104 11.2984 1.40988 10.7352 0.897085 9.99606C0.418481 9.29211 0.179182 8.37698 0.179182 7.25066C0.179182 6.30033 0.350111 5.49071 0.726158 4.75156C1.06802 4.01241 1.58081 3.41412 2.19616 2.95656C2.81151 2.49899 3.52941 2.11175 4.31569 1.90057C5.10197 1.65418 5.95662 1.54857 6.84546 1.54857C8.28127 1.54857 9.40941 1.72457 10.2299 2.11174C11.0503 2.49892 11.6999 2.92134 12.2468 3.37891C12.6913 3.73088 12.9306 4.18844 12.9648 4.6812C12.999 5.17397 12.8964 5.59629 12.6571 5.94826C12.4178 6.30024 12.0417 6.4763 11.5631 6.5819C11.0845 6.68749 10.5717 6.47629 9.99057 6.01872C9.44359 5.59635 8.99918 5.27954 8.58894 5.10355C8.17871 4.92757 7.59755 4.82202 6.84546 4.82202C5.88825 4.82202 5.20453 5.06834 4.69174 5.52591C4.21313 5.98348 3.97383 6.54664 3.97383 7.1802C3.97383 7.53217 4.07638 7.84902 4.24732 8.1306C4.45243 8.41218 4.65756 8.65853 4.96523 8.86972C5.23872 9.0809 5.54639 9.25687 5.85406 9.39766C6.16174 9.53845 6.46941 9.67919 6.77709 9.78478C7.59755 10.1368 8.45221 10.4888 9.30686 10.8408C10.1615 11.1927 10.9136 11.6151 11.5973 12.1431C12.2469 12.671 12.7938 13.3046 13.2382 14.0438C13.6827 14.7829 13.8878 15.7332 13.8878 16.8947L13.7852 16.7187Z" fill="#9D9FA2"/><path d="M22.5367 8.23615C22.5367 8.76411 22.3657 9.15124 22.0239 9.39762C21.682 9.644 21.2718 9.78474 20.7248 9.78474H20.1436V21.4352C20.1436 21.9632 19.9727 22.3855 19.665 22.7023C19.3574 23.0191 18.9129 23.1951 18.366 23.1951C17.819 23.1951 17.3746 23.0191 17.0669 22.7023C16.7592 22.3855 16.6225 21.9632 16.6225 21.4352V9.78474H16.0755C15.5285 9.78474 15.0841 9.644 14.7764 9.39762C14.4346 9.15124 14.2978 8.76411 14.2978 8.23615C14.2978 7.74338 14.4687 7.35618 14.7764 7.1098C15.0841 6.86342 15.5285 6.68745 16.0755 6.68745H16.6567V3.90681C16.6567 3.37885 16.7934 2.95642 17.1011 2.63965C17.4087 2.32287 17.8532 2.14694 18.4001 2.14694C18.9471 2.14694 19.3915 2.32287 19.6992 2.63965C20.0069 2.95642 20.1778 3.37885 20.1778 3.90681V6.68745H20.759C21.306 6.68745 21.7504 6.82822 22.0581 7.1098C22.3999 7.39138 22.5708 7.77858 22.5708 8.23615H22.5367Z" fill="#9D9FA2"/><path d="M37.3737 21.4705C37.3737 22.0688 37.2027 22.5264 36.8267 22.808C36.4506 23.0896 36.1088 23.2303 35.7327 23.2303C35.3567 23.2303 35.049 23.0896 34.7072 22.8432C34.3653 22.5968 34.1602 22.2096 34.126 21.6816C33.032 22.7024 31.7672 23.2303 30.2972 23.2303C29.1006 23.2303 28.0409 22.984 27.152 22.5265C26.2632 22.0689 25.5111 21.4353 24.9299 20.661C24.3146 19.8866 23.8702 19.0067 23.5967 18.0212C23.289 17.0356 23.1523 16.0148 23.1523 14.9589C23.1523 13.903 23.289 12.9175 23.5967 11.9672C23.9044 11.0169 24.3488 10.1369 24.9299 9.39774C25.5111 8.65859 26.2632 8.0602 27.152 7.60263C28.0409 7.14507 29.0665 6.93387 30.2972 6.93387C31.7672 6.93387 33.0662 7.39153 34.126 8.34186C34.1944 7.8139 34.3995 7.46193 34.7413 7.25074C35.0832 7.03956 35.4251 6.93387 35.7669 6.93387C36.1088 6.93387 36.4848 7.07472 36.8609 7.3211C37.2369 7.56748 37.4078 8.02503 37.4078 8.62339V21.5409L37.3737 21.4705ZM34.126 14.9589C34.126 14.2902 34.0576 13.6566 33.8867 13.0231C33.7158 12.3895 33.4765 11.8616 33.1688 11.404C32.8611 10.9465 32.4509 10.5593 31.9723 10.2777C31.4937 9.9961 30.9467 9.85533 30.3313 9.85533C29.6476 9.85533 29.0665 9.9961 28.5879 10.2777C28.1092 10.5593 27.699 10.9464 27.3913 11.4392C27.0837 11.9319 26.8444 12.46 26.7076 13.0583C26.5709 13.6567 26.5025 14.255 26.5025 14.8885C26.5025 15.5221 26.5709 16.1557 26.7076 16.7892C26.8444 17.4228 27.0837 17.9859 27.3913 18.4787C27.699 18.9714 28.1092 19.3938 28.5879 19.7106C29.0665 20.0274 29.6476 20.2034 30.3313 20.2034C30.9125 20.2034 31.4595 20.0626 31.9039 19.7458C32.3483 19.429 32.7585 19.0419 33.1004 18.5491C33.4081 18.0564 33.6816 17.4932 33.8525 16.8596C34.0234 16.226 34.126 15.5925 34.126 14.9589Z" fill="#9D9FA2"/><path d="M53.5777 21.3649C53.5777 21.8928 53.441 22.3152 53.1333 22.6672C52.8256 23.0191 52.3812 23.1952 51.8342 23.1952C51.3214 23.1952 50.877 23.0191 50.5693 22.6672C50.2617 22.3152 50.0907 21.8928 50.0907 21.3649V12.9527C50.0907 11.7912 49.783 11.0168 49.1335 10.5944C48.484 10.1721 47.7661 9.9609 47.014 9.9609C46.6721 9.9609 46.2961 10.0313 45.92 10.1721C45.544 10.3129 45.2021 10.5593 44.9286 10.8408C44.6551 11.1224 44.3817 11.4744 44.2107 11.8616C44.0056 12.2488 43.9372 12.7063 43.9372 13.1639V21.3649C43.9372 21.8928 43.7663 22.3152 43.4586 22.6672C43.151 23.0191 42.7065 23.1952 42.1254 23.1952C41.6126 23.1952 41.1682 23.0191 40.8605 22.6672C40.5528 22.3152 40.3819 21.8928 40.3819 21.3649V8.62338C40.3819 8.09542 40.5528 7.6731 40.8605 7.35632C41.1682 7.03954 41.6126 6.8635 42.1254 6.8635C42.5698 6.8635 42.9458 6.96912 43.2193 7.2155C43.4928 7.46188 43.7321 7.74346 43.8347 8.09544C44.4158 7.60267 45.0654 7.2859 45.7491 7.10991C46.4328 6.93393 47.1165 6.8635 47.7661 6.8635C48.4156 6.8635 49.0993 6.96905 49.7831 7.14504C50.4668 7.32102 51.1163 7.6731 51.6975 8.13067C52.2786 8.58824 52.7572 9.18656 53.0991 9.9609C53.4409 10.7352 53.6461 11.6856 53.6461 12.8119V21.3649H53.5777Z" fill="#9D9FA2"/><path d="M69.5427 21.4705C69.5427 22.0689 69.3718 22.4912 68.9958 22.7728C68.6197 23.0544 68.2779 23.16 67.9018 23.16C67.5258 23.16 67.1839 23.0192 66.842 22.808C66.5002 22.5617 66.2951 22.1745 66.2267 21.6113C65.1327 22.6321 63.8337 23.16 62.3295 23.16C61.133 23.16 60.0732 22.9488 59.1844 22.4913C58.2955 22.0337 57.5776 21.4354 56.9965 20.661C56.4153 19.8867 56.0051 19.0067 55.6974 17.986C55.3897 16.9653 55.253 15.9445 55.253 14.8886C55.253 13.8327 55.3897 12.8471 55.6974 11.8968C56.0051 10.9464 56.4153 10.1018 56.9965 9.32743C57.5776 8.58828 58.2955 7.95466 59.1844 7.49709C60.0732 7.03952 61.0988 6.82833 62.3295 6.82833C63.0474 6.82833 63.7653 6.93394 64.449 7.18033C65.1327 7.39151 65.7139 7.74352 66.2267 8.20108V1.68952C66.2267 1.09116 66.3976 0.668809 66.7737 0.387229C67.1497 0.105648 67.5258 0 67.9018 0C68.2437 0 68.6197 0.140846 68.9958 0.387229C69.3718 0.633611 69.5427 1.09116 69.5427 1.68952V21.4705ZM66.3293 14.9589C66.3293 14.2902 66.2267 13.6567 66.0558 13.0231C65.8848 12.3896 65.6455 11.8616 65.3037 11.4041C64.9618 10.9465 64.5858 10.5593 64.1072 10.2777C63.6286 9.99615 63.0816 9.85537 62.4662 9.85537C61.7825 9.85537 61.2013 9.99615 60.7227 10.2777C60.2441 10.5593 59.8339 10.9464 59.5262 11.4392C59.2186 11.932 58.9793 12.46 58.8425 13.0584C58.7058 13.6567 58.6374 14.255 58.6374 14.8886C58.6374 15.5221 58.7058 16.1557 58.8425 16.7893C58.9793 17.4228 59.2186 17.9859 59.5262 18.4787C59.8339 19.0067 60.2441 19.4291 60.7227 19.7459C61.2013 20.0626 61.7825 20.2386 62.4662 20.2386C63.0816 20.2386 63.6286 20.0978 64.1072 19.7459C64.5858 19.4291 64.9618 19.0067 65.3037 18.5139C65.6113 18.0212 65.8848 17.458 66.0558 16.8244C66.2267 16.1909 66.3293 15.5925 66.3293 14.9942V14.9589Z" fill="#9D9FA2"/><path d="M85.7468 14.6774C85.7468 15.8037 85.0973 16.3669 83.8666 16.3669H74.7389C74.8415 17.458 75.2517 18.3379 75.9696 19.0418C76.6534 19.7458 77.6106 20.0978 78.8754 20.0978C79.3882 20.0978 79.7985 20.0978 80.1745 19.9922C80.5506 19.9218 80.8924 19.8514 81.2001 19.7106C81.5078 19.5698 81.8154 19.3938 82.0889 19.1826C82.3624 18.9715 82.6701 18.7251 82.9778 18.4435C83.5248 18.0211 83.9692 17.8451 84.3452 17.8803C84.7213 17.9155 85.0289 18.0915 85.1999 18.4083C85.405 18.7251 85.4734 19.077 85.4734 19.4994C85.4734 19.9218 85.3366 20.309 85.0631 20.6257C84.5161 21.2241 83.7299 21.7873 82.6359 22.3153C81.542 22.8432 80.3113 23.1247 78.978 23.1247C77.6447 23.1247 76.5166 22.8784 75.5594 22.4209C74.6022 21.9633 73.8159 21.3297 73.2006 20.5554C72.5852 19.781 72.1408 18.9011 71.8331 17.9156C71.5254 16.93 71.3887 15.8741 71.3887 14.8182C71.3887 12.4247 72.0382 10.4888 73.3031 9.04573C74.568 7.60264 76.4141 6.8635 78.8071 6.8635C80.0036 6.8635 81.0634 7.07466 81.9522 7.49703C82.841 7.9194 83.5931 8.48264 84.1743 9.22179C84.7554 9.96093 85.1999 10.7704 85.4734 11.7208C85.7468 12.6711 85.8494 13.6566 85.8152 14.6774H85.7468ZM82.3966 13.6918C82.3966 13.2343 82.2599 12.7766 82.1231 12.3191C81.9522 11.8615 81.7129 11.4392 81.4052 11.0873C81.0975 10.7353 80.7215 10.4185 80.2771 10.2073C79.8327 9.99613 79.3199 9.85532 78.7387 9.85532C77.508 9.85532 76.5508 10.2424 75.8671 11.0168C75.1834 11.7911 74.8073 12.6711 74.6706 13.6918H82.3966Z" fill="#9D9FA2"/><path d="M100.925 14.6774C100.925 15.8037 100.276 16.3669 99.0453 16.3669H89.9176C90.0201 17.458 90.4304 18.3379 91.1483 19.0418C91.832 19.7458 92.7892 20.0978 94.0541 20.0978C94.5669 20.0978 94.9771 20.0978 95.3532 19.9922C95.7292 19.9218 96.0711 19.8514 96.3787 19.7106C96.6864 19.5698 96.9941 19.3938 97.2676 19.1826C97.5411 18.9715 97.8487 18.7251 98.1564 18.4435C98.7034 18.0211 99.1478 17.8451 99.5239 17.8803C99.8999 17.9155 100.208 18.0915 100.379 18.4083C100.584 18.7251 100.652 19.077 100.652 19.4994C100.652 19.9218 100.515 20.309 100.242 20.6257C99.6948 21.2241 98.9085 21.7873 97.8146 22.3153C96.7206 22.8432 95.4899 23.1247 94.1567 23.1247C92.8234 23.1247 91.6953 22.8784 90.7381 22.4209C89.7808 21.9633 88.9946 21.3297 88.3792 20.5554C87.7639 19.781 87.3194 18.9011 87.0118 17.9156C86.7041 16.93 86.5674 15.8741 86.5674 14.8182C86.5674 12.4247 87.2169 10.4888 88.4818 9.04573C89.7467 7.60264 91.5927 6.8635 93.9857 6.8635C95.1822 6.8635 96.242 7.07466 97.1308 7.49703C98.0197 7.9194 98.7718 8.48264 99.3529 9.22179C99.9341 9.96093 100.379 10.7704 100.652 11.7208C100.925 12.6711 101.028 13.6566 100.994 14.6774H100.925ZM97.5753 13.6918C97.5753 13.2343 97.4385 12.7766 97.3018 12.3191C97.1308 11.8615 96.8915 11.4392 96.5839 11.0873C96.2762 10.7353 95.9001 10.4185 95.4557 10.2073C95.0113 9.99613 94.4985 9.85532 93.9174 9.85532C92.6867 9.85532 91.7294 10.2424 91.0457 11.0168C90.362 11.7911 89.986 12.6711 89.8492 13.6918H97.5753Z" fill="#9D9FA2"/></svg>